<ttFont>
    <TTGlyph name=".notdef" xMin="85" yMin="0" xMax="453" yMax="678">
      <contour>
        <pt x="156" y="546" on="1"/>
        <pt x="156" y="130" on="1"/>
        <pt x="156" y="98" on="0"/>
        <pt x="179" y="71" on="0"/>
        <pt x="210" y="71" on="1"/>
        <pt x="328" y="71" on="1"/>
        <pt x="359" y="71" on="0"/>
        <pt x="382" y="98" on="0"/>
        <pt x="382" y="130" on="1"/>
        <pt x="382" y="546" on="1"/>
        <pt x="382" y="578" on="0"/>
        <pt x="359" y="606" on="0"/>
        <pt x="328" y="606" on="1"/>
        <pt x="210" y="606" on="1"/>
        <pt x="179" y="606" on="0"/>
        <pt x="156" y="578" on="0"/>
      </contour>
      <contour>
        <pt x="85" y="0" on="1"/>
        <pt x="85" y="678" on="1"/>
        <pt x="453" y="678" on="1"/>
        <pt x="453" y="0" on="1"/>
      </contour>
    </TTGlyph>
    <TTGlyph name="A" xMin="24" yMin="-16" xMax="566" yMax="636">
      <contour>
        <pt x="331" y="636" on="1"/>
        <pt x="563" y="31" on="1"/>
        <pt x="566" y="22" on="0"/>
        <pt x="566" y="14" on="1"/>
        <pt x="566" y="-2" on="0"/>
        <pt x="544" y="-16" on="0"/>
        <pt x="535" y="-16" on="1"/>
        <pt x="513" y="-16" on="0"/>
        <pt x="503" y="10" on="1"/>
        <pt x="433" y="194" on="1"/>
        <pt x="157" y="194" on="1"/>
        <pt x="87" y="10" on="1"/>
        <pt x="76" y="-16" on="0"/>
        <pt x="55" y="-16" on="1"/>
        <pt x="46" y="-16" on="0"/>
        <pt x="24" y="-2" on="0"/>
        <pt x="24" y="14" on="1"/>
        <pt x="24" y="22" on="0"/>
        <pt x="27" y="31" on="1"/>
        <pt x="259" y="636" on="1"/>
      </contour>
      <contour>
        <pt x="409" y="256" on="1"/>
        <pt x="294" y="546" on="1"/>
        <pt x="181" y="256" on="1"/>
      </contour>
    </TTGlyph>
    <TTGlyph name="A.smallcap" xMin="14" yMin="-17" xMax="536" yMax="552">
      <contour>
        <pt x="17" y="26" on="1"/>
        <pt x="246" y="552" on="1"/>
        <pt x="304" y="552" on="1"/>
        <pt x="533" y="26" on="1"/>
        <pt x="536" y="18" on="0"/>
        <pt x="536" y="10" on="1"/>
        <pt x="536" y="-4" on="0"/>
        <pt x="515" y="-17" on="0"/>
        <pt x="505" y="-17" on="1"/>
        <pt x="479" y="-17" on="0"/>
        <pt x="470" y="6" on="1"/>
        <pt x="402" y="170" on="1"/>
        <pt x="148" y="170" on="1"/>
        <pt x="80" y="6" on="1"/>
        <pt x="70" y="-17" on="0"/>
        <pt x="45" y="-17" on="1"/>
        <pt x="39" y="-17" on="0"/>
        <pt x="26" y="-13" on="0"/>
        <pt x="14" y="0" on="0"/>
        <pt x="14" y="10" on="1"/>
        <pt x="14" y="18" on="0"/>
      </contour>
      <contour>
        <pt x="176" y="232" on="1"/>
        <pt x="374" y="232" on="1"/>
        <pt x="274" y="461" on="1"/>
      </contour>
    </TTGlyph>
    <TTGlyph name="AE" xMin="9" yMin="-16" xMax="836" yMax="636">
      <contour>
        <pt x="465" y="322" on="1"/>
        <pt x="465" y="62" on="1"/>
        <pt x="797" y="62" on="1"/>
        <pt x="836" y="62" on="0"/>
        <pt x="836" y="29" on="1"/>
        <pt x="836" y="0" on="0"/>
        <pt x="797" y="0" on="1"/>
        <pt x="431" y="0" on="1"/>
        <pt x="402" y="0" on="0"/>
        <pt x="402" y="40" on="1"/>
        <pt x="402" y="189" on="1"/>
        <pt x="191" y="189" on="1"/>
        <pt x="71" y="9" on="1"/>
        <pt x="54" y="-16" on="0"/>
        <pt x="34" y="-16" on="1"/>
        <pt x="26" y="-16" on="0"/>
        <pt x="9" y="-5" on="0"/>
        <pt x="9" y="7" on="1"/>
        <pt x="9" y="18" on="0"/>
        <pt x="18" y="32" on="1"/>
        <pt x="408" y="624" on="1"/>
        <pt x="416" y="636" on="0"/>
        <pt x="431" y="636" on="1"/>
        <pt x="797" y="636" on="1"/>
        <pt x="836" y="636" on="0"/>
        <pt x="836" y="603" on="1"/>
        <pt x="836" y="574" on="0"/>
        <pt x="797" y="574" on="1"/>
        <pt x="465" y="574" on="1"/>
        <pt x="465" y="384" on="1"/>
        <pt x="677" y="384" on="1"/>
        <pt x="719" y="384" on="0"/>
        <pt x="719" y="351" on="1"/>
        <pt x="719" y="322" on="0"/>
        <pt x="677" y="322" on="1"/>
      </contour>
      <contour>
        <pt x="232" y="251" on="1"/>
        <pt x="402" y="251" on="1"/>
        <pt x="402" y="511" on="1"/>
      </contour>
    </TTGlyph>
    <TTGlyph name="Aacute" xMin="24" yMin="-16" xMax="566" yMax="819">
      <component glyphName="acutecomb" x="626" y="178" flags="0x1004"/>
      <component glyphName="A" x="0" y="0" flags="0x1204"/>
    </TTGlyph>
    <TTGlyph name="Abreve" xMin="24" yMin="-16" xMax="566" yMax="819">
      <contour>
        <pt x="170" y="819" on="1"/>
        <pt x="233" y="819" on="1"/>
        <pt x="233" y="796" on="0"/>
        <pt x="261" y="762" on="0"/>
        <pt x="329" y="762" on="0"/>
        <pt x="357" y="796" on="0"/>
        <pt x="357" y="819" on="1"/>
        <pt x="420" y="819" on="1"/>
        <pt x="420" y="785" on="0"/>
        <pt x="393" y="735" on="0"/>
        <pt x="352" y="710" on="0"/>
        <pt x="313" y="698" on="0"/>
        <pt x="295" y="698" on="1"/>
        <pt x="250" y="698" on="0"/>
        <pt x="170" y="755" on="0"/>
      </contour>
      <contour>
        <pt x="331" y="636" on="1"/>
        <pt x="563" y="31" on="1"/>
        <pt x="566" y="22" on="0"/>
        <pt x="566" y="14" on="1"/>
        <pt x="566" y="-2" on="0"/>
        <pt x="544" y="-16" on="0"/>
        <pt x="535" y="-16" on="1"/>
        <pt x="513" y="-16" on="0"/>
        <pt x="503" y="10" on="1"/>
        <pt x="433" y="194" on="1"/>
        <pt x="157" y="194" on="1"/>
        <pt x="87" y="10" on="1"/>
        <pt x="76" y="-16" on="0"/>
        <pt x="55" y="-16" on="1"/>
        <pt x="46" y="-16" on="0"/>
        <pt x="24" y="-2" on="0"/>
        <pt x="24" y="14" on="1"/>
        <pt x="24" y="22" on="0"/>
        <pt x="27" y="31" on="1"/>
        <pt x="259" y="636" on="1"/>
      </contour>
      <contour>
        <pt x="409" y="256" on="1"/>
        <pt x="294" y="546" on="1"/>
        <pt x="181" y="256" on="1"/>
      </contour>
    </TTGlyph>
    <TTGlyph name="Acircumflex" xMin="24" yMin="-16" xMax="566" yMax="819">
      <component glyphName="uni0302" x="597" y="141" flags="0x1004"/>
      <component glyphName="A" x="0" y="0" flags="0x1204"/>
    </TTGlyph>
    <TTGlyph name="Acyrillic" xMin="24" yMin="-16" xMax="566" yMax="636">
      <contour>
        <pt x="331" y="636" on="1"/>
        <pt x="563" y="31" on="1"/>
        <pt x="566" y="22" on="0"/>
        <pt x="566" y="14" on="1"/>
        <pt x="566" y="-2" on="0"/>
        <pt x="544" y="-16" on="0"/>
        <pt x="535" y="-16" on="1"/>
        <pt x="513" y="-16" on="0"/>
        <pt x="503" y="10" on="1"/>
        <pt x="433" y="194" on="1"/>
        <pt x="157" y="194" on="1"/>
        <pt x="87" y="10" on="1"/>
        <pt x="76" y="-16" on="0"/>
        <pt x="55" y="-16" on="1"/>
        <pt x="46" y="-16" on="0"/>
        <pt x="24" y="-2" on="0"/>
        <pt x="24" y="14" on="1"/>
        <pt x="24" y="22" on="0"/>
        <pt x="27" y="31" on="1"/>
        <pt x="259" y="636" on="1"/>
      </contour>
      <contour>
        <pt x="409" y="256" on="1"/>
        <pt x="294" y="546" on="1"/>
        <pt x="181" y="256" on="1"/>
      </contour>
    </TTGlyph>
    <TTGlyph name="Adieresis" xMin="24" yMin="-16" xMax="566" yMax="789">
      <component glyphName="uni0308" x="603" y="197" flags="0x1004"/>
      <component glyphName="A" x="0" y="0" flags="0x1204"/>
    </TTGlyph>
    <TTGlyph name="Agrave" xMin="24" yMin="-16" xMax="566" yMax="819">
      <component glyphName="gravecomb" x="562" y="178" flags="0x1004"/>
      <component glyphName="A" x="0" y="0" flags="0x1204"/>
    </TTGlyph>
    <TTGlyph name="Alpha" xMin="24" yMin="-16" xMax="566" yMax="636">
      <contour>
        <pt x="331" y="636" on="1"/>
        <pt x="563" y="31" on="1"/>
        <pt x="566" y="22" on="0"/>
        <pt x="566" y="14" on="1"/>
        <pt x="566" y="-2" on="0"/>
        <pt x="544" y="-16" on="0"/>
        <pt x="535" y="-16" on="1"/>
        <pt x="513" y="-16" on="0"/>
        <pt x="503" y="10" on="1"/>
        <pt x="433" y="194" on="1"/>
        <pt x="157" y="194" on="1"/>
        <pt x="87" y="10" on="1"/>
        <pt x="76" y="-16" on="0"/>
        <pt x="55" y="-16" on="1"/>
        <pt x="46" y="-16" on="0"/>
        <pt x="24" y="-2" on="0"/>
        <pt x="24" y="14" on="1"/>
        <pt x="24" y="22" on="0"/>
        <pt x="27" y="31" on="1"/>
        <pt x="259" y="636" on="1"/>
      </contour>
      <contour>
        <pt x="409" y="256" on="1"/>
        <pt x="294" y="546" on="1"/>
        <pt x="181" y="256" on="1"/>
      </contour>
    </TTGlyph>
    <TTGlyph name="Alphatonos" xMin="30" yMin="-16" xMax="572" yMax="793">
      <contour>
        <pt x="192" y="793" on="1"/>
        <pt x="205" y="793" on="0"/>
        <pt x="221" y="774" on="0"/>
        <pt x="221" y="760" on="1"/>
        <pt x="221" y="750" on="0"/>
        <pt x="218" y="741" on="1"/>
        <pt x="169" y="606" on="1"/>
        <pt x="160" y="579" on="0"/>
        <pt x="137" y="579" on="1"/>
        <pt x="124" y="579" on="0"/>
        <pt x="106" y="595" on="0"/>
        <pt x="106" y="609" on="1"/>
        <pt x="106" y="618" on="0"/>
        <pt x="110" y="627" on="1"/>
        <pt x="159" y="763" on="1"/>
        <pt x="170" y="793" on="0"/>
      </contour>
      <contour>
        <pt x="337" y="636" on="1"/>
        <pt x="569" y="31" on="1"/>
        <pt x="572" y="22" on="0"/>
        <pt x="572" y="14" on="1"/>
        <pt x="572" y="-2" on="0"/>
        <pt x="550" y="-16" on="0"/>
        <pt x="541" y="-16" on="1"/>
        <pt x="519" y="-16" on="0"/>
        <pt x="509" y="10" on="1"/>
        <pt x="439" y="194" on="1"/>
        <pt x="163" y="194" on="1"/>
        <pt x="93" y="10" on="1"/>
        <pt x="82" y="-16" on="0"/>
        <pt x="61" y="-16" on="1"/>
        <pt x="52" y="-16" on="0"/>
        <pt x="30" y="-2" on="0"/>
        <pt x="30" y="14" on="1"/>
        <pt x="30" y="22" on="0"/>
        <pt x="33" y="31" on="1"/>
        <pt x="265" y="636" on="1"/>
      </contour>
      <contour>
        <pt x="415" y="256" on="1"/>
        <pt x="300" y="546" on="1"/>
        <pt x="187" y="256" on="1"/>
      </contour>
    </TTGlyph>
    <TTGlyph name="Amacron" xMin="24" yMin="-16" xMax="566" yMax="770">
      <contour>
        <pt x="171" y="770" on="1"/>
        <pt x="416" y="770" on="1"/>
        <pt x="455" y="770" on="0"/>
        <pt x="455" y="737" on="1"/>
        <pt x="455" y="723" on="0"/>
        <pt x="432" y="707" on="0"/>
        <pt x="416" y="707" on="1"/>
        <pt x="171" y="707" on="1"/>
        <pt x="135" y="707" on="0"/>
        <pt x="135" y="739" on="1"/>
        <pt x="135" y="751" on="0"/>
        <pt x="152" y="770" on="0"/>
      </contour>
      <contour>
        <pt x="331" y="636" on="1"/>
        <pt x="563" y="31" on="1"/>
        <pt x="566" y="22" on="0"/>
        <pt x="566" y="14" on="1"/>
        <pt x="566" y="-2" on="0"/>
        <pt x="544" y="-16" on="0"/>
        <pt x="535" y="-16" on="1"/>
        <pt x="513" y="-16" on="0"/>
        <pt x="503" y="10" on="1"/>
        <pt x="433" y="194" on="1"/>
        <pt x="157" y="194" on="1"/>
        <pt x="87" y="10" on="1"/>
        <pt x="76" y="-16" on="0"/>
        <pt x="55" y="-16" on="1"/>
        <pt x="46" y="-16" on="0"/>
        <pt x="24" y="-2" on="0"/>
        <pt x="24" y="14" on="1"/>
        <pt x="24" y="22" on="0"/>
        <pt x="27" y="31" on="1"/>
        <pt x="259" y="636" on="1"/>
      </contour>
      <contour>
        <pt x="409" y="256" on="1"/>
        <pt x="294" y="546" on="1"/>
        <pt x="181" y="256" on="1"/>
      </contour>
    </TTGlyph>
    <TTGlyph name="Aogonek" xMin="24" yMin="-205" xMax="612" yMax="646">
      <contour>
        <pt x="409" y="256" on="1"/>
        <pt x="294" y="546" on="1"/>
        <pt x="181" y="256" on="1"/>
      </contour>
      <contour>
        <pt x="55" y="-16" on="1"/>
        <pt x="46" y="-16" on="0"/>
        <pt x="24" y="-2" on="0"/>
        <pt x="24" y="14" on="1"/>
        <pt x="24" y="22" on="0"/>
        <pt x="27" y="31" on="1"/>
        <pt x="263" y="646" on="1"/>
        <pt x="327" y="646" on="1"/>
        <pt x="563" y="31" on="1"/>
        <pt x="566" y="22" on="0"/>
        <pt x="566" y="14" on="1"/>
        <pt x="566" y="-13" on="0"/>
        <pt x="537" y="-16" on="1"/>
        <pt x="515" y="-36" on="0"/>
        <pt x="489" y="-87" on="0"/>
        <pt x="489" y="-96" on="1"/>
        <pt x="489" y="-145" on="0"/>
        <pt x="526" y="-145" on="1"/>
        <pt x="542" y="-145" on="0"/>
        <pt x="586" y="-128" on="0"/>
        <pt x="592" y="-128" on="1"/>
        <pt x="612" y="-128" on="0"/>
        <pt x="612" y="-150" on="1"/>
        <pt x="612" y="-179" on="0"/>
        <pt x="555" y="-205" on="0"/>
        <pt x="528" y="-205" on="1"/>
        <pt x="485" y="-205" on="0"/>
        <pt x="427" y="-145" on="0"/>
        <pt x="427" y="-96" on="1"/>
        <pt x="427" y="-48" on="0"/>
        <pt x="496" y="28" on="1"/>
        <pt x="433" y="194" on="1"/>
        <pt x="157" y="194" on="1"/>
        <pt x="87" y="10" on="1"/>
        <pt x="76" y="-16" on="0"/>
      </contour>
    </TTGlyph>
    <TTGlyph name="Aring" xMin="24" yMin="-16" xMax="566" yMax="819">
      <component glyphName="uni030A" x="602" y="155" flags="0x1004"/>
      <component glyphName="A" x="0" y="0" flags="0x1204"/>
    </TTGlyph>
    <TTGlyph name="Atilde" xMin="24" yMin="-16" xMax="566" yMax="803">
      <component glyphName="tildecomb" x="575" y="212" flags="0x1004"/>
      <component glyphName="A" x="0" y="0" flags="0x1204"/>
    </TTGlyph>
    <TTGlyph name="B" xMin="84" yMin="0" xMax="568" yMax="636">
      <contour>
        <pt x="343" y="317" on="1"/>
        <pt x="146" y="317" on="1"/>
        <pt x="146" y="62" on="1"/>
        <pt x="331" y="62" on="1"/>
        <pt x="435" y="62" on="0"/>
        <pt x="506" y="104" on="0"/>
        <pt x="506" y="181" on="1"/>
        <pt x="506" y="198" on="1"/>
        <pt x="506" y="275" on="0"/>
        <pt x="438" y="317" on="0"/>
      </contour>
      <contour>
        <pt x="84" y="40" on="1"/>
        <pt x="84" y="596" on="1"/>
        <pt x="84" y="636" on="0"/>
        <pt x="113" y="636" on="1"/>
        <pt x="297" y="636" on="1"/>
        <pt x="413" y="636" on="0"/>
        <pt x="526" y="569" on="0"/>
        <pt x="526" y="478" on="1"/>
        <pt x="526" y="402" on="0"/>
        <pt x="482" y="365" on="1"/>
        <pt x="568" y="328" on="0"/>
        <pt x="568" y="201" on="1"/>
        <pt x="568" y="182" on="1"/>
        <pt x="568" y="73" on="0"/>
        <pt x="456" y="0" on="0"/>
        <pt x="331" y="0" on="1"/>
        <pt x="113" y="0" on="1"/>
        <pt x="84" y="0" on="0"/>
      </contour>
      <contour>
        <pt x="297" y="379" on="1"/>
        <pt x="392" y="379" on="0"/>
        <pt x="464" y="416" on="0"/>
        <pt x="464" y="474" on="1"/>
        <pt x="464" y="533" on="0"/>
        <pt x="390" y="569" on="0"/>
        <pt x="297" y="569" on="1"/>
        <pt x="146" y="569" on="1"/>
        <pt x="146" y="379" on="1"/>
      </contour>
    </TTGlyph>
    <TTGlyph name="Becyrillic" xMin="85" yMin="-7" xMax="527" yMax="636">
      <contour>
        <pt x="454" y="636" on="1"/>
        <pt x="494" y="636" on="0"/>
        <pt x="494" y="574" on="0"/>
        <pt x="454" y="574" on="1"/>
        <pt x="147" y="574" on="1"/>
        <pt x="147" y="471" on="1"/>
        <pt x="300" y="471" on="1"/>
        <pt x="401" y="471" on="0"/>
        <pt x="527" y="329" on="0"/>
        <pt x="527" y="232" on="1"/>
        <pt x="527" y="134" on="0"/>
        <pt x="401" y="-7" on="0"/>
        <pt x="300" y="-7" on="1"/>
        <pt x="114" y="-7" on="1"/>
        <pt x="85" y="-7" on="0"/>
        <pt x="85" y="32" on="1"/>
        <pt x="85" y="636" on="1"/>
      </contour>
      <contour>
        <pt x="300" y="409" on="1"/>
        <pt x="147" y="409" on="1"/>
        <pt x="147" y="55" on="1"/>
        <pt x="300" y="55" on="1"/>
        <pt x="381" y="55" on="0"/>
        <pt x="465" y="160" on="0"/>
        <pt x="465" y="232" on="1"/>
        <pt x="465" y="303" on="0"/>
        <pt x="380" y="409" on="0"/>
      </contour>
    </TTGlyph>
    <TTGlyph name="Beta" xMin="84" yMin="0" xMax="568" yMax="636">
      <contour>
        <pt x="343" y="317" on="1"/>
        <pt x="146" y="317" on="1"/>
        <pt x="146" y="62" on="1"/>
        <pt x="331" y="62" on="1"/>
        <pt x="435" y="62" on="0"/>
        <pt x="506" y="104" on="0"/>
        <pt x="506" y="181" on="1"/>
        <pt x="506" y="198" on="1"/>
        <pt x="506" y="275" on="0"/>
        <pt x="438" y="317" on="0"/>
      </contour>
      <contour>
        <pt x="84" y="40" on="1"/>
        <pt x="84" y="596" on="1"/>
        <pt x="84" y="636" on="0"/>
        <pt x="113" y="636" on="1"/>
        <pt x="297" y="636" on="1"/>
        <pt x="413" y="636" on="0"/>
        <pt x="526" y="569" on="0"/>
        <pt x="526" y="478" on="1"/>
        <pt x="526" y="402" on="0"/>
        <pt x="482" y="365" on="1"/>
        <pt x="568" y="328" on="0"/>
        <pt x="568" y="201" on="1"/>
        <pt x="568" y="182" on="1"/>
        <pt x="568" y="73" on="0"/>
        <pt x="456" y="0" on="0"/>
        <pt x="331" y="0" on="1"/>
        <pt x="113" y="0" on="1"/>
        <pt x="84" y="0" on="0"/>
      </contour>
      <contour>
        <pt x="297" y="379" on="1"/>
        <pt x="392" y="379" on="0"/>
        <pt x="464" y="416" on="0"/>
        <pt x="464" y="474" on="1"/>
        <pt x="464" y="533" on="0"/>
        <pt x="390" y="569" on="0"/>
        <pt x="297" y="569" on="1"/>
        <pt x="146" y="569" on="1"/>
        <pt x="146" y="379" on="1"/>
      </contour>
    </TTGlyph>
    <TTGlyph name="C" xMin="71" yMin="0" xMax="555" yMax="636">
      <contour>
        <pt x="450" y="0" on="1"/>
        <pt x="309" y="0" on="1"/>
        <pt x="184" y="0" on="0"/>
        <pt x="71" y="73" on="0"/>
        <pt x="71" y="182" on="1"/>
        <pt x="71" y="454" on="1"/>
        <pt x="71" y="562" on="0"/>
        <pt x="180" y="636" on="0"/>
        <pt x="297" y="636" on="1"/>
        <pt x="450" y="636" on="1"/>
        <pt x="513" y="636" on="0"/>
        <pt x="555" y="572" on="0"/>
        <pt x="555" y="519" on="1"/>
        <pt x="555" y="479" on="0"/>
        <pt x="493" y="479" on="0"/>
        <pt x="493" y="517" on="1"/>
        <pt x="493" y="550" on="0"/>
        <pt x="472" y="574" on="0"/>
        <pt x="443" y="574" on="1"/>
        <pt x="297" y="574" on="1"/>
        <pt x="201" y="574" on="0"/>
        <pt x="133" y="531" on="0"/>
        <pt x="133" y="453" on="1"/>
        <pt x="133" y="183" on="1"/>
        <pt x="133" y="104" on="0"/>
        <pt x="204" y="62" on="0"/>
        <pt x="309" y="62" on="1"/>
        <pt x="443" y="62" on="1"/>
        <pt x="472" y="62" on="0"/>
        <pt x="493" y="87" on="0"/>
        <pt x="493" y="119" on="1"/>
        <pt x="493" y="157" on="0"/>
        <pt x="555" y="157" on="0"/>
        <pt x="555" y="116" on="1"/>
        <pt x="555" y="64" on="0"/>
        <pt x="513" y="0" on="0"/>
      </contour>
    </TTGlyph>
    <TTGlyph name="Cacute" xMin="71" yMin="0" xMax="555" yMax="819">
      <contour>
        <pt x="349" y="804" on="1"/>
        <pt x="364" y="819" on="0"/>
        <pt x="377" y="819" on="1"/>
        <pt x="389" y="819" on="0"/>
        <pt x="408" y="799" on="0"/>
        <pt x="408" y="789" on="1"/>
        <pt x="408" y="777" on="0"/>
        <pt x="394" y="761" on="1"/>
        <pt x="325" y="693" on="1"/>
        <pt x="312" y="678" on="0"/>
        <pt x="296" y="678" on="1"/>
        <pt x="283" y="678" on="0"/>
        <pt x="266" y="696" on="0"/>
        <pt x="266" y="707" on="1"/>
        <pt x="266" y="720" on="0"/>
        <pt x="279" y="735" on="1"/>
      </contour>
      <contour>
        <pt x="450" y="0" on="1"/>
        <pt x="309" y="0" on="1"/>
        <pt x="184" y="0" on="0"/>
        <pt x="71" y="73" on="0"/>
        <pt x="71" y="182" on="1"/>
        <pt x="71" y="454" on="1"/>
        <pt x="71" y="562" on="0"/>
        <pt x="180" y="636" on="0"/>
        <pt x="297" y="636" on="1"/>
        <pt x="450" y="636" on="1"/>
        <pt x="513" y="636" on="0"/>
        <pt x="555" y="572" on="0"/>
        <pt x="555" y="519" on="1"/>
        <pt x="555" y="479" on="0"/>
        <pt x="493" y="479" on="0"/>
        <pt x="493" y="517" on="1"/>
        <pt x="493" y="550" on="0"/>
        <pt x="472" y="574" on="0"/>
        <pt x="443" y="574" on="1"/>
        <pt x="297" y="574" on="1"/>
        <pt x="201" y="574" on="0"/>
        <pt x="133" y="531" on="0"/>
        <pt x="133" y="453" on="1"/>
        <pt x="133" y="183" on="1"/>
        <pt x="133" y="104" on="0"/>
        <pt x="204" y="62" on="0"/>
        <pt x="309" y="62" on="1"/>
        <pt x="443" y="62" on="1"/>
        <pt x="472" y="62" on="0"/>
        <pt x="493" y="87" on="0"/>
        <pt x="493" y="119" on="1"/>
        <pt x="493" y="157" on="0"/>
        <pt x="555" y="157" on="0"/>
        <pt x="555" y="116" on="1"/>
        <pt x="555" y="64" on="0"/>
        <pt x="513" y="0" on="0"/>
      </contour>
    </TTGlyph>
    <TTGlyph name="Ccaron" xMin="71" yMin="0" xMax="555" yMax="819">
      <contour>
        <pt x="351" y="665" on="1"/>
        <pt x="291" y="665" on="1"/>
        <pt x="185" y="776" on="1"/>
        <pt x="177" y="784" on="0"/>
        <pt x="177" y="804" on="0"/>
        <pt x="191" y="819" on="0"/>
        <pt x="205" y="819" on="1"/>
        <pt x="218" y="819" on="0"/>
        <pt x="240" y="801" on="1"/>
        <pt x="321" y="734" on="1"/>
        <pt x="402" y="801" on="1"/>
        <pt x="424" y="819" on="0"/>
        <pt x="437" y="819" on="1"/>
        <pt x="451" y="819" on="0"/>
        <pt x="465" y="804" on="0"/>
        <pt x="465" y="784" on="0"/>
        <pt x="457" y="776" on="1"/>
      </contour>
      <contour>
        <pt x="450" y="0" on="1"/>
        <pt x="309" y="0" on="1"/>
        <pt x="184" y="0" on="0"/>
        <pt x="71" y="73" on="0"/>
        <pt x="71" y="182" on="1"/>
        <pt x="71" y="454" on="1"/>
        <pt x="71" y="562" on="0"/>
        <pt x="180" y="636" on="0"/>
        <pt x="297" y="636" on="1"/>
        <pt x="450" y="636" on="1"/>
        <pt x="513" y="636" on="0"/>
        <pt x="555" y="572" on="0"/>
        <pt x="555" y="519" on="1"/>
        <pt x="555" y="479" on="0"/>
        <pt x="493" y="479" on="0"/>
        <pt x="493" y="517" on="1"/>
        <pt x="493" y="550" on="0"/>
        <pt x="472" y="574" on="0"/>
        <pt x="443" y="574" on="1"/>
        <pt x="297" y="574" on="1"/>
        <pt x="201" y="574" on="0"/>
        <pt x="133" y="531" on="0"/>
        <pt x="133" y="453" on="1"/>
        <pt x="133" y="183" on="1"/>
        <pt x="133" y="104" on="0"/>
        <pt x="204" y="62" on="0"/>
        <pt x="309" y="62" on="1"/>
        <pt x="443" y="62" on="1"/>
        <pt x="472" y="62" on="0"/>
        <pt x="493" y="87" on="0"/>
        <pt x="493" y="119" on="1"/>
        <pt x="493" y="157" on="0"/>
        <pt x="555" y="157" on="0"/>
        <pt x="555" y="116" on="1"/>
        <pt x="555" y="64" on="0"/>
        <pt x="513" y="0" on="0"/>
      </contour>
    </TTGlyph>
    <TTGlyph name="Ccedilla" xMin="71" yMin="-180" xMax="555" yMax="636">
      <contour>
        <pt x="288" y="0" on="1"/>
        <pt x="174" y="2" on="0"/>
        <pt x="71" y="78" on="0"/>
        <pt x="71" y="182" on="1"/>
        <pt x="71" y="454" on="1"/>
        <pt x="71" y="562" on="0"/>
        <pt x="180" y="636" on="0"/>
        <pt x="297" y="636" on="1"/>
        <pt x="450" y="636" on="1"/>
        <pt x="513" y="636" on="0"/>
        <pt x="555" y="572" on="0"/>
        <pt x="555" y="519" on="1"/>
        <pt x="555" y="479" on="0"/>
        <pt x="493" y="479" on="0"/>
        <pt x="493" y="517" on="1"/>
        <pt x="493" y="550" on="0"/>
        <pt x="472" y="574" on="0"/>
        <pt x="443" y="574" on="1"/>
        <pt x="297" y="574" on="1"/>
        <pt x="201" y="574" on="0"/>
        <pt x="133" y="531" on="0"/>
        <pt x="133" y="453" on="1"/>
        <pt x="133" y="183" on="1"/>
        <pt x="133" y="104" on="0"/>
        <pt x="204" y="62" on="0"/>
        <pt x="309" y="62" on="1"/>
        <pt x="443" y="62" on="1"/>
        <pt x="472" y="62" on="0"/>
        <pt x="493" y="87" on="0"/>
        <pt x="493" y="119" on="1"/>
        <pt x="493" y="157" on="0"/>
        <pt x="555" y="157" on="0"/>
        <pt x="555" y="116" on="1"/>
        <pt x="555" y="64" on="0"/>
        <pt x="513" y="0" on="0"/>
        <pt x="450" y="0" on="1"/>
        <pt x="351" y="0" on="1"/>
        <pt x="354" y="-11" on="0"/>
        <pt x="377" y="-31" on="0"/>
        <pt x="400" y="-45" on="0"/>
        <pt x="419" y="-74" on="0"/>
        <pt x="419" y="-94" on="1"/>
        <pt x="419" y="-133" on="0"/>
        <pt x="359" y="-180" on="0"/>
        <pt x="318" y="-180" on="1"/>
        <pt x="291" y="-180" on="0"/>
        <pt x="234" y="-154" on="0"/>
        <pt x="234" y="-125" on="1"/>
        <pt x="234" y="-114" on="0"/>
        <pt x="246" y="-102" on="0"/>
        <pt x="254" y="-102" on="1"/>
        <pt x="264" y="-102" on="0"/>
        <pt x="308" y="-120" on="0"/>
        <pt x="320" y="-120" on="1"/>
        <pt x="343" y="-120" on="0"/>
        <pt x="357" y="-110" on="0"/>
        <pt x="357" y="-99" on="1"/>
        <pt x="357" y="-90" on="0"/>
        <pt x="325" y="-67" on="0"/>
        <pt x="291" y="-27" on="0"/>
      </contour>
    </TTGlyph>
    <TTGlyph name="Ccircumflex" xMin="71" yMin="0" xMax="555" yMax="821">
      <contour>
        <pt x="450" y="0" on="1"/>
        <pt x="309" y="0" on="1"/>
        <pt x="184" y="0" on="0"/>
        <pt x="71" y="73" on="0"/>
        <pt x="71" y="182" on="1"/>
        <pt x="71" y="454" on="1"/>
        <pt x="71" y="562" on="0"/>
        <pt x="180" y="636" on="0"/>
        <pt x="297" y="636" on="1"/>
        <pt x="450" y="636" on="1"/>
        <pt x="513" y="636" on="0"/>
        <pt x="555" y="572" on="0"/>
        <pt x="555" y="519" on="1"/>
        <pt x="555" y="479" on="0"/>
        <pt x="493" y="479" on="0"/>
        <pt x="493" y="517" on="1"/>
        <pt x="493" y="550" on="0"/>
        <pt x="472" y="574" on="0"/>
        <pt x="443" y="574" on="1"/>
        <pt x="297" y="574" on="1"/>
        <pt x="201" y="574" on="0"/>
        <pt x="133" y="531" on="0"/>
        <pt x="133" y="453" on="1"/>
        <pt x="133" y="183" on="1"/>
        <pt x="133" y="104" on="0"/>
        <pt x="204" y="62" on="0"/>
        <pt x="309" y="62" on="1"/>
        <pt x="443" y="62" on="1"/>
        <pt x="472" y="62" on="0"/>
        <pt x="493" y="87" on="0"/>
        <pt x="493" y="119" on="1"/>
        <pt x="493" y="157" on="0"/>
        <pt x="555" y="157" on="0"/>
        <pt x="555" y="116" on="1"/>
        <pt x="555" y="64" on="0"/>
        <pt x="513" y="0" on="0"/>
      </contour>
      <contour>
        <pt x="176" y="697" on="1"/>
        <pt x="283" y="821" on="1"/>
        <pt x="346" y="821" on="1"/>
        <pt x="455" y="697" on="1"/>
        <pt x="462" y="690" on="0"/>
        <pt x="462" y="676" on="1"/>
        <pt x="462" y="648" on="0"/>
        <pt x="434" y="648" on="1"/>
        <pt x="426" y="648" on="0"/>
        <pt x="416" y="653" on="0"/>
        <pt x="409" y="662" on="1"/>
        <pt x="402" y="670" on="1"/>
        <pt x="315" y="752" on="1"/>
        <pt x="229" y="670" on="1"/>
        <pt x="222" y="662" on="1"/>
        <pt x="215" y="653" on="0"/>
        <pt x="205" y="648" on="0"/>
        <pt x="197" y="648" on="1"/>
        <pt x="169" y="648" on="0"/>
        <pt x="169" y="676" on="1"/>
        <pt x="169" y="690" on="0"/>
      </contour>
    </TTGlyph>
    <TTGlyph name="Cdotaccent" xMin="71" yMin="0" xMax="555" yMax="788">
      <contour>
        <pt x="370" y="761" on="0"/>
        <pt x="370" y="723" on="0"/>
        <pt x="333" y="696" on="0"/>
        <pt x="314" y="696" on="1"/>
        <pt x="294" y="696" on="0"/>
        <pt x="258" y="722" on="0"/>
        <pt x="258" y="742" on="1"/>
        <pt x="258" y="761" on="0"/>
        <pt x="295" y="788" on="0"/>
        <pt x="314" y="788" on="1"/>
        <pt x="332" y="788" on="0"/>
      </contour>
      <contour>
        <pt x="450" y="0" on="1"/>
        <pt x="309" y="0" on="1"/>
        <pt x="184" y="0" on="0"/>
        <pt x="71" y="73" on="0"/>
        <pt x="71" y="182" on="1"/>
        <pt x="71" y="454" on="1"/>
        <pt x="71" y="562" on="0"/>
        <pt x="180" y="636" on="0"/>
        <pt x="297" y="636" on="1"/>
        <pt x="450" y="636" on="1"/>
        <pt x="513" y="636" on="0"/>
        <pt x="555" y="572" on="0"/>
        <pt x="555" y="519" on="1"/>
        <pt x="555" y="479" on="0"/>
        <pt x="493" y="479" on="0"/>
        <pt x="493" y="517" on="1"/>
        <pt x="493" y="550" on="0"/>
        <pt x="472" y="574" on="0"/>
        <pt x="443" y="574" on="1"/>
        <pt x="297" y="574" on="1"/>
        <pt x="201" y="574" on="0"/>
        <pt x="133" y="531" on="0"/>
        <pt x="133" y="453" on="1"/>
        <pt x="133" y="183" on="1"/>
        <pt x="133" y="104" on="0"/>
        <pt x="204" y="62" on="0"/>
        <pt x="309" y="62" on="1"/>
        <pt x="443" y="62" on="1"/>
        <pt x="472" y="62" on="0"/>
        <pt x="493" y="87" on="0"/>
        <pt x="493" y="119" on="1"/>
        <pt x="493" y="157" on="0"/>
        <pt x="555" y="157" on="0"/>
        <pt x="555" y="116" on="1"/>
        <pt x="555" y="64" on="0"/>
        <pt x="513" y="0" on="0"/>
      </contour>
    </TTGlyph>
    <TTGlyph name="Checyrillic" xMin="57" yMin="-7" xMax="541" yMax="643">
      <contour>
        <pt x="315" y="227" on="1"/>
        <pt x="479" y="227" on="0"/>
        <pt x="479" y="400" on="1"/>
        <pt x="479" y="603" on="1"/>
        <pt x="479" y="643" on="0"/>
        <pt x="541" y="643" on="0"/>
        <pt x="541" y="605" on="1"/>
        <pt x="541" y="32" on="1"/>
        <pt x="541" y="-7" on="0"/>
        <pt x="512" y="-7" on="1"/>
        <pt x="479" y="-7" on="0"/>
        <pt x="479" y="32" on="1"/>
        <pt x="479" y="221" on="1"/>
        <pt x="419" y="165" on="0"/>
        <pt x="315" y="165" on="1"/>
        <pt x="282" y="165" on="1"/>
        <pt x="166" y="165" on="0"/>
        <pt x="57" y="239" on="0"/>
        <pt x="57" y="346" on="1"/>
        <pt x="57" y="603" on="1"/>
        <pt x="57" y="643" on="0"/>
        <pt x="87" y="643" on="1"/>
        <pt x="119" y="643" on="0"/>
        <pt x="119" y="603" on="1"/>
        <pt x="119" y="347" on="1"/>
        <pt x="119" y="270" on="0"/>
        <pt x="187" y="227" on="0"/>
        <pt x="282" y="227" on="1"/>
      </contour>
    </TTGlyph>
    <TTGlyph name="Chi" xMin="38" yMin="-7" xMax="545" yMax="643">
      <contour>
        <pt x="514" y="643" on="1"/>
        <pt x="524" y="643" on="0"/>
        <pt x="545" y="628" on="0"/>
        <pt x="545" y="611" on="1"/>
        <pt x="545" y="601" on="0"/>
        <pt x="536" y="589" on="1"/>
        <pt x="332" y="317" on="1"/>
        <pt x="536" y="46" on="1"/>
        <pt x="545" y="34" on="0"/>
        <pt x="545" y="22" on="1"/>
        <pt x="545" y="8" on="0"/>
        <pt x="525" y="-7" on="0"/>
        <pt x="514" y="-7" on="1"/>
        <pt x="499" y="-7" on="0"/>
        <pt x="485" y="11" on="1"/>
        <pt x="291" y="273" on="1"/>
        <pt x="98" y="11" on="1"/>
        <pt x="85" y="-7" on="0"/>
        <pt x="68" y="-7" on="1"/>
        <pt x="57" y="-7" on="0"/>
        <pt x="38" y="9" on="0"/>
        <pt x="38" y="22" on="1"/>
        <pt x="38" y="34" on="0"/>
        <pt x="47" y="46" on="1"/>
        <pt x="251" y="317" on="1"/>
        <pt x="47" y="589" on="1"/>
        <pt x="38" y="600" on="0"/>
        <pt x="38" y="611" on="1"/>
        <pt x="38" y="623" on="0"/>
        <pt x="51" y="639" on="0"/>
        <pt x="63" y="643" on="0"/>
        <pt x="68" y="643" on="1"/>
        <pt x="84" y="643" on="0"/>
        <pt x="98" y="623" on="1"/>
        <pt x="291" y="362" on="1"/>
        <pt x="485" y="623" on="1"/>
        <pt x="500" y="643" on="0"/>
      </contour>
    </TTGlyph>
    <TTGlyph name="D" xMin="84" yMin="0" xMax="568" yMax="636">
      <contour>
        <pt x="568" y="454" on="1"/>
        <pt x="568" y="182" on="1"/>
        <pt x="568" y="73" on="0"/>
        <pt x="456" y="0" on="0"/>
        <pt x="331" y="0" on="1"/>
        <pt x="113" y="0" on="1"/>
        <pt x="84" y="0" on="0"/>
        <pt x="84" y="40" on="1"/>
        <pt x="84" y="596" on="1"/>
        <pt x="84" y="636" on="0"/>
        <pt x="113" y="636" on="1"/>
        <pt x="343" y="636" on="1"/>
        <pt x="459" y="636" on="0"/>
        <pt x="568" y="562" on="0"/>
      </contour>
      <contour>
        <pt x="506" y="183" on="1"/>
        <pt x="506" y="453" on="1"/>
        <pt x="506" y="532" on="0"/>
        <pt x="438" y="574" on="0"/>
        <pt x="343" y="574" on="1"/>
        <pt x="146" y="574" on="1"/>
        <pt x="146" y="62" on="1"/>
        <pt x="331" y="62" on="1"/>
        <pt x="435" y="62" on="0"/>
        <pt x="506" y="104" on="0"/>
      </contour>
    </TTGlyph>
    <TTGlyph name="Dcaron" xMin="84" yMin="0" xMax="568" yMax="819">
      <contour>
        <pt x="330" y="665" on="1"/>
        <pt x="270" y="665" on="1"/>
        <pt x="164" y="776" on="1"/>
        <pt x="156" y="784" on="0"/>
        <pt x="156" y="804" on="0"/>
        <pt x="170" y="819" on="0"/>
        <pt x="184" y="819" on="1"/>
        <pt x="197" y="819" on="0"/>
        <pt x="219" y="801" on="1"/>
        <pt x="300" y="734" on="1"/>
        <pt x="381" y="801" on="1"/>
        <pt x="403" y="819" on="0"/>
        <pt x="416" y="819" on="1"/>
        <pt x="430" y="819" on="0"/>
        <pt x="444" y="804" on="0"/>
        <pt x="444" y="784" on="0"/>
        <pt x="436" y="776" on="1"/>
      </contour>
      <contour>
        <pt x="568" y="454" on="1"/>
        <pt x="568" y="182" on="1"/>
        <pt x="568" y="73" on="0"/>
        <pt x="456" y="0" on="0"/>
        <pt x="331" y="0" on="1"/>
        <pt x="113" y="0" on="1"/>
        <pt x="84" y="0" on="0"/>
        <pt x="84" y="40" on="1"/>
        <pt x="84" y="596" on="1"/>
        <pt x="84" y="636" on="0"/>
        <pt x="113" y="636" on="1"/>
        <pt x="343" y="636" on="1"/>
        <pt x="459" y="636" on="0"/>
        <pt x="568" y="562" on="0"/>
      </contour>
      <contour>
        <pt x="506" y="183" on="1"/>
        <pt x="506" y="453" on="1"/>
        <pt x="506" y="532" on="0"/>
        <pt x="438" y="574" on="0"/>
        <pt x="343" y="574" on="1"/>
        <pt x="146" y="574" on="1"/>
        <pt x="146" y="62" on="1"/>
        <pt x="331" y="62" on="1"/>
        <pt x="435" y="62" on="0"/>
        <pt x="506" y="104" on="0"/>
      </contour>
    </TTGlyph>
    <TTGlyph name="Dcroat" xMin="47" yMin="0" xMax="568" yMax="636">
      <contour>
        <pt x="506" y="183" on="1"/>
        <pt x="506" y="453" on="1"/>
        <pt x="506" y="532" on="0"/>
        <pt x="438" y="574" on="0"/>
        <pt x="343" y="574" on="1"/>
        <pt x="146" y="574" on="1"/>
        <pt x="146" y="356" on="1"/>
        <pt x="240" y="356" on="1"/>
        <pt x="279" y="356" on="0"/>
        <pt x="279" y="324" on="1"/>
        <pt x="279" y="293" on="0"/>
        <pt x="240" y="293" on="1"/>
        <pt x="146" y="293" on="1"/>
        <pt x="146" y="62" on="1"/>
        <pt x="331" y="62" on="1"/>
        <pt x="435" y="62" on="0"/>
        <pt x="506" y="104" on="0"/>
      </contour>
      <contour>
        <pt x="568" y="454" on="1"/>
        <pt x="568" y="182" on="1"/>
        <pt x="568" y="73" on="0"/>
        <pt x="456" y="0" on="0"/>
        <pt x="331" y="0" on="1"/>
        <pt x="113" y="0" on="1"/>
        <pt x="84" y="0" on="0"/>
        <pt x="84" y="40" on="1"/>
        <pt x="84" y="293" on="1"/>
        <pt x="47" y="293" on="0"/>
        <pt x="47" y="326" on="1"/>
        <pt x="47" y="356" on="0"/>
        <pt x="84" y="356" on="1"/>
        <pt x="84" y="596" on="1"/>
        <pt x="84" y="636" on="0"/>
        <pt x="113" y="636" on="1"/>
        <pt x="343" y="636" on="1"/>
        <pt x="459" y="636" on="0"/>
        <pt x="568" y="562" on="0"/>
      </contour>
    </TTGlyph>
    <TTGlyph name="Decyrillic" xMin="12" yMin="-92" xMax="552" yMax="636">
      <contour>
        <pt x="74" y="-52" on="1"/>
        <pt x="74" y="-92" on="0"/>
        <pt x="12" y="-92" on="0"/>
        <pt x="12" y="-52" on="1"/>
        <pt x="12" y="0" on="1"/>
        <pt x="12" y="62" on="0"/>
        <pt x="75" y="62" on="1"/>
        <pt x="105" y="119" on="0"/>
        <pt x="174" y="487" on="0"/>
        <pt x="174" y="636" on="1"/>
        <pt x="492" y="636" on="1"/>
        <pt x="492" y="62" on="1"/>
        <pt x="503" y="62" on="0"/>
        <pt x="519" y="59" on="0"/>
        <pt x="540" y="48" on="0"/>
        <pt x="552" y="21" on="0"/>
        <pt x="552" y="0" on="1"/>
        <pt x="552" y="-52" on="1"/>
        <pt x="552" y="-92" on="0"/>
        <pt x="490" y="-92" on="0"/>
        <pt x="490" y="-52" on="1"/>
        <pt x="490" y="0" on="1"/>
        <pt x="74" y="0" on="1"/>
      </contour>
      <contour>
        <pt x="143" y="62" on="1"/>
        <pt x="430" y="62" on="1"/>
        <pt x="430" y="574" on="1"/>
        <pt x="240" y="574" on="1"/>
        <pt x="238" y="455" on="0"/>
        <pt x="174" y="127" on="0"/>
      </contour>
    </TTGlyph>
    <TTGlyph name="Delta" xMin="25" yMin="0" xMax="547" yMax="644">
      <contour>
        <pt x="515" y="0" on="1"/>
        <pt x="57" y="0" on="1"/>
        <pt x="43" y="0" on="0"/>
        <pt x="25" y="17" on="0"/>
        <pt x="25" y="30" on="1"/>
        <pt x="25" y="37" on="0"/>
        <pt x="28" y="46" on="1"/>
        <pt x="251" y="618" on="1"/>
        <pt x="260" y="644" on="0"/>
        <pt x="312" y="644" on="0"/>
        <pt x="321" y="618" on="1"/>
        <pt x="544" y="46" on="1"/>
        <pt x="547" y="37" on="0"/>
        <pt x="547" y="30" on="1"/>
        <pt x="547" y="17" on="0"/>
        <pt x="529" y="0" on="0"/>
      </contour>
      <contour>
        <pt x="286" y="545" on="1"/>
        <pt x="100" y="63" on="1"/>
        <pt x="472" y="63" on="1"/>
      </contour>
    </TTGlyph>
    <TTGlyph name="Djecyrillic" xMin="26" yMin="-205" xMax="664" yMax="636">
      <contour>
        <pt x="428" y="636" on="1"/>
        <pt x="468" y="636" on="0"/>
        <pt x="468" y="604" on="1"/>
        <pt x="468" y="574" on="0"/>
        <pt x="428" y="574" on="1"/>
        <pt x="277" y="574" on="1"/>
        <pt x="277" y="415" on="1"/>
        <pt x="340" y="471" on="0"/>
        <pt x="442" y="471" on="1"/>
        <pt x="556" y="471" on="0"/>
        <pt x="664" y="397" on="0"/>
        <pt x="664" y="290" on="1"/>
        <pt x="664" y="-71" on="1"/>
        <pt x="664" y="-155" on="0"/>
        <pt x="607" y="-205" on="0"/>
        <pt x="552" y="-205" on="1"/>
        <pt x="509" y="-205" on="0"/>
        <pt x="509" y="-143" on="0"/>
        <pt x="552" y="-143" on="1"/>
        <pt x="581" y="-143" on="0"/>
        <pt x="602" y="-119" on="0"/>
        <pt x="602" y="-88" on="1"/>
        <pt x="602" y="288" on="1"/>
        <pt x="602" y="366" on="0"/>
        <pt x="535" y="409" on="0"/>
        <pt x="442" y="409" on="1"/>
        <pt x="362" y="409" on="0"/>
        <pt x="277" y="321" on="0"/>
        <pt x="277" y="236" on="1"/>
        <pt x="277" y="33" on="1"/>
        <pt x="277" y="-7" on="0"/>
        <pt x="244" y="-7" on="1"/>
        <pt x="213" y="-7" on="0"/>
        <pt x="213" y="31" on="1"/>
        <pt x="213" y="574" on="1"/>
        <pt x="64" y="574" on="1"/>
        <pt x="26" y="574" on="0"/>
        <pt x="26" y="636" on="0"/>
        <pt x="64" y="636" on="1"/>
      </contour>
    </TTGlyph>
    <TTGlyph name="Dzecyrillic" xMin="61" yMin="-8" xMax="567" yMax="644">
      <contour>
        <pt x="123" y="478" on="1"/>
        <pt x="123" y="441" on="0"/>
        <pt x="156" y="388" on="0"/>
        <pt x="179" y="382" on="1"/>
        <pt x="435" y="332" on="1"/>
        <pt x="506" y="318" on="0"/>
        <pt x="567" y="222" on="0"/>
        <pt x="567" y="158" on="1"/>
        <pt x="567" y="127" on="0"/>
        <pt x="550" y="72" on="0"/>
        <pt x="511" y="21" on="0"/>
        <pt x="438" y="-8" on="0"/>
        <pt x="388" y="-8" on="1"/>
        <pt x="298" y="-8" on="1"/>
        <pt x="174" y="-8" on="0"/>
        <pt x="61" y="66" on="0"/>
        <pt x="61" y="177" on="1"/>
        <pt x="61" y="215" on="0"/>
        <pt x="94" y="215" on="1"/>
        <pt x="108" y="215" on="0"/>
        <pt x="124" y="194" on="0"/>
        <pt x="124" y="177" on="1"/>
        <pt x="124" y="97" on="0"/>
        <pt x="193" y="54" on="0"/>
        <pt x="298" y="54" on="1"/>
        <pt x="408" y="54" on="1"/>
        <pt x="444" y="54" on="0"/>
        <pt x="491" y="93" on="0"/>
        <pt x="505" y="137" on="0"/>
        <pt x="505" y="160" on="1"/>
        <pt x="505" y="207" on="0"/>
        <pt x="468" y="264" on="0"/>
        <pt x="449" y="268" on="1"/>
        <pt x="195" y="320" on="1"/>
        <pt x="123" y="335" on="0"/>
        <pt x="61" y="411" on="0"/>
        <pt x="61" y="480" on="1"/>
        <pt x="61" y="548" on="0"/>
        <pt x="150" y="644" on="0"/>
        <pt x="253" y="644" on="1"/>
        <pt x="329" y="644" on="1"/>
        <pt x="391" y="644" on="0"/>
        <pt x="470" y="631" on="0"/>
        <pt x="537" y="593" on="0"/>
        <pt x="567" y="519" on="0"/>
        <pt x="567" y="461" on="1"/>
        <pt x="567" y="423" on="0"/>
        <pt x="535" y="423" on="1"/>
        <pt x="521" y="423" on="0"/>
        <pt x="504" y="444" on="0"/>
        <pt x="504" y="461" on="1"/>
        <pt x="504" y="503" on="0"/>
        <pt x="489" y="551" on="0"/>
        <pt x="442" y="576" on="0"/>
        <pt x="385" y="582" on="0"/>
        <pt x="329" y="582" on="1"/>
        <pt x="227" y="582" on="1"/>
        <pt x="171" y="582" on="0"/>
        <pt x="123" y="516" on="0"/>
      </contour>
    </TTGlyph>
    <TTGlyph name="Dzhecyrillic" xMin="85" yMin="-92" xMax="559" yMax="621">
      <contour>
        <pt x="289" y="-52" on="1"/>
        <pt x="289" y="0" on="1"/>
        <pt x="85" y="0" on="1"/>
        <pt x="85" y="581" on="1"/>
        <pt x="85" y="621" on="0"/>
        <pt x="115" y="621" on="1"/>
        <pt x="147" y="621" on="0"/>
        <pt x="147" y="581" on="1"/>
        <pt x="147" y="62" on="1"/>
        <pt x="497" y="62" on="1"/>
        <pt x="497" y="581" on="1"/>
        <pt x="497" y="621" on="0"/>
        <pt x="559" y="621" on="0"/>
        <pt x="559" y="581" on="1"/>
        <pt x="559" y="0" on="1"/>
        <pt x="355" y="0" on="1"/>
        <pt x="355" y="-52" on="1"/>
        <pt x="355" y="-92" on="0"/>
        <pt x="289" y="-92" on="0"/>
      </contour>
    </TTGlyph>
    <TTGlyph name="E" xMin="84" yMin="0" xMax="568" yMax="636">
      <contour>
        <pt x="146" y="327" on="1"/>
        <pt x="146" y="62" on="1"/>
        <pt x="529" y="62" on="1"/>
        <pt x="568" y="62" on="0"/>
        <pt x="568" y="29" on="1"/>
        <pt x="568" y="0" on="0"/>
        <pt x="529" y="0" on="1"/>
        <pt x="113" y="0" on="1"/>
        <pt x="84" y="0" on="0"/>
        <pt x="84" y="40" on="1"/>
        <pt x="84" y="596" on="1"/>
        <pt x="84" y="636" on="0"/>
        <pt x="113" y="636" on="1"/>
        <pt x="529" y="636" on="1"/>
        <pt x="568" y="636" on="0"/>
        <pt x="568" y="603" on="1"/>
        <pt x="568" y="574" on="0"/>
        <pt x="529" y="574" on="1"/>
        <pt x="146" y="574" on="1"/>
        <pt x="146" y="389" on="1"/>
        <pt x="408" y="389" on="1"/>
        <pt x="451" y="389" on="0"/>
        <pt x="451" y="356" on="1"/>
        <pt x="451" y="327" on="0"/>
        <pt x="408" y="327" on="1"/>
      </contour>
    </TTGlyph>
    <TTGlyph name="E.smallcap" xMin="85" yMin="0" xMax="569" yMax="552">
      <contour>
        <pt x="147" y="263" on="1"/>
        <pt x="147" y="62" on="1"/>
        <pt x="530" y="62" on="1"/>
        <pt x="569" y="62" on="0"/>
        <pt x="569" y="29" on="1"/>
        <pt x="569" y="0" on="0"/>
        <pt x="530" y="0" on="1"/>
        <pt x="114" y="0" on="1"/>
        <pt x="85" y="0" on="0"/>
        <pt x="85" y="40" on="1"/>
        <pt x="85" y="512" on="1"/>
        <pt x="85" y="552" on="0"/>
        <pt x="114" y="552" on="1"/>
        <pt x="530" y="552" on="1"/>
        <pt x="569" y="552" on="0"/>
        <pt x="569" y="519" on="1"/>
        <pt x="569" y="490" on="0"/>
        <pt x="530" y="490" on="1"/>
        <pt x="147" y="490" on="1"/>
        <pt x="147" y="325" on="1"/>
        <pt x="409" y="325" on="1"/>
        <pt x="452" y="325" on="0"/>
        <pt x="452" y="292" on="1"/>
        <pt x="452" y="263" on="0"/>
        <pt x="409" y="263" on="1"/>
      </contour>
    </TTGlyph>
    <TTGlyph name="Eacute" xMin="84" yMin="0" xMax="568" yMax="819">
      <component glyphName="acutecomb" x="640" y="178" flags="0x1004"/>
      <component glyphName="E" x="0" y="0" flags="0x1204"/>
    </TTGlyph>
    <TTGlyph name="Ecaron" xMin="84" yMin="0" xMax="568" yMax="819">
      <contour>
        <pt x="351" y="665" on="1"/>
        <pt x="291" y="665" on="1"/>
        <pt x="185" y="776" on="1"/>
        <pt x="177" y="784" on="0"/>
        <pt x="177" y="804" on="0"/>
        <pt x="191" y="819" on="0"/>
        <pt x="205" y="819" on="1"/>
        <pt x="218" y="819" on="0"/>
        <pt x="240" y="801" on="1"/>
        <pt x="321" y="734" on="1"/>
        <pt x="402" y="801" on="1"/>
        <pt x="424" y="819" on="0"/>
        <pt x="437" y="819" on="1"/>
        <pt x="451" y="819" on="0"/>
        <pt x="465" y="804" on="0"/>
        <pt x="465" y="784" on="0"/>
        <pt x="457" y="776" on="1"/>
      </contour>
      <contour>
        <pt x="146" y="327" on="1"/>
        <pt x="146" y="62" on="1"/>
        <pt x="529" y="62" on="1"/>
        <pt x="568" y="62" on="0"/>
        <pt x="568" y="29" on="1"/>
        <pt x="568" y="0" on="0"/>
        <pt x="529" y="0" on="1"/>
        <pt x="113" y="0" on="1"/>
        <pt x="84" y="0" on="0"/>
        <pt x="84" y="40" on="1"/>
        <pt x="84" y="596" on="1"/>
        <pt x="84" y="636" on="0"/>
        <pt x="113" y="636" on="1"/>
        <pt x="529" y="636" on="1"/>
        <pt x="568" y="636" on="0"/>
        <pt x="568" y="603" on="1"/>
        <pt x="568" y="574" on="0"/>
        <pt x="529" y="574" on="1"/>
        <pt x="146" y="574" on="1"/>
        <pt x="146" y="389" on="1"/>
        <pt x="408" y="389" on="1"/>
        <pt x="451" y="389" on="0"/>
        <pt x="451" y="356" on="1"/>
        <pt x="451" y="327" on="0"/>
        <pt x="408" y="327" on="1"/>
      </contour>
    </TTGlyph>
    <TTGlyph name="Ecircumflex" xMin="84" yMin="0" xMax="568" yMax="819">
      <component glyphName="uni0302" x="623" y="141" flags="0x1004"/>
      <component glyphName="E" x="0" y="0" flags="0x1204"/>
    </TTGlyph>
    <TTGlyph name="Edieresis" xMin="84" yMin="0" xMax="568" yMax="789">
      <component glyphName="uni0308" x="630" y="197" flags="0x1004"/>
      <component glyphName="E" x="0" y="0" flags="0x1204"/>
    </TTGlyph>
    <TTGlyph name="Edotaccent" xMin="84" yMin="0" xMax="568" yMax="798">
      <contour>
        <pt x="377" y="771" on="0"/>
        <pt x="377" y="733" on="0"/>
        <pt x="340" y="706" on="0"/>
        <pt x="321" y="706" on="1"/>
        <pt x="301" y="706" on="0"/>
        <pt x="265" y="732" on="0"/>
        <pt x="265" y="752" on="1"/>
        <pt x="265" y="771" on="0"/>
        <pt x="302" y="798" on="0"/>
        <pt x="321" y="798" on="1"/>
        <pt x="339" y="798" on="0"/>
      </contour>
      <contour>
        <pt x="146" y="327" on="1"/>
        <pt x="146" y="62" on="1"/>
        <pt x="529" y="62" on="1"/>
        <pt x="568" y="62" on="0"/>
        <pt x="568" y="29" on="1"/>
        <pt x="568" y="0" on="0"/>
        <pt x="529" y="0" on="1"/>
        <pt x="113" y="0" on="1"/>
        <pt x="84" y="0" on="0"/>
        <pt x="84" y="40" on="1"/>
        <pt x="84" y="596" on="1"/>
        <pt x="84" y="636" on="0"/>
        <pt x="113" y="636" on="1"/>
        <pt x="529" y="636" on="1"/>
        <pt x="568" y="636" on="0"/>
        <pt x="568" y="603" on="1"/>
        <pt x="568" y="574" on="0"/>
        <pt x="529" y="574" on="1"/>
        <pt x="146" y="574" on="1"/>
        <pt x="146" y="389" on="1"/>
        <pt x="408" y="389" on="1"/>
        <pt x="451" y="389" on="0"/>
        <pt x="451" y="356" on="1"/>
        <pt x="451" y="327" on="0"/>
        <pt x="408" y="327" on="1"/>
      </contour>
    </TTGlyph>
    <TTGlyph name="Efcyrillic" xMin="42" yMin="-7" xMax="526" yMax="643">
      <contour>
        <pt x="319" y="29" on="1"/>
        <pt x="319" y="-7" on="0"/>
        <pt x="285" y="-7" on="1"/>
        <pt x="272" y="-7" on="0"/>
        <pt x="253" y="10" on="0"/>
        <pt x="253" y="29" on="1"/>
        <pt x="253" y="75" on="1"/>
        <pt x="157" y="84" on="0"/>
        <pt x="42" y="208" on="0"/>
        <pt x="42" y="312" on="1"/>
        <pt x="42" y="324" on="1"/>
        <pt x="42" y="428" on="0"/>
        <pt x="157" y="552" on="0"/>
        <pt x="253" y="561" on="1"/>
        <pt x="253" y="606" on="1"/>
        <pt x="253" y="643" on="0"/>
        <pt x="319" y="643" on="0"/>
        <pt x="319" y="606" on="1"/>
        <pt x="319" y="561" on="1"/>
        <pt x="413" y="550" on="0"/>
        <pt x="526" y="426" on="0"/>
        <pt x="526" y="324" on="1"/>
        <pt x="526" y="312" on="1"/>
        <pt x="526" y="210" on="0"/>
        <pt x="413" y="86" on="0"/>
        <pt x="319" y="75" on="1"/>
      </contour>
      <contour>
        <pt x="464" y="324" on="1"/>
        <pt x="464" y="401" on="0"/>
        <pt x="389" y="496" on="0"/>
        <pt x="319" y="505" on="1"/>
        <pt x="319" y="131" on="1"/>
        <pt x="389" y="139" on="0"/>
        <pt x="464" y="234" on="0"/>
        <pt x="464" y="312" on="1"/>
      </contour>
      <contour>
        <pt x="104" y="312" on="1"/>
        <pt x="104" y="234" on="0"/>
        <pt x="179" y="139" on="0"/>
        <pt x="253" y="130" on="1"/>
        <pt x="253" y="506" on="1"/>
        <pt x="181" y="498" on="0"/>
        <pt x="104" y="403" on="0"/>
        <pt x="104" y="324" on="1"/>
      </contour>
    </TTGlyph>
    <TTGlyph name="Egrave" xMin="84" yMin="0" xMax="568" yMax="819">
      <component glyphName="gravecomb" x="589" y="178" flags="0x1004"/>
      <component glyphName="E" x="0" y="0" flags="0x1204"/>
    </TTGlyph>
    <TTGlyph name="Elcyrillic" xMin="22" yMin="-7" xMax="510" yMax="636">
      <contour>
        <pt x="510" y="32" on="1"/>
        <pt x="510" y="-7" on="0"/>
        <pt x="478" y="-7" on="1"/>
        <pt x="448" y="-7" on="0"/>
        <pt x="448" y="32" on="1"/>
        <pt x="448" y="574" on="1"/>
        <pt x="245" y="574" on="1"/>
        <pt x="208" y="574" on="0"/>
        <pt x="182" y="550" on="0"/>
        <pt x="182" y="521" on="1"/>
        <pt x="182" y="130" on="1"/>
        <pt x="182" y="51" on="0"/>
        <pt x="120" y="0" on="0"/>
        <pt x="63" y="0" on="1"/>
        <pt x="22" y="0" on="0"/>
        <pt x="22" y="32" on="1"/>
        <pt x="22" y="62" on="0"/>
        <pt x="63" y="62" on="1"/>
        <pt x="92" y="62" on="0"/>
        <pt x="113" y="84" on="0"/>
        <pt x="113" y="114" on="1"/>
        <pt x="113" y="506" on="1"/>
        <pt x="113" y="578" on="0"/>
        <pt x="164" y="636" on="0"/>
        <pt x="238" y="636" on="1"/>
        <pt x="510" y="636" on="1"/>
      </contour>
    </TTGlyph>
    <TTGlyph name="Emacron" xMin="84" yMin="0" xMax="568" yMax="769">
      <contour>
        <pt x="197" y="769" on="1"/>
        <pt x="442" y="769" on="1"/>
        <pt x="481" y="769" on="0"/>
        <pt x="481" y="736" on="1"/>
        <pt x="481" y="722" on="0"/>
        <pt x="458" y="706" on="0"/>
        <pt x="442" y="706" on="1"/>
        <pt x="197" y="706" on="1"/>
        <pt x="161" y="706" on="0"/>
        <pt x="161" y="738" on="1"/>
        <pt x="161" y="750" on="0"/>
        <pt x="178" y="769" on="0"/>
      </contour>
      <contour>
        <pt x="146" y="327" on="1"/>
        <pt x="146" y="62" on="1"/>
        <pt x="529" y="62" on="1"/>
        <pt x="568" y="62" on="0"/>
        <pt x="568" y="29" on="1"/>
        <pt x="568" y="0" on="0"/>
        <pt x="529" y="0" on="1"/>
        <pt x="113" y="0" on="1"/>
        <pt x="84" y="0" on="0"/>
        <pt x="84" y="40" on="1"/>
        <pt x="84" y="596" on="1"/>
        <pt x="84" y="636" on="0"/>
        <pt x="113" y="636" on="1"/>
        <pt x="529" y="636" on="1"/>
        <pt x="568" y="636" on="0"/>
        <pt x="568" y="603" on="1"/>
        <pt x="568" y="574" on="0"/>
        <pt x="529" y="574" on="1"/>
        <pt x="146" y="574" on="1"/>
        <pt x="146" y="389" on="1"/>
        <pt x="408" y="389" on="1"/>
        <pt x="451" y="389" on="0"/>
        <pt x="451" y="356" on="1"/>
        <pt x="451" y="327" on="0"/>
        <pt x="408" y="327" on="1"/>
      </contour>
    </TTGlyph>
    <TTGlyph name="Emcyrillic" xMin="84" yMin="-7" xMax="589" yMax="643">
      <contour>
        <pt x="336" y="279" on="1"/>
        <pt x="324" y="279" on="0"/>
        <pt x="314" y="289" on="1"/>
        <pt x="146" y="534" on="1"/>
        <pt x="146" y="33" on="1"/>
        <pt x="146" y="-7" on="0"/>
        <pt x="84" y="-7" on="0"/>
        <pt x="84" y="31" on="1"/>
        <pt x="84" y="604" on="1"/>
        <pt x="84" y="643" on="0"/>
        <pt x="113" y="643" on="1"/>
        <pt x="133" y="643" on="0"/>
        <pt x="147" y="622" on="1"/>
        <pt x="336" y="350" on="1"/>
        <pt x="526" y="622" on="1"/>
        <pt x="541" y="643" on="0"/>
        <pt x="559" y="643" on="1"/>
        <pt x="589" y="643" on="0"/>
        <pt x="589" y="604" on="1"/>
        <pt x="589" y="31" on="1"/>
        <pt x="589" y="-7" on="0"/>
        <pt x="557" y="-7" on="1"/>
        <pt x="527" y="-7" on="0"/>
        <pt x="527" y="33" on="1"/>
        <pt x="527" y="534" on="1"/>
        <pt x="359" y="289" on="1"/>
        <pt x="351" y="279" on="0"/>
      </contour>
    </TTGlyph>
    <TTGlyph name="Encyrillic" xMin="84" yMin="-7" xMax="568" yMax="643">
      <contour>
        <pt x="146" y="31" on="1"/>
        <pt x="146" y="-7" on="0"/>
        <pt x="84" y="-7" on="0"/>
        <pt x="84" y="31" on="1"/>
        <pt x="84" y="604" on="1"/>
        <pt x="84" y="643" on="0"/>
        <pt x="113" y="643" on="1"/>
        <pt x="146" y="643" on="0"/>
        <pt x="146" y="604" on="1"/>
        <pt x="146" y="374" on="1"/>
        <pt x="506" y="374" on="1"/>
        <pt x="506" y="604" on="1"/>
        <pt x="506" y="643" on="0"/>
        <pt x="536" y="643" on="1"/>
        <pt x="568" y="643" on="0"/>
        <pt x="568" y="604" on="1"/>
        <pt x="568" y="31" on="1"/>
        <pt x="568" y="-7" on="0"/>
        <pt x="538" y="-7" on="1"/>
        <pt x="506" y="-7" on="0"/>
        <pt x="506" y="31" on="1"/>
        <pt x="506" y="312" on="1"/>
        <pt x="146" y="312" on="1"/>
      </contour>
    </TTGlyph>
    <TTGlyph name="Eng" xMin="84" yMin="-175" xMax="568" yMax="643">
      <contour>
        <pt x="506" y="107" on="1"/>
        <pt x="506" y="602" on="1"/>
        <pt x="506" y="643" on="0"/>
        <pt x="536" y="643" on="1"/>
        <pt x="568" y="643" on="0"/>
        <pt x="568" y="604" on="1"/>
        <pt x="568" y="0" on="1"/>
        <pt x="568" y="-55" on="0"/>
        <pt x="538" y="-127" on="0"/>
        <pt x="476" y="-163" on="0"/>
        <pt x="404" y="-175" on="0"/>
        <pt x="350" y="-175" on="1"/>
        <pt x="309" y="-175" on="0"/>
        <pt x="309" y="-143" on="1"/>
        <pt x="309" y="-113" on="0"/>
        <pt x="350" y="-113" on="1"/>
        <pt x="441" y="-113" on="0"/>
        <pt x="506" y="-73" on="0"/>
        <pt x="506" y="0" on="1"/>
        <pt x="506" y="12" on="1"/>
        <pt x="146" y="530" on="1"/>
        <pt x="146" y="29" on="1"/>
        <pt x="146" y="-7" on="0"/>
        <pt x="84" y="-7" on="0"/>
        <pt x="84" y="31" on="1"/>
        <pt x="84" y="604" on="1"/>
        <pt x="84" y="643" on="0"/>
        <pt x="113" y="643" on="1"/>
        <pt x="133" y="643" on="0"/>
        <pt x="147" y="622" on="1"/>
      </contour>
    </TTGlyph>
    <TTGlyph name="Eogonek" xMin="84" yMin="-205" xMax="568" yMax="641">
      <contour>
        <pt x="146" y="327" on="1"/>
        <pt x="146" y="62" on="1"/>
        <pt x="529" y="62" on="1"/>
        <pt x="568" y="62" on="0"/>
        <pt x="568" y="29" on="1"/>
        <pt x="568" y="0" on="0"/>
        <pt x="529" y="0" on="1"/>
        <pt x="367" y="0" on="1"/>
        <pt x="335" y="-19" on="0"/>
        <pt x="298" y="-83" on="0"/>
        <pt x="298" y="-96" on="1"/>
        <pt x="298" y="-145" on="0"/>
        <pt x="335" y="-145" on="1"/>
        <pt x="350" y="-145" on="0"/>
        <pt x="394" y="-128" on="0"/>
        <pt x="401" y="-128" on="1"/>
        <pt x="421" y="-128" on="0"/>
        <pt x="421" y="-150" on="1"/>
        <pt x="421" y="-179" on="0"/>
        <pt x="364" y="-205" on="0"/>
        <pt x="337" y="-205" on="1"/>
        <pt x="294" y="-205" on="0"/>
        <pt x="236" y="-145" on="0"/>
        <pt x="236" y="-96" on="1"/>
        <pt x="236" y="-59" on="0"/>
        <pt x="282" y="0" on="1"/>
        <pt x="113" y="0" on="1"/>
        <pt x="84" y="0" on="0"/>
        <pt x="84" y="40" on="1"/>
        <pt x="84" y="601" on="1"/>
        <pt x="84" y="641" on="0"/>
        <pt x="113" y="641" on="1"/>
        <pt x="529" y="641" on="1"/>
        <pt x="568" y="641" on="0"/>
        <pt x="568" y="608" on="1"/>
        <pt x="568" y="579" on="0"/>
        <pt x="529" y="579" on="1"/>
        <pt x="146" y="579" on="1"/>
        <pt x="146" y="389" on="1"/>
        <pt x="408" y="389" on="1"/>
        <pt x="451" y="389" on="0"/>
        <pt x="451" y="356" on="1"/>
        <pt x="451" y="327" on="0"/>
        <pt x="408" y="327" on="1"/>
      </contour>
    </TTGlyph>
    <TTGlyph name="Epsilon" xMin="84" yMin="0" xMax="568" yMax="636">
      <contour>
        <pt x="146" y="327" on="1"/>
        <pt x="146" y="62" on="1"/>
        <pt x="529" y="62" on="1"/>
        <pt x="568" y="62" on="0"/>
        <pt x="568" y="29" on="1"/>
        <pt x="568" y="0" on="0"/>
        <pt x="529" y="0" on="1"/>
        <pt x="113" y="0" on="1"/>
        <pt x="84" y="0" on="0"/>
        <pt x="84" y="40" on="1"/>
        <pt x="84" y="596" on="1"/>
        <pt x="84" y="636" on="0"/>
        <pt x="113" y="636" on="1"/>
        <pt x="529" y="636" on="1"/>
        <pt x="568" y="636" on="0"/>
        <pt x="568" y="603" on="1"/>
        <pt x="568" y="574" on="0"/>
        <pt x="529" y="574" on="1"/>
        <pt x="146" y="574" on="1"/>
        <pt x="146" y="389" on="1"/>
        <pt x="408" y="389" on="1"/>
        <pt x="451" y="389" on="0"/>
        <pt x="451" y="356" on="1"/>
        <pt x="451" y="327" on="0"/>
        <pt x="408" y="327" on="1"/>
      </contour>
    </TTGlyph>
    <TTGlyph name="Epsilontonos" xMin="10" yMin="0" xMax="607" yMax="793">
      <contour>
        <pt x="96" y="793" on="1"/>
        <pt x="109" y="793" on="0"/>
        <pt x="125" y="774" on="0"/>
        <pt x="125" y="760" on="1"/>
        <pt x="125" y="750" on="0"/>
        <pt x="122" y="741" on="1"/>
        <pt x="73" y="606" on="1"/>
        <pt x="64" y="579" on="0"/>
        <pt x="41" y="579" on="1"/>
        <pt x="28" y="579" on="0"/>
        <pt x="10" y="595" on="0"/>
        <pt x="10" y="609" on="1"/>
        <pt x="10" y="618" on="0"/>
        <pt x="14" y="627" on="1"/>
        <pt x="63" y="763" on="1"/>
        <pt x="74" y="793" on="0"/>
      </contour>
      <contour>
        <pt x="185" y="327" on="1"/>
        <pt x="185" y="62" on="1"/>
        <pt x="568" y="62" on="1"/>
        <pt x="607" y="62" on="0"/>
        <pt x="607" y="29" on="1"/>
        <pt x="607" y="0" on="0"/>
        <pt x="568" y="0" on="1"/>
        <pt x="152" y="0" on="1"/>
        <pt x="123" y="0" on="0"/>
        <pt x="123" y="40" on="1"/>
        <pt x="123" y="596" on="1"/>
        <pt x="123" y="636" on="0"/>
        <pt x="152" y="636" on="1"/>
        <pt x="568" y="636" on="1"/>
        <pt x="607" y="636" on="0"/>
        <pt x="607" y="603" on="1"/>
        <pt x="607" y="574" on="0"/>
        <pt x="568" y="574" on="1"/>
        <pt x="185" y="574" on="1"/>
        <pt x="185" y="389" on="1"/>
        <pt x="447" y="389" on="1"/>
        <pt x="490" y="389" on="0"/>
        <pt x="490" y="356" on="1"/>
        <pt x="490" y="327" on="0"/>
        <pt x="447" y="327" on="1"/>
      </contour>
    </TTGlyph>
    <TTGlyph name="Ercyrillic" xMin="84" yMin="-7" xMax="526" yMax="636">
      <contour>
        <pt x="146" y="29" on="1"/>
        <pt x="146" y="-7" on="0"/>
        <pt x="114" y="-7" on="1"/>
        <pt x="84" y="-7" on="0"/>
        <pt x="84" y="29" on="1"/>
        <pt x="84" y="596" on="1"/>
        <pt x="84" y="636" on="0"/>
        <pt x="113" y="636" on="1"/>
        <pt x="299" y="636" on="1"/>
        <pt x="413" y="636" on="0"/>
        <pt x="526" y="569" on="0"/>
        <pt x="526" y="479" on="1"/>
        <pt x="526" y="403" on="0"/>
        <pt x="431" y="322" on="0"/>
        <pt x="345" y="322" on="1"/>
        <pt x="146" y="322" on="1"/>
      </contour>
      <contour>
        <pt x="299" y="384" on="1"/>
        <pt x="396" y="384" on="0"/>
        <pt x="464" y="422" on="0"/>
        <pt x="464" y="479" on="1"/>
        <pt x="464" y="538" on="0"/>
        <pt x="392" y="574" on="0"/>
        <pt x="299" y="574" on="1"/>
        <pt x="146" y="574" on="1"/>
        <pt x="146" y="384" on="1"/>
      </contour>
    </TTGlyph>
    <TTGlyph name="Ereversedcyrillic" xMin="54" yMin="0" xMax="538" yMax="636">
      <contour>
        <pt x="159" y="636" on="1"/>
        <pt x="300" y="636" on="1"/>
        <pt x="362" y="636" on="0"/>
        <pt x="443" y="622" on="0"/>
        <pt x="508" y="584" on="0"/>
        <pt x="538" y="513" on="0"/>
        <pt x="538" y="457" on="1"/>
        <pt x="538" y="179" on="1"/>
        <pt x="538" y="123" on="0"/>
        <pt x="508" y="52" on="0"/>
        <pt x="443" y="14" on="0"/>
        <pt x="362" y="0" on="0"/>
        <pt x="300" y="0" on="1"/>
        <pt x="159" y="0" on="1"/>
        <pt x="96" y="0" on="0"/>
        <pt x="54" y="64" on="0"/>
        <pt x="54" y="117" on="1"/>
        <pt x="54" y="157" on="0"/>
        <pt x="116" y="157" on="0"/>
        <pt x="116" y="119" on="1"/>
        <pt x="116" y="86" on="0"/>
        <pt x="137" y="62" on="0"/>
        <pt x="166" y="62" on="1"/>
        <pt x="300" y="62" on="1"/>
        <pt x="404" y="62" on="0"/>
        <pt x="476" y="104" on="0"/>
        <pt x="476" y="181" on="1"/>
        <pt x="476" y="302" on="1"/>
        <pt x="212" y="302" on="1"/>
        <pt x="172" y="302" on="0"/>
        <pt x="172" y="335" on="1"/>
        <pt x="172" y="364" on="0"/>
        <pt x="212" y="364" on="1"/>
        <pt x="476" y="364" on="1"/>
        <pt x="476" y="457" on="1"/>
        <pt x="476" y="533" on="0"/>
        <pt x="405" y="574" on="0"/>
        <pt x="300" y="574" on="1"/>
        <pt x="166" y="574" on="1"/>
        <pt x="137" y="574" on="0"/>
        <pt x="116" y="549" on="0"/>
        <pt x="116" y="517" on="1"/>
        <pt x="116" y="479" on="0"/>
        <pt x="54" y="479" on="0"/>
        <pt x="54" y="520" on="1"/>
        <pt x="54" y="572" on="0"/>
        <pt x="96" y="636" on="0"/>
      </contour>
    </TTGlyph>
    <TTGlyph name="Escyrillic" xMin="71" yMin="0" xMax="555" yMax="636">
      <contour>
        <pt x="450" y="0" on="1"/>
        <pt x="309" y="0" on="1"/>
        <pt x="184" y="0" on="0"/>
        <pt x="71" y="73" on="0"/>
        <pt x="71" y="182" on="1"/>
        <pt x="71" y="454" on="1"/>
        <pt x="71" y="562" on="0"/>
        <pt x="180" y="636" on="0"/>
        <pt x="297" y="636" on="1"/>
        <pt x="450" y="636" on="1"/>
        <pt x="513" y="636" on="0"/>
        <pt x="555" y="572" on="0"/>
        <pt x="555" y="519" on="1"/>
        <pt x="555" y="479" on="0"/>
        <pt x="493" y="479" on="0"/>
        <pt x="493" y="517" on="1"/>
        <pt x="493" y="550" on="0"/>
        <pt x="472" y="574" on="0"/>
        <pt x="443" y="574" on="1"/>
        <pt x="297" y="574" on="1"/>
        <pt x="201" y="574" on="0"/>
        <pt x="133" y="531" on="0"/>
        <pt x="133" y="453" on="1"/>
        <pt x="133" y="183" on="1"/>
        <pt x="133" y="104" on="0"/>
        <pt x="204" y="62" on="0"/>
        <pt x="309" y="62" on="1"/>
        <pt x="443" y="62" on="1"/>
        <pt x="472" y="62" on="0"/>
        <pt x="493" y="87" on="0"/>
        <pt x="493" y="119" on="1"/>
        <pt x="493" y="157" on="0"/>
        <pt x="555" y="157" on="0"/>
        <pt x="555" y="116" on="1"/>
        <pt x="555" y="64" on="0"/>
        <pt x="513" y="0" on="0"/>
      </contour>
    </TTGlyph>
    <TTGlyph name="Eta" xMin="84" yMin="-7" xMax="568" yMax="643">
      <contour>
        <pt x="146" y="31" on="1"/>
        <pt x="146" y="-7" on="0"/>
        <pt x="84" y="-7" on="0"/>
        <pt x="84" y="31" on="1"/>
        <pt x="84" y="604" on="1"/>
        <pt x="84" y="643" on="0"/>
        <pt x="113" y="643" on="1"/>
        <pt x="146" y="643" on="0"/>
        <pt x="146" y="604" on="1"/>
        <pt x="146" y="374" on="1"/>
        <pt x="506" y="374" on="1"/>
        <pt x="506" y="604" on="1"/>
        <pt x="506" y="643" on="0"/>
        <pt x="536" y="643" on="1"/>
        <pt x="568" y="643" on="0"/>
        <pt x="568" y="604" on="1"/>
        <pt x="568" y="31" on="1"/>
        <pt x="568" y="-7" on="0"/>
        <pt x="538" y="-7" on="1"/>
        <pt x="506" y="-7" on="0"/>
        <pt x="506" y="31" on="1"/>
        <pt x="506" y="312" on="1"/>
        <pt x="146" y="312" on="1"/>
      </contour>
    </TTGlyph>
    <TTGlyph name="Etatonos" xMin="9" yMin="-7" xMax="610" yMax="789">
      <contour>
        <pt x="95" y="789" on="1"/>
        <pt x="108" y="789" on="0"/>
        <pt x="124" y="770" on="0"/>
        <pt x="124" y="756" on="1"/>
        <pt x="124" y="746" on="0"/>
        <pt x="121" y="737" on="1"/>
        <pt x="72" y="602" on="1"/>
        <pt x="63" y="575" on="0"/>
        <pt x="40" y="575" on="1"/>
        <pt x="27" y="575" on="0"/>
        <pt x="9" y="591" on="0"/>
        <pt x="9" y="605" on="1"/>
        <pt x="9" y="614" on="0"/>
        <pt x="13" y="623" on="1"/>
        <pt x="62" y="759" on="1"/>
        <pt x="73" y="789" on="0"/>
      </contour>
      <contour>
        <pt x="188" y="31" on="1"/>
        <pt x="188" y="-7" on="0"/>
        <pt x="126" y="-7" on="0"/>
        <pt x="126" y="31" on="1"/>
        <pt x="126" y="604" on="1"/>
        <pt x="126" y="643" on="0"/>
        <pt x="155" y="643" on="1"/>
        <pt x="188" y="643" on="0"/>
        <pt x="188" y="604" on="1"/>
        <pt x="188" y="374" on="1"/>
        <pt x="548" y="374" on="1"/>
        <pt x="548" y="604" on="1"/>
        <pt x="548" y="643" on="0"/>
        <pt x="578" y="643" on="1"/>
        <pt x="610" y="643" on="0"/>
        <pt x="610" y="604" on="1"/>
        <pt x="610" y="31" on="1"/>
        <pt x="610" y="-7" on="0"/>
        <pt x="580" y="-7" on="1"/>
        <pt x="548" y="-7" on="0"/>
        <pt x="548" y="31" on="1"/>
        <pt x="548" y="312" on="1"/>
        <pt x="188" y="312" on="1"/>
      </contour>
    </TTGlyph>
    <TTGlyph name="Eth" xMin="47" yMin="0" xMax="568" yMax="636">
      <contour>
        <pt x="506" y="183" on="1"/>
        <pt x="506" y="453" on="1"/>
        <pt x="506" y="532" on="0"/>
        <pt x="438" y="574" on="0"/>
        <pt x="343" y="574" on="1"/>
        <pt x="146" y="574" on="1"/>
        <pt x="146" y="356" on="1"/>
        <pt x="240" y="356" on="1"/>
        <pt x="279" y="356" on="0"/>
        <pt x="279" y="324" on="1"/>
        <pt x="279" y="293" on="0"/>
        <pt x="240" y="293" on="1"/>
        <pt x="146" y="293" on="1"/>
        <pt x="146" y="62" on="1"/>
        <pt x="331" y="62" on="1"/>
        <pt x="435" y="62" on="0"/>
        <pt x="506" y="104" on="0"/>
      </contour>
      <contour>
        <pt x="568" y="454" on="1"/>
        <pt x="568" y="182" on="1"/>
        <pt x="568" y="73" on="0"/>
        <pt x="456" y="0" on="0"/>
        <pt x="331" y="0" on="1"/>
        <pt x="113" y="0" on="1"/>
        <pt x="84" y="0" on="0"/>
        <pt x="84" y="40" on="1"/>
        <pt x="84" y="293" on="1"/>
        <pt x="47" y="293" on="0"/>
        <pt x="47" y="326" on="1"/>
        <pt x="47" y="356" on="0"/>
        <pt x="84" y="356" on="1"/>
        <pt x="84" y="596" on="1"/>
        <pt x="84" y="636" on="0"/>
        <pt x="113" y="636" on="1"/>
        <pt x="343" y="636" on="1"/>
        <pt x="459" y="636" on="0"/>
        <pt x="568" y="562" on="0"/>
      </contour>
    </TTGlyph>
    <TTGlyph name="Euro" xMin="44" yMin="-10" xMax="508" yMax="646">
      <contour>
        <pt x="508" y="489" on="0"/>
        <pt x="446" y="489" on="0"/>
        <pt x="446" y="527" on="1"/>
        <pt x="446" y="560" on="0"/>
        <pt x="425" y="584" on="0"/>
        <pt x="396" y="584" on="1"/>
        <pt x="340" y="584" on="1"/>
        <pt x="258" y="584" on="0"/>
        <pt x="169" y="493" on="0"/>
        <pt x="169" y="409" on="1"/>
        <pt x="358" y="409" on="1"/>
        <pt x="397" y="409" on="0"/>
        <pt x="397" y="377" on="1"/>
        <pt x="397" y="363" on="0"/>
        <pt x="375" y="346" on="0"/>
        <pt x="358" y="346" on="1"/>
        <pt x="169" y="346" on="1"/>
        <pt x="169" y="291" on="1"/>
        <pt x="358" y="291" on="1"/>
        <pt x="397" y="291" on="0"/>
        <pt x="397" y="258" on="1"/>
        <pt x="397" y="245" on="0"/>
        <pt x="375" y="228" on="0"/>
        <pt x="358" y="228" on="1"/>
        <pt x="169" y="228" on="1"/>
        <pt x="169" y="132" on="0"/>
        <pt x="267" y="52" on="0"/>
        <pt x="340" y="52" on="1"/>
        <pt x="396" y="52" on="1"/>
        <pt x="425" y="52" on="0"/>
        <pt x="446" y="77" on="0"/>
        <pt x="446" y="109" on="1"/>
        <pt x="446" y="147" on="0"/>
        <pt x="508" y="147" on="0"/>
        <pt x="508" y="106" on="1"/>
        <pt x="508" y="54" on="0"/>
        <pt x="466" y="-10" on="0"/>
        <pt x="403" y="-10" on="1"/>
        <pt x="340" y="-10" on="1"/>
        <pt x="237" y="-10" on="0"/>
        <pt x="107" y="115" on="0"/>
        <pt x="107" y="228" on="1"/>
        <pt x="81" y="228" on="1"/>
        <pt x="44" y="228" on="0"/>
        <pt x="44" y="260" on="1"/>
        <pt x="44" y="291" on="0"/>
        <pt x="81" y="291" on="1"/>
        <pt x="107" y="291" on="1"/>
        <pt x="107" y="346" on="1"/>
        <pt x="81" y="346" on="1"/>
        <pt x="44" y="346" on="0"/>
        <pt x="44" y="379" on="1"/>
        <pt x="44" y="409" on="0"/>
        <pt x="81" y="409" on="1"/>
        <pt x="107" y="409" on="1"/>
        <pt x="107" y="522" on="0"/>
        <pt x="237" y="646" on="0"/>
        <pt x="340" y="646" on="1"/>
        <pt x="403" y="646" on="1"/>
        <pt x="466" y="646" on="0"/>
        <pt x="508" y="582" on="0"/>
        <pt x="508" y="529" on="1"/>
      </contour>
    </TTGlyph>
    <TTGlyph name="F" xMin="84" yMin="-7" xMax="568" yMax="636">
      <contour>
        <pt x="146" y="31" on="1"/>
        <pt x="146" y="-7" on="0"/>
        <pt x="84" y="-7" on="0"/>
        <pt x="84" y="32" on="1"/>
        <pt x="84" y="596" on="1"/>
        <pt x="84" y="636" on="0"/>
        <pt x="113" y="636" on="1"/>
        <pt x="529" y="636" on="1"/>
        <pt x="568" y="636" on="0"/>
        <pt x="568" y="603" on="1"/>
        <pt x="568" y="574" on="0"/>
        <pt x="529" y="574" on="1"/>
        <pt x="146" y="574" on="1"/>
        <pt x="146" y="389" on="1"/>
        <pt x="408" y="389" on="1"/>
        <pt x="451" y="389" on="0"/>
        <pt x="451" y="356" on="1"/>
        <pt x="451" y="327" on="0"/>
        <pt x="408" y="327" on="1"/>
        <pt x="146" y="327" on="1"/>
      </contour>
    </TTGlyph>
    <TTGlyph name="Fitacyrillic" xMin="65" yMin="-9" xMax="549" yMax="645">
      <contour>
        <pt x="413" y="332" on="1"/>
        <pt x="447" y="332" on="0"/>
        <pt x="487" y="363" on="1"/>
        <pt x="487" y="403" on="1"/>
        <pt x="487" y="488" on="0"/>
        <pt x="394" y="583" on="0"/>
        <pt x="220" y="583" on="0"/>
        <pt x="127" y="488" on="0"/>
        <pt x="127" y="403" on="1"/>
        <pt x="127" y="354" on="1"/>
        <pt x="156" y="372" on="0"/>
        <pt x="185" y="372" on="1"/>
        <pt x="224" y="372" on="0"/>
        <pt x="396" y="332" on="0"/>
      </contour>
      <contour>
        <pt x="549" y="229" on="1"/>
        <pt x="549" y="118" on="0"/>
        <pt x="414" y="-9" on="0"/>
        <pt x="307" y="-9" on="1"/>
        <pt x="199" y="-9" on="0"/>
        <pt x="65" y="118" on="0"/>
        <pt x="65" y="229" on="1"/>
        <pt x="65" y="407" on="1"/>
        <pt x="65" y="518" on="0"/>
        <pt x="199" y="645" on="0"/>
        <pt x="307" y="645" on="1"/>
        <pt x="414" y="645" on="0"/>
        <pt x="549" y="518" on="0"/>
        <pt x="549" y="407" on="1"/>
      </contour>
      <contour>
        <pt x="487" y="233" on="1"/>
        <pt x="487" y="289" on="1"/>
        <pt x="455" y="270" on="0"/>
        <pt x="427" y="270" on="1"/>
        <pt x="388" y="270" on="0"/>
        <pt x="215" y="310" on="0"/>
        <pt x="198" y="310" on="1"/>
        <pt x="170" y="310" on="0"/>
        <pt x="127" y="280" on="1"/>
        <pt x="127" y="233" on="1"/>
        <pt x="127" y="147" on="0"/>
        <pt x="219" y="53" on="0"/>
        <pt x="395" y="53" on="0"/>
        <pt x="487" y="147" on="0"/>
      </contour>
    </TTGlyph>
    <TTGlyph name="G" xMin="71" yMin="0" xMax="555" yMax="636">
      <contour>
        <pt x="493" y="241" on="1"/>
        <pt x="364" y="241" on="1"/>
        <pt x="321" y="241" on="0"/>
        <pt x="321" y="271" on="1"/>
        <pt x="321" y="303" on="0"/>
        <pt x="364" y="303" on="1"/>
        <pt x="555" y="303" on="1"/>
        <pt x="555" y="112" on="1"/>
        <pt x="555" y="80" on="0"/>
        <pt x="543" y="36" on="0"/>
        <pt x="494" y="0" on="0"/>
        <pt x="450" y="0" on="1"/>
        <pt x="297" y="0" on="1"/>
        <pt x="180" y="0" on="0"/>
        <pt x="71" y="72" on="0"/>
        <pt x="71" y="179" on="1"/>
        <pt x="71" y="457" on="1"/>
        <pt x="71" y="565" on="0"/>
        <pt x="184" y="636" on="0"/>
        <pt x="309" y="636" on="1"/>
        <pt x="450" y="636" on="1"/>
        <pt x="513" y="636" on="0"/>
        <pt x="555" y="572" on="0"/>
        <pt x="555" y="520" on="1"/>
        <pt x="555" y="479" on="0"/>
        <pt x="493" y="479" on="0"/>
        <pt x="493" y="518" on="1"/>
        <pt x="493" y="550" on="0"/>
        <pt x="472" y="574" on="0"/>
        <pt x="443" y="574" on="1"/>
        <pt x="309" y="574" on="1"/>
        <pt x="205" y="574" on="0"/>
        <pt x="133" y="532" on="0"/>
        <pt x="133" y="455" on="1"/>
        <pt x="133" y="181" on="1"/>
        <pt x="133" y="104" on="0"/>
        <pt x="201" y="62" on="0"/>
        <pt x="297" y="62" on="1"/>
        <pt x="443" y="62" on="1"/>
        <pt x="473" y="62" on="0"/>
        <pt x="493" y="85" on="0"/>
        <pt x="493" y="116" on="1"/>
      </contour>
    </TTGlyph>
    <TTGlyph name="Gamma" xMin="82" yMin="-7" xMax="552" yMax="636">
      <contour>
        <pt x="194" y="574" on="1"/>
        <pt x="165" y="574" on="0"/>
        <pt x="144" y="551" on="0"/>
        <pt x="144" y="521" on="1"/>
        <pt x="144" y="31" on="1"/>
        <pt x="144" y="-7" on="0"/>
        <pt x="112" y="-7" on="1"/>
        <pt x="82" y="-7" on="0"/>
        <pt x="82" y="31" on="1"/>
        <pt x="82" y="506" on="1"/>
        <pt x="82" y="576" on="0"/>
        <pt x="126" y="636" on="0"/>
        <pt x="187" y="636" on="1"/>
        <pt x="512" y="636" on="1"/>
        <pt x="552" y="636" on="0"/>
        <pt x="552" y="574" on="0"/>
        <pt x="512" y="574" on="1"/>
      </contour>
    </TTGlyph>
    <TTGlyph name="Gbreve" xMin="71" yMin="0" xMax="555" yMax="819">
      <contour>
        <pt x="199" y="819" on="1"/>
        <pt x="262" y="819" on="1"/>
        <pt x="262" y="796" on="0"/>
        <pt x="290" y="762" on="0"/>
        <pt x="358" y="762" on="0"/>
        <pt x="386" y="796" on="0"/>
        <pt x="386" y="819" on="1"/>
        <pt x="449" y="819" on="1"/>
        <pt x="449" y="785" on="0"/>
        <pt x="422" y="735" on="0"/>
        <pt x="381" y="710" on="0"/>
        <pt x="342" y="698" on="0"/>
        <pt x="324" y="698" on="1"/>
        <pt x="279" y="698" on="0"/>
        <pt x="199" y="755" on="0"/>
      </contour>
      <contour>
        <pt x="493" y="241" on="1"/>
        <pt x="364" y="241" on="1"/>
        <pt x="321" y="241" on="0"/>
        <pt x="321" y="271" on="1"/>
        <pt x="321" y="303" on="0"/>
        <pt x="364" y="303" on="1"/>
        <pt x="555" y="303" on="1"/>
        <pt x="555" y="112" on="1"/>
        <pt x="555" y="80" on="0"/>
        <pt x="543" y="36" on="0"/>
        <pt x="494" y="0" on="0"/>
        <pt x="450" y="0" on="1"/>
        <pt x="297" y="0" on="1"/>
        <pt x="180" y="0" on="0"/>
        <pt x="71" y="72" on="0"/>
        <pt x="71" y="179" on="1"/>
        <pt x="71" y="457" on="1"/>
        <pt x="71" y="565" on="0"/>
        <pt x="184" y="636" on="0"/>
        <pt x="309" y="636" on="1"/>
        <pt x="450" y="636" on="1"/>
        <pt x="513" y="636" on="0"/>
        <pt x="555" y="572" on="0"/>
        <pt x="555" y="520" on="1"/>
        <pt x="555" y="479" on="0"/>
        <pt x="493" y="479" on="0"/>
        <pt x="493" y="518" on="1"/>
        <pt x="493" y="550" on="0"/>
        <pt x="472" y="574" on="0"/>
        <pt x="443" y="574" on="1"/>
        <pt x="309" y="574" on="1"/>
        <pt x="205" y="574" on="0"/>
        <pt x="133" y="532" on="0"/>
        <pt x="133" y="455" on="1"/>
        <pt x="133" y="181" on="1"/>
        <pt x="133" y="104" on="0"/>
        <pt x="201" y="62" on="0"/>
        <pt x="297" y="62" on="1"/>
        <pt x="443" y="62" on="1"/>
        <pt x="473" y="62" on="0"/>
        <pt x="493" y="85" on="0"/>
        <pt x="493" y="116" on="1"/>
      </contour>
    </TTGlyph>
    <TTGlyph name="Gcircumflex" xMin="71" yMin="0" xMax="555" yMax="819">
      <contour>
        <pt x="493" y="241" on="1"/>
        <pt x="364" y="241" on="1"/>
        <pt x="321" y="241" on="0"/>
        <pt x="321" y="271" on="1"/>
        <pt x="321" y="303" on="0"/>
        <pt x="364" y="303" on="1"/>
        <pt x="555" y="303" on="1"/>
        <pt x="555" y="112" on="1"/>
        <pt x="555" y="80" on="0"/>
        <pt x="543" y="36" on="0"/>
        <pt x="494" y="0" on="0"/>
        <pt x="450" y="0" on="1"/>
        <pt x="297" y="0" on="1"/>
        <pt x="180" y="0" on="0"/>
        <pt x="71" y="72" on="0"/>
        <pt x="71" y="179" on="1"/>
        <pt x="71" y="457" on="1"/>
        <pt x="71" y="565" on="0"/>
        <pt x="184" y="636" on="0"/>
        <pt x="309" y="636" on="1"/>
        <pt x="450" y="636" on="1"/>
        <pt x="513" y="636" on="0"/>
        <pt x="555" y="572" on="0"/>
        <pt x="555" y="520" on="1"/>
        <pt x="555" y="479" on="0"/>
        <pt x="493" y="479" on="0"/>
        <pt x="493" y="518" on="1"/>
        <pt x="493" y="550" on="0"/>
        <pt x="472" y="574" on="0"/>
        <pt x="443" y="574" on="1"/>
        <pt x="309" y="574" on="1"/>
        <pt x="205" y="574" on="0"/>
        <pt x="133" y="532" on="0"/>
        <pt x="133" y="455" on="1"/>
        <pt x="133" y="181" on="1"/>
        <pt x="133" y="104" on="0"/>
        <pt x="201" y="62" on="0"/>
        <pt x="297" y="62" on="1"/>
        <pt x="443" y="62" on="1"/>
        <pt x="473" y="62" on="0"/>
        <pt x="493" y="85" on="0"/>
        <pt x="493" y="116" on="1"/>
      </contour>
      <contour>
        <pt x="171" y="695" on="1"/>
        <pt x="278" y="819" on="1"/>
        <pt x="341" y="819" on="1"/>
        <pt x="450" y="695" on="1"/>
        <pt x="457" y="688" on="0"/>
        <pt x="457" y="674" on="1"/>
        <pt x="457" y="646" on="0"/>
        <pt x="429" y="646" on="1"/>
        <pt x="421" y="646" on="0"/>
        <pt x="411" y="651" on="0"/>
        <pt x="404" y="660" on="1"/>
        <pt x="397" y="668" on="1"/>
        <pt x="310" y="750" on="1"/>
        <pt x="224" y="668" on="1"/>
        <pt x="217" y="660" on="1"/>
        <pt x="210" y="651" on="0"/>
        <pt x="200" y="646" on="0"/>
        <pt x="192" y="646" on="1"/>
        <pt x="164" y="646" on="0"/>
        <pt x="164" y="674" on="1"/>
        <pt x="164" y="688" on="0"/>
      </contour>
    </TTGlyph>
    <TTGlyph name="Gcommaaccent" xMin="71" yMin="-205" xMax="555" yMax="636">
      <contour>
        <pt x="365" y="-95" on="1"/>
        <pt x="325" y="-178" on="1"/>
        <pt x="312" y="-205" on="0"/>
        <pt x="295" y="-205" on="1"/>
        <pt x="268" y="-205" on="0"/>
        <pt x="268" y="-175" on="1"/>
        <pt x="268" y="-170" on="0"/>
        <pt x="271" y="-158" on="1"/>
        <pt x="295" y="-71" on="1"/>
        <pt x="303" y="-44" on="0"/>
        <pt x="325" y="-44" on="1"/>
        <pt x="339" y="-44" on="0"/>
        <pt x="371" y="-58" on="0"/>
        <pt x="371" y="-74" on="1"/>
        <pt x="371" y="-85" on="0"/>
      </contour>
      <contour>
        <pt x="493" y="241" on="1"/>
        <pt x="364" y="241" on="1"/>
        <pt x="321" y="241" on="0"/>
        <pt x="321" y="271" on="1"/>
        <pt x="321" y="303" on="0"/>
        <pt x="364" y="303" on="1"/>
        <pt x="555" y="303" on="1"/>
        <pt x="555" y="112" on="1"/>
        <pt x="555" y="80" on="0"/>
        <pt x="543" y="36" on="0"/>
        <pt x="494" y="0" on="0"/>
        <pt x="450" y="0" on="1"/>
        <pt x="297" y="0" on="1"/>
        <pt x="180" y="0" on="0"/>
        <pt x="71" y="72" on="0"/>
        <pt x="71" y="179" on="1"/>
        <pt x="71" y="457" on="1"/>
        <pt x="71" y="565" on="0"/>
        <pt x="184" y="636" on="0"/>
        <pt x="309" y="636" on="1"/>
        <pt x="450" y="636" on="1"/>
        <pt x="513" y="636" on="0"/>
        <pt x="555" y="572" on="0"/>
        <pt x="555" y="520" on="1"/>
        <pt x="555" y="479" on="0"/>
        <pt x="493" y="479" on="0"/>
        <pt x="493" y="518" on="1"/>
        <pt x="493" y="550" on="0"/>
        <pt x="472" y="574" on="0"/>
        <pt x="443" y="574" on="1"/>
        <pt x="309" y="574" on="1"/>
        <pt x="205" y="574" on="0"/>
        <pt x="133" y="532" on="0"/>
        <pt x="133" y="455" on="1"/>
        <pt x="133" y="181" on="1"/>
        <pt x="133" y="104" on="0"/>
        <pt x="201" y="62" on="0"/>
        <pt x="297" y="62" on="1"/>
        <pt x="443" y="62" on="1"/>
        <pt x="473" y="62" on="0"/>
        <pt x="493" y="85" on="0"/>
        <pt x="493" y="116" on="1"/>
      </contour>
    </TTGlyph>
    <TTGlyph name="Gdotaccent" xMin="71" yMin="0" xMax="555" yMax="788">
      <contour>
        <pt x="376" y="761" on="0"/>
        <pt x="376" y="723" on="0"/>
        <pt x="339" y="696" on="0"/>
        <pt x="320" y="696" on="1"/>
        <pt x="300" y="696" on="0"/>
        <pt x="264" y="722" on="0"/>
        <pt x="264" y="742" on="1"/>
        <pt x="264" y="761" on="0"/>
        <pt x="301" y="788" on="0"/>
        <pt x="320" y="788" on="1"/>
        <pt x="338" y="788" on="0"/>
      </contour>
      <contour>
        <pt x="493" y="241" on="1"/>
        <pt x="364" y="241" on="1"/>
        <pt x="321" y="241" on="0"/>
        <pt x="321" y="271" on="1"/>
        <pt x="321" y="303" on="0"/>
        <pt x="364" y="303" on="1"/>
        <pt x="555" y="303" on="1"/>
        <pt x="555" y="112" on="1"/>
        <pt x="555" y="80" on="0"/>
        <pt x="543" y="36" on="0"/>
        <pt x="494" y="0" on="0"/>
        <pt x="450" y="0" on="1"/>
        <pt x="297" y="0" on="1"/>
        <pt x="180" y="0" on="0"/>
        <pt x="71" y="72" on="0"/>
        <pt x="71" y="179" on="1"/>
        <pt x="71" y="457" on="1"/>
        <pt x="71" y="565" on="0"/>
        <pt x="184" y="636" on="0"/>
        <pt x="309" y="636" on="1"/>
        <pt x="450" y="636" on="1"/>
        <pt x="513" y="636" on="0"/>
        <pt x="555" y="572" on="0"/>
        <pt x="555" y="520" on="1"/>
        <pt x="555" y="479" on="0"/>
        <pt x="493" y="479" on="0"/>
        <pt x="493" y="518" on="1"/>
        <pt x="493" y="550" on="0"/>
        <pt x="472" y="574" on="0"/>
        <pt x="443" y="574" on="1"/>
        <pt x="309" y="574" on="1"/>
        <pt x="205" y="574" on="0"/>
        <pt x="133" y="532" on="0"/>
        <pt x="133" y="455" on="1"/>
        <pt x="133" y="181" on="1"/>
        <pt x="133" y="104" on="0"/>
        <pt x="201" y="62" on="0"/>
        <pt x="297" y="62" on="1"/>
        <pt x="443" y="62" on="1"/>
        <pt x="473" y="62" on="0"/>
        <pt x="493" y="85" on="0"/>
        <pt x="493" y="116" on="1"/>
      </contour>
    </TTGlyph>
    <TTGlyph name="Gecyrillic" xMin="82" yMin="-7" xMax="552" yMax="636">
      <contour>
        <pt x="194" y="574" on="1"/>
        <pt x="165" y="574" on="0"/>
        <pt x="144" y="551" on="0"/>
        <pt x="144" y="521" on="1"/>
        <pt x="144" y="31" on="1"/>
        <pt x="144" y="-7" on="0"/>
        <pt x="112" y="-7" on="1"/>
        <pt x="82" y="-7" on="0"/>
        <pt x="82" y="31" on="1"/>
        <pt x="82" y="506" on="1"/>
        <pt x="82" y="576" on="0"/>
        <pt x="126" y="636" on="0"/>
        <pt x="187" y="636" on="1"/>
        <pt x="512" y="636" on="1"/>
        <pt x="552" y="636" on="0"/>
        <pt x="552" y="574" on="0"/>
        <pt x="512" y="574" on="1"/>
      </contour>
    </TTGlyph>
    <TTGlyph name="Gheupturncyrillic" xMin="82" yMin="-7" xMax="552" yMax="748">
      <contour>
        <pt x="552" y="574" on="1"/>
        <pt x="194" y="574" on="1"/>
        <pt x="165" y="574" on="0"/>
        <pt x="144" y="551" on="0"/>
        <pt x="144" y="521" on="1"/>
        <pt x="144" y="31" on="1"/>
        <pt x="144" y="-7" on="0"/>
        <pt x="112" y="-7" on="1"/>
        <pt x="82" y="-7" on="0"/>
        <pt x="82" y="31" on="1"/>
        <pt x="82" y="506" on="1"/>
        <pt x="82" y="576" on="0"/>
        <pt x="126" y="636" on="0"/>
        <pt x="187" y="636" on="1"/>
        <pt x="490" y="636" on="1"/>
        <pt x="490" y="708" on="1"/>
        <pt x="490" y="748" on="0"/>
        <pt x="522" y="748" on="1"/>
        <pt x="552" y="748" on="0"/>
        <pt x="552" y="708" on="1"/>
      </contour>
    </TTGlyph>
    <TTGlyph name="Gjecyrillic" xMin="82" yMin="-7" xMax="552" yMax="819">
      <contour>
        <pt x="194" y="574" on="1"/>
        <pt x="165" y="574" on="0"/>
        <pt x="144" y="551" on="0"/>
        <pt x="144" y="521" on="1"/>
        <pt x="144" y="31" on="1"/>
        <pt x="144" y="-7" on="0"/>
        <pt x="112" y="-7" on="1"/>
        <pt x="82" y="-7" on="0"/>
        <pt x="82" y="31" on="1"/>
        <pt x="82" y="506" on="1"/>
        <pt x="82" y="576" on="0"/>
        <pt x="126" y="636" on="0"/>
        <pt x="187" y="636" on="1"/>
        <pt x="512" y="636" on="1"/>
        <pt x="552" y="636" on="0"/>
        <pt x="552" y="574" on="0"/>
        <pt x="512" y="574" on="1"/>
      </contour>
      <contour>
        <pt x="362" y="804" on="1"/>
        <pt x="377" y="819" on="0"/>
        <pt x="390" y="819" on="1"/>
        <pt x="402" y="819" on="0"/>
        <pt x="421" y="799" on="0"/>
        <pt x="421" y="789" on="1"/>
        <pt x="421" y="777" on="0"/>
        <pt x="407" y="761" on="1"/>
        <pt x="338" y="693" on="1"/>
        <pt x="324" y="678" on="0"/>
        <pt x="309" y="678" on="1"/>
        <pt x="296" y="678" on="0"/>
        <pt x="279" y="696" on="0"/>
        <pt x="279" y="707" on="1"/>
        <pt x="279" y="720" on="0"/>
        <pt x="292" y="735" on="1"/>
      </contour>
    </TTGlyph>
    <TTGlyph name="H" xMin="84" yMin="-7" xMax="568" yMax="643">
      <contour>
        <pt x="146" y="31" on="1"/>
        <pt x="146" y="-7" on="0"/>
        <pt x="84" y="-7" on="0"/>
        <pt x="84" y="31" on="1"/>
        <pt x="84" y="604" on="1"/>
        <pt x="84" y="643" on="0"/>
        <pt x="113" y="643" on="1"/>
        <pt x="146" y="643" on="0"/>
        <pt x="146" y="604" on="1"/>
        <pt x="146" y="374" on="1"/>
        <pt x="506" y="374" on="1"/>
        <pt x="506" y="604" on="1"/>
        <pt x="506" y="643" on="0"/>
        <pt x="536" y="643" on="1"/>
        <pt x="568" y="643" on="0"/>
        <pt x="568" y="604" on="1"/>
        <pt x="568" y="31" on="1"/>
        <pt x="568" y="-7" on="0"/>
        <pt x="538" y="-7" on="1"/>
        <pt x="506" y="-7" on="0"/>
        <pt x="506" y="31" on="1"/>
        <pt x="506" y="312" on="1"/>
        <pt x="146" y="312" on="1"/>
      </contour>
    </TTGlyph>
    <TTGlyph name="Hardsigncyrillic" xMin="23" yMin="-7" xMax="597" yMax="636">
      <contour>
        <pt x="155" y="574" on="1"/>
        <pt x="64" y="574" on="1"/>
        <pt x="23" y="574" on="0"/>
        <pt x="23" y="607" on="1"/>
        <pt x="23" y="636" on="0"/>
        <pt x="64" y="636" on="1"/>
        <pt x="217" y="636" on="1"/>
        <pt x="217" y="471" on="1"/>
        <pt x="372" y="471" on="1"/>
        <pt x="472" y="471" on="0"/>
        <pt x="597" y="329" on="0"/>
        <pt x="597" y="232" on="1"/>
        <pt x="597" y="134" on="0"/>
        <pt x="472" y="-7" on="0"/>
        <pt x="374" y="-7" on="1"/>
        <pt x="186" y="-7" on="1"/>
        <pt x="155" y="-7" on="0"/>
        <pt x="155" y="32" on="1"/>
      </contour>
      <contour>
        <pt x="372" y="409" on="1"/>
        <pt x="217" y="409" on="1"/>
        <pt x="217" y="55" on="1"/>
        <pt x="374" y="55" on="1"/>
        <pt x="452" y="55" on="0"/>
        <pt x="535" y="160" on="0"/>
        <pt x="535" y="232" on="1"/>
        <pt x="535" y="303" on="0"/>
        <pt x="451" y="409" on="0"/>
      </contour>
    </TTGlyph>
    <TTGlyph name="Hbar" xMin="28" yMin="-7" xMax="628" yMax="643">
      <contour>
        <pt x="54" y="508" on="1"/>
        <pt x="28" y="508" on="0"/>
        <pt x="28" y="530" on="1"/>
        <pt x="28" y="551" on="0"/>
        <pt x="54" y="551" on="1"/>
        <pt x="86" y="551" on="1"/>
        <pt x="86" y="604" on="1"/>
        <pt x="86" y="643" on="0"/>
        <pt x="115" y="643" on="1"/>
        <pt x="148" y="643" on="0"/>
        <pt x="148" y="604" on="1"/>
        <pt x="148" y="551" on="1"/>
        <pt x="508" y="551" on="1"/>
        <pt x="508" y="604" on="1"/>
        <pt x="508" y="643" on="0"/>
        <pt x="538" y="643" on="1"/>
        <pt x="570" y="643" on="0"/>
        <pt x="570" y="604" on="1"/>
        <pt x="570" y="551" on="1"/>
        <pt x="599" y="551" on="1"/>
        <pt x="628" y="551" on="0"/>
        <pt x="628" y="528" on="1"/>
        <pt x="628" y="508" on="0"/>
        <pt x="599" y="508" on="1"/>
        <pt x="570" y="508" on="1"/>
        <pt x="570" y="31" on="1"/>
        <pt x="570" y="-7" on="0"/>
        <pt x="540" y="-7" on="1"/>
        <pt x="508" y="-7" on="0"/>
        <pt x="508" y="31" on="1"/>
        <pt x="508" y="312" on="1"/>
        <pt x="148" y="312" on="1"/>
        <pt x="148" y="31" on="1"/>
        <pt x="148" y="-7" on="0"/>
        <pt x="86" y="-7" on="0"/>
        <pt x="86" y="31" on="1"/>
        <pt x="86" y="508" on="1"/>
      </contour>
      <contour>
        <pt x="508" y="508" on="1"/>
        <pt x="148" y="508" on="1"/>
        <pt x="148" y="374" on="1"/>
        <pt x="508" y="374" on="1"/>
      </contour>
    </TTGlyph>
    <TTGlyph name="Hcircumflex" xMin="84" yMin="-7" xMax="568" yMax="819">
      <contour>
        <pt x="185" y="695" on="1"/>
        <pt x="292" y="819" on="1"/>
        <pt x="355" y="819" on="1"/>
        <pt x="464" y="695" on="1"/>
        <pt x="471" y="688" on="0"/>
        <pt x="471" y="674" on="1"/>
        <pt x="471" y="646" on="0"/>
        <pt x="443" y="646" on="1"/>
        <pt x="435" y="646" on="0"/>
        <pt x="425" y="651" on="0"/>
        <pt x="418" y="660" on="1"/>
        <pt x="411" y="668" on="1"/>
        <pt x="324" y="750" on="1"/>
        <pt x="238" y="668" on="1"/>
        <pt x="231" y="660" on="1"/>
        <pt x="224" y="651" on="0"/>
        <pt x="214" y="646" on="0"/>
        <pt x="206" y="646" on="1"/>
        <pt x="178" y="646" on="0"/>
        <pt x="178" y="674" on="1"/>
        <pt x="178" y="688" on="0"/>
      </contour>
      <contour>
        <pt x="146" y="31" on="1"/>
        <pt x="146" y="-7" on="0"/>
        <pt x="84" y="-7" on="0"/>
        <pt x="84" y="31" on="1"/>
        <pt x="84" y="604" on="1"/>
        <pt x="84" y="643" on="0"/>
        <pt x="113" y="643" on="1"/>
        <pt x="146" y="643" on="0"/>
        <pt x="146" y="604" on="1"/>
        <pt x="146" y="374" on="1"/>
        <pt x="506" y="374" on="1"/>
        <pt x="506" y="604" on="1"/>
        <pt x="506" y="643" on="0"/>
        <pt x="536" y="643" on="1"/>
        <pt x="568" y="643" on="0"/>
        <pt x="568" y="604" on="1"/>
        <pt x="568" y="31" on="1"/>
        <pt x="568" y="-7" on="0"/>
        <pt x="538" y="-7" on="1"/>
        <pt x="506" y="-7" on="0"/>
        <pt x="506" y="31" on="1"/>
        <pt x="506" y="312" on="1"/>
        <pt x="146" y="312" on="1"/>
      </contour>
    </TTGlyph>
    <TTGlyph name="I" xMin="84" yMin="-7" xMax="146" yMax="643">
      <contour>
        <pt x="146" y="29" on="1"/>
        <pt x="146" y="-7" on="0"/>
        <pt x="114" y="-7" on="1"/>
        <pt x="84" y="-7" on="0"/>
        <pt x="84" y="29" on="1"/>
        <pt x="84" y="606" on="1"/>
        <pt x="84" y="643" on="0"/>
        <pt x="146" y="643" on="0"/>
        <pt x="146" y="606" on="1"/>
      </contour>
    </TTGlyph>
    <TTGlyph name="I.smallcap" xMin="85" yMin="-7" xMax="147" yMax="559">
      <contour>
        <pt x="147" y="29" on="1"/>
        <pt x="147" y="-7" on="0"/>
        <pt x="115" y="-7" on="1"/>
        <pt x="85" y="-7" on="0"/>
        <pt x="85" y="29" on="1"/>
        <pt x="85" y="522" on="1"/>
        <pt x="85" y="559" on="0"/>
        <pt x="147" y="559" on="0"/>
        <pt x="147" y="522" on="1"/>
      </contour>
    </TTGlyph>
    <TTGlyph name="IAcyrillic" xMin="10" yMin="-7" xMax="524" yMax="636">
      <contour>
        <pt x="316" y="574" on="1"/>
        <pt x="227" y="574" on="0"/>
        <pt x="151" y="520" on="0"/>
        <pt x="151" y="457" on="1"/>
        <pt x="151" y="393" on="0"/>
        <pt x="229" y="341" on="0"/>
        <pt x="316" y="341" on="1"/>
        <pt x="461" y="341" on="1"/>
        <pt x="461" y="574" on="1"/>
      </contour>
      <contour>
        <pt x="461" y="29" on="1"/>
        <pt x="461" y="284" on="1"/>
        <pt x="318" y="284" on="1"/>
        <pt x="266" y="284" on="0"/>
        <pt x="217" y="245" on="0"/>
        <pt x="206" y="207" on="1"/>
        <pt x="182" y="117" on="1"/>
        <pt x="167" y="61" on="0"/>
        <pt x="96" y="-7" on="0"/>
        <pt x="51" y="-7" on="1"/>
        <pt x="10" y="-7" on="0"/>
        <pt x="10" y="55" on="0"/>
        <pt x="51" y="55" on="1"/>
        <pt x="75" y="55" on="0"/>
        <pt x="111" y="98" on="0"/>
        <pt x="117" y="117" on="1"/>
        <pt x="144" y="216" on="1"/>
        <pt x="158" y="267" on="0"/>
        <pt x="198" y="300" on="1"/>
        <pt x="89" y="338" on="0"/>
        <pt x="89" y="460" on="1"/>
        <pt x="89" y="636" on="0"/>
        <pt x="316" y="636" on="1"/>
        <pt x="495" y="636" on="1"/>
        <pt x="524" y="636" on="0"/>
        <pt x="524" y="596" on="1"/>
        <pt x="524" y="29" on="1"/>
        <pt x="524" y="-7" on="0"/>
        <pt x="494" y="-7" on="1"/>
        <pt x="461" y="-7" on="0"/>
      </contour>
    </TTGlyph>
    <TTGlyph name="IUcyrillic" xMin="84" yMin="-9" xMax="675" yMax="645">
      <contour>
        <pt x="522" y="583" on="0"/>
        <pt x="352" y="583" on="0"/>
        <pt x="255" y="488" on="0"/>
        <pt x="255" y="405" on="1"/>
        <pt x="255" y="231" on="1"/>
        <pt x="255" y="147" on="0"/>
        <pt x="351" y="53" on="0"/>
        <pt x="437" y="53" on="1"/>
        <pt x="522" y="53" on="0"/>
        <pt x="613" y="146" on="0"/>
        <pt x="613" y="231" on="1"/>
        <pt x="613" y="405" on="1"/>
        <pt x="613" y="489" on="0"/>
      </contour>
      <contour>
        <pt x="437" y="-9" on="1"/>
        <pt x="329" y="-9" on="0"/>
        <pt x="192" y="118" on="0"/>
        <pt x="192" y="229" on="1"/>
        <pt x="192" y="292" on="1"/>
        <pt x="146" y="292" on="1"/>
        <pt x="146" y="28" on="1"/>
        <pt x="146" y="-7" on="0"/>
        <pt x="114" y="-7" on="1"/>
        <pt x="84" y="-7" on="0"/>
        <pt x="84" y="29" on="1"/>
        <pt x="84" y="606" on="1"/>
        <pt x="84" y="643" on="0"/>
        <pt x="146" y="643" on="0"/>
        <pt x="146" y="607" on="1"/>
        <pt x="146" y="354" on="1"/>
        <pt x="192" y="354" on="1"/>
        <pt x="192" y="407" on="1"/>
        <pt x="192" y="518" on="0"/>
        <pt x="329" y="645" on="0"/>
        <pt x="437" y="645" on="1"/>
        <pt x="541" y="645" on="0"/>
        <pt x="675" y="517" on="0"/>
        <pt x="675" y="407" on="1"/>
        <pt x="675" y="229" on="1"/>
        <pt x="675" y="119" on="0"/>
        <pt x="541" y="-9" on="0"/>
      </contour>
    </TTGlyph>
    <TTGlyph name="Iacute" xMin="84" yMin="-7" xMax="226" yMax="819">
      <component glyphName="acutecomb" x="464" y="178" flags="0x1004"/>
      <component glyphName="I" x="0" y="0" flags="0x1204"/>
    </TTGlyph>
    <TTGlyph name="Icircumflex" xMin="-30" yMin="-7" xMax="263" yMax="819">
      <component glyphName="uni0302" x="418" y="141" flags="0x1004"/>
      <component glyphName="I" x="0" y="0" flags="0x1204"/>
    </TTGlyph>
    <TTGlyph name="Icyrillic" xMin="84" yMin="-7" xMax="146" yMax="643">
      <contour>
        <pt x="146" y="29" on="1"/>
        <pt x="146" y="-7" on="0"/>
        <pt x="114" y="-7" on="1"/>
        <pt x="84" y="-7" on="0"/>
        <pt x="84" y="29" on="1"/>
        <pt x="84" y="606" on="1"/>
        <pt x="84" y="643" on="0"/>
        <pt x="146" y="643" on="0"/>
        <pt x="146" y="606" on="1"/>
      </contour>
    </TTGlyph>
    <TTGlyph name="Idieresis" xMin="-13" yMin="-7" xMax="245" yMax="789">
      <component glyphName="uni0308" x="424" y="197" flags="0x1004"/>
      <component glyphName="I" x="0" y="0" flags="0x1204"/>
    </TTGlyph>
    <TTGlyph name="Idotaccent" xMin="59" yMin="-7" xMax="171" yMax="788">
      <contour>
        <pt x="171" y="761" on="0"/>
        <pt x="171" y="723" on="0"/>
        <pt x="134" y="696" on="0"/>
        <pt x="115" y="696" on="1"/>
        <pt x="95" y="696" on="0"/>
        <pt x="59" y="722" on="0"/>
        <pt x="59" y="742" on="1"/>
        <pt x="59" y="761" on="0"/>
        <pt x="96" y="788" on="0"/>
        <pt x="115" y="788" on="1"/>
        <pt x="133" y="788" on="0"/>
      </contour>
      <contour>
        <pt x="146" y="29" on="1"/>
        <pt x="146" y="-7" on="0"/>
        <pt x="114" y="-7" on="1"/>
        <pt x="84" y="-7" on="0"/>
        <pt x="84" y="29" on="1"/>
        <pt x="84" y="606" on="1"/>
        <pt x="84" y="643" on="0"/>
        <pt x="146" y="643" on="0"/>
        <pt x="146" y="606" on="1"/>
      </contour>
    </TTGlyph>
    <TTGlyph name="Ie.ukran" xMin="71" yMin="0" xMax="555" yMax="636">
      <contour>
        <pt x="450" y="636" on="1"/>
        <pt x="513" y="636" on="0"/>
        <pt x="555" y="572" on="0"/>
        <pt x="555" y="520" on="1"/>
        <pt x="555" y="479" on="0"/>
        <pt x="493" y="479" on="0"/>
        <pt x="493" y="517" on="1"/>
        <pt x="493" y="549" on="0"/>
        <pt x="472" y="574" on="0"/>
        <pt x="443" y="574" on="1"/>
        <pt x="309" y="574" on="1"/>
        <pt x="204" y="574" on="0"/>
        <pt x="133" y="533" on="0"/>
        <pt x="133" y="457" on="1"/>
        <pt x="133" y="364" on="1"/>
        <pt x="397" y="364" on="1"/>
        <pt x="437" y="364" on="0"/>
        <pt x="437" y="335" on="1"/>
        <pt x="437" y="302" on="0"/>
        <pt x="397" y="302" on="1"/>
        <pt x="133" y="302" on="1"/>
        <pt x="133" y="181" on="1"/>
        <pt x="133" y="104" on="0"/>
        <pt x="205" y="62" on="0"/>
        <pt x="309" y="62" on="1"/>
        <pt x="443" y="62" on="1"/>
        <pt x="472" y="62" on="0"/>
        <pt x="493" y="86" on="0"/>
        <pt x="493" y="119" on="1"/>
        <pt x="493" y="157" on="0"/>
        <pt x="555" y="157" on="0"/>
        <pt x="555" y="117" on="1"/>
        <pt x="555" y="64" on="0"/>
        <pt x="513" y="0" on="0"/>
        <pt x="450" y="0" on="1"/>
        <pt x="309" y="0" on="1"/>
        <pt x="247" y="0" on="0"/>
        <pt x="166" y="14" on="0"/>
        <pt x="101" y="52" on="0"/>
        <pt x="71" y="123" on="0"/>
        <pt x="71" y="179" on="1"/>
        <pt x="71" y="457" on="1"/>
        <pt x="71" y="513" on="0"/>
        <pt x="101" y="584" on="0"/>
        <pt x="166" y="622" on="0"/>
        <pt x="247" y="636" on="0"/>
        <pt x="309" y="636" on="1"/>
      </contour>
    </TTGlyph>
    <TTGlyph name="Iecyrillic" xMin="84" yMin="0" xMax="568" yMax="636">
      <contour>
        <pt x="146" y="327" on="1"/>
        <pt x="146" y="62" on="1"/>
        <pt x="529" y="62" on="1"/>
        <pt x="568" y="62" on="0"/>
        <pt x="568" y="29" on="1"/>
        <pt x="568" y="0" on="0"/>
        <pt x="529" y="0" on="1"/>
        <pt x="113" y="0" on="1"/>
        <pt x="84" y="0" on="0"/>
        <pt x="84" y="40" on="1"/>
        <pt x="84" y="596" on="1"/>
        <pt x="84" y="636" on="0"/>
        <pt x="113" y="636" on="1"/>
        <pt x="529" y="636" on="1"/>
        <pt x="568" y="636" on="0"/>
        <pt x="568" y="603" on="1"/>
        <pt x="568" y="574" on="0"/>
        <pt x="529" y="574" on="1"/>
        <pt x="146" y="574" on="1"/>
        <pt x="146" y="389" on="1"/>
        <pt x="408" y="389" on="1"/>
        <pt x="451" y="389" on="0"/>
        <pt x="451" y="356" on="1"/>
        <pt x="451" y="327" on="0"/>
        <pt x="408" y="327" on="1"/>
      </contour>
    </TTGlyph>
    <TTGlyph name="Igrave" xMin="3" yMin="-7" xMax="146" yMax="819">
      <component glyphName="gravecomb" x="383" y="178" flags="0x1004"/>
      <component glyphName="I" x="0" y="0" flags="0x1204"/>
    </TTGlyph>
    <TTGlyph name="Iicyrillic" xMin="84" yMin="-7" xMax="568" yMax="643">
      <contour>
        <pt x="114" y="-7" on="1"/>
        <pt x="84" y="-7" on="0"/>
        <pt x="84" y="31" on="1"/>
        <pt x="84" y="604" on="1"/>
        <pt x="84" y="643" on="0"/>
        <pt x="116" y="643" on="1"/>
        <pt x="146" y="643" on="0"/>
        <pt x="146" y="602" on="1"/>
        <pt x="146" y="107" on="1"/>
        <pt x="505" y="622" on="1"/>
        <pt x="519" y="643" on="0"/>
        <pt x="539" y="643" on="1"/>
        <pt x="568" y="643" on="0"/>
        <pt x="568" y="604" on="1"/>
        <pt x="568" y="31" on="1"/>
        <pt x="568" y="-7" on="0"/>
        <pt x="506" y="-7" on="0"/>
        <pt x="506" y="29" on="1"/>
        <pt x="506" y="530" on="1"/>
        <pt x="138" y="0" on="1"/>
        <pt x="131" y="-7" on="0"/>
      </contour>
    </TTGlyph>
    <TTGlyph name="Iicyrillic_grave" xMin="84" yMin="-7" xMax="568" yMax="814">
      <contour>
        <pt x="114" y="-7" on="1"/>
        <pt x="84" y="-7" on="0"/>
        <pt x="84" y="31" on="1"/>
        <pt x="84" y="604" on="1"/>
        <pt x="84" y="643" on="0"/>
        <pt x="116" y="643" on="1"/>
        <pt x="146" y="643" on="0"/>
        <pt x="146" y="602" on="1"/>
        <pt x="146" y="107" on="1"/>
        <pt x="505" y="622" on="1"/>
        <pt x="519" y="643" on="0"/>
        <pt x="539" y="643" on="1"/>
        <pt x="568" y="643" on="0"/>
        <pt x="568" y="604" on="1"/>
        <pt x="568" y="31" on="1"/>
        <pt x="568" y="-7" on="0"/>
        <pt x="506" y="-7" on="0"/>
        <pt x="506" y="29" on="1"/>
        <pt x="506" y="530" on="1"/>
        <pt x="138" y="0" on="1"/>
        <pt x="131" y="-7" on="0"/>
      </contour>
      <contour>
        <pt x="274" y="797" on="1"/>
        <pt x="370" y="682" on="1"/>
        <pt x="380" y="670" on="0"/>
        <pt x="380" y="656" on="1"/>
        <pt x="380" y="643" on="0"/>
        <pt x="361" y="626" on="0"/>
        <pt x="350" y="626" on="1"/>
        <pt x="336" y="626" on="0"/>
        <pt x="321" y="643" on="1"/>
        <pt x="225" y="758" on="1"/>
        <pt x="215" y="769" on="0"/>
        <pt x="215" y="797" on="0"/>
        <pt x="234" y="814" on="0"/>
        <pt x="245" y="814" on="1"/>
        <pt x="259" y="814" on="0"/>
      </contour>
    </TTGlyph>
    <TTGlyph name="Iishortcyrillic" xMin="84" yMin="-7" xMax="568" yMax="790">
      <contour>
        <pt x="114" y="-7" on="1"/>
        <pt x="84" y="-7" on="0"/>
        <pt x="84" y="31" on="1"/>
        <pt x="84" y="604" on="1"/>
        <pt x="84" y="643" on="0"/>
        <pt x="116" y="643" on="1"/>
        <pt x="146" y="643" on="0"/>
        <pt x="146" y="602" on="1"/>
        <pt x="146" y="107" on="1"/>
        <pt x="505" y="622" on="1"/>
        <pt x="519" y="643" on="0"/>
        <pt x="539" y="643" on="1"/>
        <pt x="568" y="643" on="0"/>
        <pt x="568" y="604" on="1"/>
        <pt x="568" y="31" on="1"/>
        <pt x="568" y="-7" on="0"/>
        <pt x="506" y="-7" on="0"/>
        <pt x="506" y="29" on="1"/>
        <pt x="506" y="530" on="1"/>
        <pt x="138" y="0" on="1"/>
        <pt x="131" y="-7" on="0"/>
      </contour>
      <contour>
        <pt x="386" y="636" on="1"/>
        <pt x="269" y="636" on="1"/>
        <pt x="213" y="636" on="0"/>
        <pt x="173" y="692" on="0"/>
        <pt x="173" y="758" on="1"/>
        <pt x="173" y="790" on="1"/>
        <pt x="235" y="790" on="1"/>
        <pt x="235" y="742" on="1"/>
        <pt x="235" y="715" on="0"/>
        <pt x="251" y="698" on="0"/>
        <pt x="277" y="698" on="1"/>
        <pt x="379" y="698" on="1"/>
        <pt x="405" y="698" on="0"/>
        <pt x="420" y="714" on="0"/>
        <pt x="420" y="742" on="1"/>
        <pt x="420" y="790" on="1"/>
        <pt x="482" y="790" on="1"/>
        <pt x="482" y="758" on="1"/>
        <pt x="482" y="692" on="0"/>
        <pt x="442" y="636" on="0"/>
      </contour>
    </TTGlyph>
    <TTGlyph name="Imacron" xMin="-45" yMin="-7" xMax="275" yMax="769">
      <contour>
        <pt x="-9" y="769" on="1"/>
        <pt x="236" y="769" on="1"/>
        <pt x="275" y="769" on="0"/>
        <pt x="275" y="736" on="1"/>
        <pt x="275" y="722" on="0"/>
        <pt x="252" y="706" on="0"/>
        <pt x="236" y="706" on="1"/>
        <pt x="-9" y="706" on="1"/>
        <pt x="-45" y="706" on="0"/>
        <pt x="-45" y="738" on="1"/>
        <pt x="-45" y="750" on="0"/>
        <pt x="-28" y="769" on="0"/>
      </contour>
      <contour>
        <pt x="146" y="29" on="1"/>
        <pt x="146" y="-7" on="0"/>
        <pt x="114" y="-7" on="1"/>
        <pt x="84" y="-7" on="0"/>
        <pt x="84" y="29" on="1"/>
        <pt x="84" y="606" on="1"/>
        <pt x="84" y="643" on="0"/>
        <pt x="146" y="643" on="0"/>
        <pt x="146" y="606" on="1"/>
      </contour>
    </TTGlyph>
    <TTGlyph name="Iocyrillic" xMin="84" yMin="0" xMax="568" yMax="789">
      <contour>
        <pt x="146" y="327" on="1"/>
        <pt x="146" y="62" on="1"/>
        <pt x="529" y="62" on="1"/>
        <pt x="568" y="62" on="0"/>
        <pt x="568" y="29" on="1"/>
        <pt x="568" y="0" on="0"/>
        <pt x="529" y="0" on="1"/>
        <pt x="113" y="0" on="1"/>
        <pt x="84" y="0" on="0"/>
        <pt x="84" y="40" on="1"/>
        <pt x="84" y="596" on="1"/>
        <pt x="84" y="636" on="0"/>
        <pt x="113" y="636" on="1"/>
        <pt x="529" y="636" on="1"/>
        <pt x="568" y="636" on="0"/>
        <pt x="568" y="603" on="1"/>
        <pt x="568" y="574" on="0"/>
        <pt x="529" y="574" on="1"/>
        <pt x="146" y="574" on="1"/>
        <pt x="146" y="389" on="1"/>
        <pt x="408" y="389" on="1"/>
        <pt x="451" y="389" on="0"/>
        <pt x="451" y="356" on="1"/>
        <pt x="451" y="327" on="0"/>
        <pt x="408" y="327" on="1"/>
      </contour>
      <contour>
        <pt x="305" y="762" on="0"/>
        <pt x="305" y="724" on="0"/>
        <pt x="268" y="697" on="0"/>
        <pt x="249" y="697" on="1"/>
        <pt x="229" y="697" on="0"/>
        <pt x="193" y="723" on="0"/>
        <pt x="193" y="743" on="1"/>
        <pt x="193" y="762" on="0"/>
        <pt x="230" y="789" on="0"/>
        <pt x="249" y="789" on="1"/>
        <pt x="267" y="789" on="0"/>
      </contour>
      <contour>
        <pt x="451" y="762" on="0"/>
        <pt x="451" y="724" on="0"/>
        <pt x="414" y="697" on="0"/>
        <pt x="395" y="697" on="1"/>
        <pt x="375" y="697" on="0"/>
        <pt x="339" y="723" on="0"/>
        <pt x="339" y="743" on="1"/>
        <pt x="339" y="762" on="0"/>
        <pt x="376" y="789" on="0"/>
        <pt x="395" y="789" on="1"/>
        <pt x="413" y="789" on="0"/>
      </contour>
    </TTGlyph>
    <TTGlyph name="Iogonek" xMin="8" yMin="-205" xMax="193" yMax="643">
      <contour>
        <pt x="88" y="39" on="1"/>
        <pt x="88" y="606" on="1"/>
        <pt x="88" y="643" on="0"/>
        <pt x="150" y="643" on="0"/>
        <pt x="150" y="606" on="1"/>
        <pt x="150" y="29" on="1"/>
        <pt x="150" y="1" on="0"/>
        <pt x="131" y="-5" on="1"/>
        <pt x="103" y="-24" on="0"/>
        <pt x="70" y="-84" on="0"/>
        <pt x="70" y="-96" on="1"/>
        <pt x="70" y="-145" on="0"/>
        <pt x="107" y="-145" on="1"/>
        <pt x="122" y="-145" on="0"/>
        <pt x="166" y="-128" on="0"/>
        <pt x="173" y="-128" on="1"/>
        <pt x="193" y="-128" on="0"/>
        <pt x="193" y="-150" on="1"/>
        <pt x="193" y="-179" on="0"/>
        <pt x="136" y="-205" on="0"/>
        <pt x="109" y="-205" on="1"/>
        <pt x="66" y="-205" on="0"/>
        <pt x="8" y="-145" on="0"/>
        <pt x="8" y="-96" on="1"/>
        <pt x="8" y="-68" on="0"/>
        <pt x="59" y="10" on="0"/>
      </contour>
    </TTGlyph>
    <TTGlyph name="Iota" xMin="84" yMin="-7" xMax="146" yMax="643">
      <contour>
        <pt x="146" y="29" on="1"/>
        <pt x="146" y="-7" on="0"/>
        <pt x="114" y="-7" on="1"/>
        <pt x="84" y="-7" on="0"/>
        <pt x="84" y="29" on="1"/>
        <pt x="84" y="606" on="1"/>
        <pt x="84" y="643" on="0"/>
        <pt x="146" y="643" on="0"/>
        <pt x="146" y="606" on="1"/>
      </contour>
    </TTGlyph>
    <TTGlyph name="Iotadieresis" xMin="-13" yMin="-7" xMax="245" yMax="789">
      <contour>
        <pt x="146" y="29" on="1"/>
        <pt x="146" y="-7" on="0"/>
        <pt x="114" y="-7" on="1"/>
        <pt x="84" y="-7" on="0"/>
        <pt x="84" y="29" on="1"/>
        <pt x="84" y="606" on="1"/>
        <pt x="84" y="643" on="0"/>
        <pt x="146" y="643" on="0"/>
        <pt x="146" y="606" on="1"/>
      </contour>
      <contour>
        <pt x="99" y="762" on="0"/>
        <pt x="99" y="724" on="0"/>
        <pt x="62" y="697" on="0"/>
        <pt x="43" y="697" on="1"/>
        <pt x="23" y="697" on="0"/>
        <pt x="-13" y="723" on="0"/>
        <pt x="-13" y="743" on="1"/>
        <pt x="-13" y="762" on="0"/>
        <pt x="24" y="789" on="0"/>
        <pt x="43" y="789" on="1"/>
        <pt x="61" y="789" on="0"/>
      </contour>
      <contour>
        <pt x="245" y="762" on="0"/>
        <pt x="245" y="724" on="0"/>
        <pt x="208" y="697" on="0"/>
        <pt x="189" y="697" on="1"/>
        <pt x="169" y="697" on="0"/>
        <pt x="133" y="723" on="0"/>
        <pt x="133" y="743" on="1"/>
        <pt x="133" y="762" on="0"/>
        <pt x="170" y="789" on="0"/>
        <pt x="189" y="789" on="1"/>
        <pt x="207" y="789" on="0"/>
      </contour>
    </TTGlyph>
    <TTGlyph name="Iotatonos" xMin="7" yMin="-7" xMax="190" yMax="793">
      <contour>
        <pt x="93" y="793" on="1"/>
        <pt x="106" y="793" on="0"/>
        <pt x="122" y="774" on="0"/>
        <pt x="122" y="760" on="1"/>
        <pt x="122" y="750" on="0"/>
        <pt x="119" y="741" on="1"/>
        <pt x="70" y="606" on="1"/>
        <pt x="61" y="579" on="0"/>
        <pt x="38" y="579" on="1"/>
        <pt x="25" y="579" on="0"/>
        <pt x="7" y="595" on="0"/>
        <pt x="7" y="609" on="1"/>
        <pt x="7" y="618" on="0"/>
        <pt x="11" y="627" on="1"/>
        <pt x="60" y="763" on="1"/>
        <pt x="71" y="793" on="0"/>
      </contour>
      <contour>
        <pt x="190" y="29" on="1"/>
        <pt x="190" y="-7" on="0"/>
        <pt x="158" y="-7" on="1"/>
        <pt x="128" y="-7" on="0"/>
        <pt x="128" y="29" on="1"/>
        <pt x="128" y="606" on="1"/>
        <pt x="128" y="643" on="0"/>
        <pt x="190" y="643" on="0"/>
        <pt x="190" y="606" on="1"/>
      </contour>
    </TTGlyph>
    <TTGlyph name="Itilde" xMin="-31" yMin="-7" xMax="260" yMax="813">
      <contour>
        <pt x="161" y="775" on="1"/>
        <pt x="166" y="773" on="0"/>
        <pt x="172" y="773" on="0"/>
        <pt x="174" y="775" on="1"/>
        <pt x="205" y="803" on="1"/>
        <pt x="215" y="813" on="0"/>
        <pt x="230" y="813" on="1"/>
        <pt x="241" y="813" on="0"/>
        <pt x="260" y="797" on="0"/>
        <pt x="260" y="784" on="1"/>
        <pt x="260" y="767" on="0"/>
        <pt x="244" y="754" on="1"/>
        <pt x="199" y="716" on="1"/>
        <pt x="185" y="706" on="0"/>
        <pt x="176" y="706" on="1"/>
        <pt x="166" y="706" on="0"/>
        <pt x="162" y="708" on="1"/>
        <pt x="68" y="744" on="1"/>
        <pt x="63" y="746" on="0"/>
        <pt x="57" y="746" on="0"/>
        <pt x="55" y="744" on="1"/>
        <pt x="24" y="716" on="1"/>
        <pt x="14" y="706" on="0"/>
        <pt x="-1" y="706" on="1"/>
        <pt x="-12" y="706" on="0"/>
        <pt x="-31" y="722" on="0"/>
        <pt x="-31" y="735" on="1"/>
        <pt x="-31" y="752" on="0"/>
        <pt x="-15" y="765" on="1"/>
        <pt x="30" y="803" on="1"/>
        <pt x="44" y="813" on="0"/>
        <pt x="53" y="813" on="1"/>
        <pt x="63" y="813" on="0"/>
        <pt x="67" y="811" on="1"/>
      </contour>
      <contour>
        <pt x="146" y="29" on="1"/>
        <pt x="146" y="-7" on="0"/>
        <pt x="114" y="-7" on="1"/>
        <pt x="84" y="-7" on="0"/>
        <pt x="84" y="29" on="1"/>
        <pt x="84" y="606" on="1"/>
        <pt x="84" y="643" on="0"/>
        <pt x="146" y="643" on="0"/>
        <pt x="146" y="606" on="1"/>
      </contour>
    </TTGlyph>
    <TTGlyph name="J" xMin="33" yMin="-8" xMax="490" yMax="643">
      <contour>
        <pt x="262" y="54" on="1"/>
        <pt x="359" y="54" on="0"/>
        <pt x="428" y="96" on="0"/>
        <pt x="428" y="173" on="1"/>
        <pt x="428" y="607" on="1"/>
        <pt x="428" y="643" on="0"/>
        <pt x="490" y="643" on="0"/>
        <pt x="490" y="606" on="1"/>
        <pt x="490" y="171" on="1"/>
        <pt x="490" y="64" on="0"/>
        <pt x="380" y="-8" on="0"/>
        <pt x="262" y="-8" on="1"/>
        <pt x="143" y="-8" on="0"/>
        <pt x="33" y="66" on="0"/>
        <pt x="33" y="177" on="1"/>
        <pt x="33" y="215" on="0"/>
        <pt x="66" y="215" on="1"/>
        <pt x="80" y="215" on="0"/>
        <pt x="96" y="194" on="0"/>
        <pt x="96" y="177" on="1"/>
        <pt x="96" y="97" on="0"/>
        <pt x="164" y="54" on="0"/>
      </contour>
    </TTGlyph>
    <TTGlyph name="Jcircumflex" xMin="33" yMin="-8" xMax="600" yMax="820">
      <contour>
        <pt x="314" y="696" on="1"/>
        <pt x="421" y="820" on="1"/>
        <pt x="484" y="820" on="1"/>
        <pt x="593" y="696" on="1"/>
        <pt x="600" y="689" on="0"/>
        <pt x="600" y="675" on="1"/>
        <pt x="600" y="647" on="0"/>
        <pt x="572" y="647" on="1"/>
        <pt x="564" y="647" on="0"/>
        <pt x="554" y="652" on="0"/>
        <pt x="547" y="660" on="1"/>
        <pt x="540" y="669" on="1"/>
        <pt x="453" y="751" on="1"/>
        <pt x="367" y="669" on="1"/>
        <pt x="360" y="660" on="1"/>
        <pt x="353" y="652" on="0"/>
        <pt x="343" y="647" on="0"/>
        <pt x="335" y="647" on="1"/>
        <pt x="307" y="647" on="0"/>
        <pt x="307" y="675" on="1"/>
        <pt x="307" y="689" on="0"/>
      </contour>
      <contour>
        <pt x="262" y="54" on="1"/>
        <pt x="359" y="54" on="0"/>
        <pt x="428" y="96" on="0"/>
        <pt x="428" y="173" on="1"/>
        <pt x="428" y="607" on="1"/>
        <pt x="428" y="643" on="0"/>
        <pt x="490" y="643" on="0"/>
        <pt x="490" y="606" on="1"/>
        <pt x="490" y="171" on="1"/>
        <pt x="490" y="64" on="0"/>
        <pt x="380" y="-8" on="0"/>
        <pt x="262" y="-8" on="1"/>
        <pt x="143" y="-8" on="0"/>
        <pt x="33" y="66" on="0"/>
        <pt x="33" y="177" on="1"/>
        <pt x="33" y="215" on="0"/>
        <pt x="66" y="215" on="1"/>
        <pt x="80" y="215" on="0"/>
        <pt x="96" y="194" on="0"/>
        <pt x="96" y="177" on="1"/>
        <pt x="96" y="97" on="0"/>
        <pt x="164" y="54" on="0"/>
      </contour>
    </TTGlyph>
    <TTGlyph name="Jecyrillic" xMin="33" yMin="-8" xMax="490" yMax="643">
      <contour>
        <pt x="262" y="54" on="1"/>
        <pt x="359" y="54" on="0"/>
        <pt x="428" y="96" on="0"/>
        <pt x="428" y="173" on="1"/>
        <pt x="428" y="607" on="1"/>
        <pt x="428" y="643" on="0"/>
        <pt x="490" y="643" on="0"/>
        <pt x="490" y="606" on="1"/>
        <pt x="490" y="171" on="1"/>
        <pt x="490" y="64" on="0"/>
        <pt x="380" y="-8" on="0"/>
        <pt x="262" y="-8" on="1"/>
        <pt x="143" y="-8" on="0"/>
        <pt x="33" y="66" on="0"/>
        <pt x="33" y="177" on="1"/>
        <pt x="33" y="215" on="0"/>
        <pt x="66" y="215" on="1"/>
        <pt x="80" y="215" on="0"/>
        <pt x="96" y="194" on="0"/>
        <pt x="96" y="177" on="1"/>
        <pt x="96" y="97" on="0"/>
        <pt x="164" y="54" on="0"/>
      </contour>
    </TTGlyph>
    <TTGlyph name="K" xMin="84" yMin="-7" xMax="534" yMax="643">
      <contour>
        <pt x="534" y="23" on="1"/>
        <pt x="534" y="10" on="0"/>
        <pt x="513" y="-7" on="0"/>
        <pt x="503" y="-7" on="1"/>
        <pt x="488" y="-7" on="0"/>
        <pt x="474" y="10" on="1"/>
        <pt x="194" y="319" on="1"/>
        <pt x="146" y="261" on="1"/>
        <pt x="146" y="30" on="1"/>
        <pt x="146" y="-7" on="0"/>
        <pt x="114" y="-7" on="1"/>
        <pt x="84" y="-7" on="0"/>
        <pt x="84" y="29" on="1"/>
        <pt x="84" y="606" on="1"/>
        <pt x="84" y="643" on="0"/>
        <pt x="146" y="643" on="0"/>
        <pt x="146" y="605" on="1"/>
        <pt x="146" y="338" on="1"/>
        <pt x="408" y="626" on="1"/>
        <pt x="423" y="643" on="0"/>
        <pt x="437" y="643" on="1"/>
        <pt x="447" y="643" on="0"/>
        <pt x="467" y="626" on="0"/>
        <pt x="467" y="614" on="1"/>
        <pt x="467" y="601" on="0"/>
        <pt x="456" y="588" on="1"/>
        <pt x="237" y="355" on="1"/>
        <pt x="522" y="48" on="1"/>
        <pt x="534" y="34" on="0"/>
      </contour>
    </TTGlyph>
    <TTGlyph name="Kacyrillic" xMin="84" yMin="-7" xMax="554" yMax="609">
      <contour>
        <pt x="232" y="265" on="1"/>
        <pt x="146" y="265" on="1"/>
        <pt x="146" y="29" on="1"/>
        <pt x="146" y="-7" on="0"/>
        <pt x="114" y="-7" on="1"/>
        <pt x="84" y="-7" on="0"/>
        <pt x="84" y="29" on="1"/>
        <pt x="84" y="570" on="1"/>
        <pt x="84" y="588" on="0"/>
        <pt x="101" y="608" on="0"/>
        <pt x="115" y="608" on="1"/>
        <pt x="146" y="608" on="0"/>
        <pt x="146" y="570" on="1"/>
        <pt x="146" y="327" on="1"/>
        <pt x="236" y="327" on="1"/>
        <pt x="258" y="327" on="0"/>
        <pt x="323" y="415" on="0"/>
        <pt x="382" y="521" on="0"/>
        <pt x="470" y="609" on="0"/>
        <pt x="513" y="609" on="1"/>
        <pt x="554" y="609" on="0"/>
        <pt x="554" y="547" on="0"/>
        <pt x="513" y="547" on="1"/>
        <pt x="485" y="547" on="0"/>
        <pt x="421" y="456" on="0"/>
        <pt x="343" y="326" on="0"/>
        <pt x="308" y="296" on="1"/>
        <pt x="346" y="264" on="0"/>
        <pt x="427" y="139" on="0"/>
        <pt x="487" y="55" on="0"/>
        <pt x="513" y="55" on="1"/>
        <pt x="554" y="55" on="0"/>
        <pt x="554" y="-7" on="0"/>
        <pt x="513" y="-7" on="1"/>
        <pt x="477" y="-7" on="0"/>
        <pt x="406" y="49" on="0"/>
        <pt x="351" y="129" on="0"/>
        <pt x="302" y="209" on="0"/>
        <pt x="253" y="265" on="0"/>
      </contour>
    </TTGlyph>
    <TTGlyph name="Kappa" xMin="84" yMin="-7" xMax="534" yMax="643">
      <contour>
        <pt x="534" y="23" on="1"/>
        <pt x="534" y="10" on="0"/>
        <pt x="513" y="-7" on="0"/>
        <pt x="503" y="-7" on="1"/>
        <pt x="488" y="-7" on="0"/>
        <pt x="474" y="10" on="1"/>
        <pt x="194" y="319" on="1"/>
        <pt x="146" y="261" on="1"/>
        <pt x="146" y="30" on="1"/>
        <pt x="146" y="-7" on="0"/>
        <pt x="114" y="-7" on="1"/>
        <pt x="84" y="-7" on="0"/>
        <pt x="84" y="29" on="1"/>
        <pt x="84" y="606" on="1"/>
        <pt x="84" y="643" on="0"/>
        <pt x="146" y="643" on="0"/>
        <pt x="146" y="605" on="1"/>
        <pt x="146" y="338" on="1"/>
        <pt x="408" y="626" on="1"/>
        <pt x="423" y="643" on="0"/>
        <pt x="437" y="643" on="1"/>
        <pt x="447" y="643" on="0"/>
        <pt x="467" y="626" on="0"/>
        <pt x="467" y="614" on="1"/>
        <pt x="467" y="601" on="0"/>
        <pt x="456" y="588" on="1"/>
        <pt x="237" y="355" on="1"/>
        <pt x="522" y="48" on="1"/>
        <pt x="534" y="34" on="0"/>
      </contour>
    </TTGlyph>
    <TTGlyph name="Kcommaaccent" xMin="84" yMin="-161" xMax="534" yMax="643">
      <contour>
        <pt x="354" y="-51" on="1"/>
        <pt x="314" y="-134" on="1"/>
        <pt x="300" y="-161" on="0"/>
        <pt x="284" y="-161" on="1"/>
        <pt x="257" y="-161" on="0"/>
        <pt x="257" y="-131" on="1"/>
        <pt x="257" y="-126" on="0"/>
        <pt x="260" y="-114" on="1"/>
        <pt x="284" y="-27" on="1"/>
        <pt x="292" y="0" on="0"/>
        <pt x="314" y="0" on="1"/>
        <pt x="328" y="0" on="0"/>
        <pt x="360" y="-14" on="0"/>
        <pt x="360" y="-30" on="1"/>
        <pt x="360" y="-41" on="0"/>
      </contour>
      <contour>
        <pt x="534" y="23" on="1"/>
        <pt x="534" y="10" on="0"/>
        <pt x="513" y="-7" on="0"/>
        <pt x="503" y="-7" on="1"/>
        <pt x="488" y="-7" on="0"/>
        <pt x="474" y="10" on="1"/>
        <pt x="194" y="319" on="1"/>
        <pt x="146" y="261" on="1"/>
        <pt x="146" y="30" on="1"/>
        <pt x="146" y="-7" on="0"/>
        <pt x="114" y="-7" on="1"/>
        <pt x="84" y="-7" on="0"/>
        <pt x="84" y="29" on="1"/>
        <pt x="84" y="606" on="1"/>
        <pt x="84" y="643" on="0"/>
        <pt x="146" y="643" on="0"/>
        <pt x="146" y="605" on="1"/>
        <pt x="146" y="338" on="1"/>
        <pt x="408" y="626" on="1"/>
        <pt x="423" y="643" on="0"/>
        <pt x="437" y="643" on="1"/>
        <pt x="447" y="643" on="0"/>
        <pt x="467" y="626" on="0"/>
        <pt x="467" y="614" on="1"/>
        <pt x="467" y="601" on="0"/>
        <pt x="456" y="588" on="1"/>
        <pt x="237" y="355" on="1"/>
        <pt x="522" y="48" on="1"/>
        <pt x="534" y="34" on="0"/>
      </contour>
    </TTGlyph>
    <TTGlyph name="Khacyrillic" xMin="38" yMin="-7" xMax="545" yMax="643">
      <contour>
        <pt x="514" y="643" on="1"/>
        <pt x="524" y="643" on="0"/>
        <pt x="545" y="628" on="0"/>
        <pt x="545" y="611" on="1"/>
        <pt x="545" y="601" on="0"/>
        <pt x="536" y="589" on="1"/>
        <pt x="332" y="317" on="1"/>
        <pt x="536" y="46" on="1"/>
        <pt x="545" y="34" on="0"/>
        <pt x="545" y="22" on="1"/>
        <pt x="545" y="8" on="0"/>
        <pt x="525" y="-7" on="0"/>
        <pt x="514" y="-7" on="1"/>
        <pt x="499" y="-7" on="0"/>
        <pt x="485" y="11" on="1"/>
        <pt x="291" y="273" on="1"/>
        <pt x="98" y="11" on="1"/>
        <pt x="85" y="-7" on="0"/>
        <pt x="68" y="-7" on="1"/>
        <pt x="57" y="-7" on="0"/>
        <pt x="38" y="9" on="0"/>
        <pt x="38" y="22" on="1"/>
        <pt x="38" y="34" on="0"/>
        <pt x="47" y="46" on="1"/>
        <pt x="251" y="317" on="1"/>
        <pt x="47" y="589" on="1"/>
        <pt x="38" y="600" on="0"/>
        <pt x="38" y="611" on="1"/>
        <pt x="38" y="623" on="0"/>
        <pt x="51" y="639" on="0"/>
        <pt x="63" y="643" on="0"/>
        <pt x="68" y="643" on="1"/>
        <pt x="84" y="643" on="0"/>
        <pt x="98" y="623" on="1"/>
        <pt x="291" y="362" on="1"/>
        <pt x="485" y="623" on="1"/>
        <pt x="500" y="643" on="0"/>
      </contour>
    </TTGlyph>
    <TTGlyph name="Kjecyrillic" xMin="84" yMin="-7" xMax="554" yMax="772">
      <component glyphName="acute" x="209" y="84" flags="0x1004"/>
      <component glyphName="Kacyrillic" x="0" y="0" flags="0x1204"/>
    </TTGlyph>
    <TTGlyph name="L" xMin="84" yMin="0" xMax="512" yMax="643">
      <contour>
        <pt x="113" y="0" on="1"/>
        <pt x="84" y="0" on="0"/>
        <pt x="84" y="39" on="1"/>
        <pt x="84" y="607" on="1"/>
        <pt x="84" y="643" on="0"/>
        <pt x="146" y="643" on="0"/>
        <pt x="146" y="607" on="1"/>
        <pt x="146" y="62" on="1"/>
        <pt x="474" y="62" on="1"/>
        <pt x="512" y="62" on="0"/>
        <pt x="512" y="30" on="1"/>
        <pt x="512" y="0" on="0"/>
        <pt x="474" y="0" on="1"/>
      </contour>
    </TTGlyph>
    <TTGlyph name="Lacute" xMin="84" yMin="0" xMax="512" yMax="820">
      <contour>
        <pt x="168" y="805" on="1"/>
        <pt x="183" y="820" on="0"/>
        <pt x="196" y="820" on="1"/>
        <pt x="208" y="820" on="0"/>
        <pt x="227" y="800" on="0"/>
        <pt x="227" y="790" on="1"/>
        <pt x="227" y="778" on="0"/>
        <pt x="213" y="762" on="1"/>
        <pt x="144" y="694" on="1"/>
        <pt x="130" y="679" on="0"/>
        <pt x="115" y="679" on="1"/>
        <pt x="102" y="679" on="0"/>
        <pt x="85" y="697" on="0"/>
        <pt x="85" y="708" on="1"/>
        <pt x="85" y="721" on="0"/>
        <pt x="98" y="736" on="1"/>
      </contour>
      <contour>
        <pt x="113" y="0" on="1"/>
        <pt x="84" y="0" on="0"/>
        <pt x="84" y="39" on="1"/>
        <pt x="84" y="607" on="1"/>
        <pt x="84" y="643" on="0"/>
        <pt x="146" y="643" on="0"/>
        <pt x="146" y="607" on="1"/>
        <pt x="146" y="62" on="1"/>
        <pt x="474" y="62" on="1"/>
        <pt x="512" y="62" on="0"/>
        <pt x="512" y="30" on="1"/>
        <pt x="512" y="0" on="0"/>
        <pt x="474" y="0" on="1"/>
      </contour>
    </TTGlyph>
    <TTGlyph name="Lambda" xMin="23" yMin="-16" xMax="565" yMax="636">
      <contour>
        <pt x="23" y="4" on="1"/>
        <pt x="23" y="10" on="0"/>
        <pt x="26" y="25" on="1"/>
        <pt x="262" y="636" on="1"/>
        <pt x="326" y="636" on="1"/>
        <pt x="562" y="25" on="1"/>
        <pt x="565" y="10" on="0"/>
        <pt x="565" y="4" on="1"/>
        <pt x="565" y="-16" on="0"/>
        <pt x="534" y="-16" on="1"/>
        <pt x="512" y="-16" on="0"/>
        <pt x="502" y="4" on="1"/>
        <pt x="293" y="543" on="1"/>
        <pt x="86" y="4" on="1"/>
        <pt x="76" y="-16" on="0"/>
        <pt x="54" y="-16" on="1"/>
        <pt x="23" y="-16" on="0"/>
      </contour>
    </TTGlyph>
    <TTGlyph name="Lcaron" xMin="84" yMin="0" xMax="512" yMax="655">
      <contour>
        <pt x="286" y="604" on="1"/>
        <pt x="246" y="521" on="1"/>
        <pt x="232" y="494" on="0"/>
        <pt x="216" y="494" on="1"/>
        <pt x="189" y="494" on="0"/>
        <pt x="189" y="524" on="1"/>
        <pt x="189" y="529" on="0"/>
        <pt x="192" y="541" on="1"/>
        <pt x="216" y="628" on="1"/>
        <pt x="224" y="655" on="0"/>
        <pt x="246" y="655" on="1"/>
        <pt x="260" y="655" on="0"/>
        <pt x="292" y="641" on="0"/>
        <pt x="292" y="625" on="1"/>
        <pt x="292" y="614" on="0"/>
      </contour>
      <contour>
        <pt x="113" y="0" on="1"/>
        <pt x="84" y="0" on="0"/>
        <pt x="84" y="39" on="1"/>
        <pt x="84" y="607" on="1"/>
        <pt x="84" y="643" on="0"/>
        <pt x="146" y="643" on="0"/>
        <pt x="146" y="607" on="1"/>
        <pt x="146" y="62" on="1"/>
        <pt x="474" y="62" on="1"/>
        <pt x="512" y="62" on="0"/>
        <pt x="512" y="30" on="1"/>
        <pt x="512" y="0" on="0"/>
        <pt x="474" y="0" on="1"/>
      </contour>
    </TTGlyph>
    <TTGlyph name="Lcommaaccent" xMin="84" yMin="-205" xMax="512" yMax="643">
      <contour>
        <pt x="339" y="-95" on="1"/>
        <pt x="299" y="-178" on="1"/>
        <pt x="286" y="-205" on="0"/>
        <pt x="269" y="-205" on="1"/>
        <pt x="242" y="-205" on="0"/>
        <pt x="242" y="-175" on="1"/>
        <pt x="242" y="-170" on="0"/>
        <pt x="245" y="-158" on="1"/>
        <pt x="269" y="-71" on="1"/>
        <pt x="277" y="-44" on="0"/>
        <pt x="299" y="-44" on="1"/>
        <pt x="313" y="-44" on="0"/>
        <pt x="345" y="-58" on="0"/>
        <pt x="345" y="-74" on="1"/>
        <pt x="345" y="-85" on="0"/>
      </contour>
      <contour>
        <pt x="113" y="0" on="1"/>
        <pt x="84" y="0" on="0"/>
        <pt x="84" y="39" on="1"/>
        <pt x="84" y="607" on="1"/>
        <pt x="84" y="643" on="0"/>
        <pt x="146" y="643" on="0"/>
        <pt x="146" y="607" on="1"/>
        <pt x="146" y="62" on="1"/>
        <pt x="474" y="62" on="1"/>
        <pt x="512" y="62" on="0"/>
        <pt x="512" y="30" on="1"/>
        <pt x="512" y="0" on="0"/>
        <pt x="474" y="0" on="1"/>
      </contour>
    </TTGlyph>
    <TTGlyph name="Ljecyrillic" xMin="22" yMin="-7" xMax="878" yMax="636">
      <contour>
        <pt x="653" y="349" on="1"/>
        <pt x="510" y="349" on="1"/>
        <pt x="512" y="55" on="1"/>
        <pt x="655" y="55" on="1"/>
        <pt x="735" y="55" on="0"/>
        <pt x="816" y="135" on="0"/>
        <pt x="816" y="269" on="0"/>
        <pt x="734" y="349" on="0"/>
      </contour>
      <contour>
        <pt x="510" y="411" on="1"/>
        <pt x="653" y="411" on="1"/>
        <pt x="756" y="411" on="0"/>
        <pt x="878" y="297" on="0"/>
        <pt x="878" y="202" on="1"/>
        <pt x="878" y="108" on="0"/>
        <pt x="757" y="-7" on="0"/>
        <pt x="655" y="-7" on="1"/>
        <pt x="481" y="-7" on="1"/>
        <pt x="448" y="-7" on="0"/>
        <pt x="448" y="32" on="1"/>
        <pt x="448" y="574" on="1"/>
        <pt x="245" y="574" on="1"/>
        <pt x="207" y="574" on="0"/>
        <pt x="179" y="550" on="0"/>
        <pt x="179" y="521" on="1"/>
        <pt x="176" y="130" on="1"/>
        <pt x="176" y="50" on="0"/>
        <pt x="118" y="0" on="0"/>
        <pt x="63" y="0" on="1"/>
        <pt x="22" y="0" on="0"/>
        <pt x="22" y="32" on="1"/>
        <pt x="22" y="60" on="0"/>
        <pt x="63" y="60" on="1"/>
        <pt x="92" y="60" on="0"/>
        <pt x="113" y="83" on="0"/>
        <pt x="113" y="112" on="1"/>
        <pt x="113" y="506" on="1"/>
        <pt x="113" y="578" on="0"/>
        <pt x="164" y="636" on="0"/>
        <pt x="238" y="636" on="1"/>
        <pt x="510" y="636" on="1"/>
      </contour>
    </TTGlyph>
    <TTGlyph name="Lslash" xMin="2" yMin="0" xMax="517" yMax="643">
      <contour>
        <pt x="118" y="0" on="1"/>
        <pt x="89" y="0" on="0"/>
        <pt x="89" y="39" on="1"/>
        <pt x="89" y="296" on="1"/>
        <pt x="50" y="276" on="1"/>
        <pt x="42" y="273" on="0"/>
        <pt x="33" y="273" on="1"/>
        <pt x="17" y="273" on="0"/>
        <pt x="2" y="295" on="0"/>
        <pt x="2" y="306" on="1"/>
        <pt x="2" y="322" on="0"/>
        <pt x="27" y="334" on="1"/>
        <pt x="89" y="365" on="1"/>
        <pt x="89" y="607" on="1"/>
        <pt x="89" y="643" on="0"/>
        <pt x="151" y="643" on="0"/>
        <pt x="151" y="607" on="1"/>
        <pt x="151" y="397" on="1"/>
        <pt x="197" y="420" on="1"/>
        <pt x="203" y="423" on="0"/>
        <pt x="216" y="423" on="1"/>
        <pt x="230" y="423" on="0"/>
        <pt x="248" y="405" on="0"/>
        <pt x="248" y="392" on="1"/>
        <pt x="248" y="373" on="0"/>
        <pt x="220" y="361" on="1"/>
        <pt x="151" y="326" on="1"/>
        <pt x="151" y="62" on="1"/>
        <pt x="479" y="62" on="1"/>
        <pt x="517" y="62" on="0"/>
        <pt x="517" y="30" on="1"/>
        <pt x="517" y="0" on="0"/>
        <pt x="479" y="0" on="1"/>
      </contour>
    </TTGlyph>
    <TTGlyph name="M" xMin="84" yMin="-7" xMax="589" yMax="643">
      <contour>
        <pt x="336" y="279" on="1"/>
        <pt x="324" y="279" on="0"/>
        <pt x="314" y="289" on="1"/>
        <pt x="146" y="534" on="1"/>
        <pt x="146" y="33" on="1"/>
        <pt x="146" y="-7" on="0"/>
        <pt x="84" y="-7" on="0"/>
        <pt x="84" y="31" on="1"/>
        <pt x="84" y="604" on="1"/>
        <pt x="84" y="643" on="0"/>
        <pt x="113" y="643" on="1"/>
        <pt x="133" y="643" on="0"/>
        <pt x="147" y="622" on="1"/>
        <pt x="336" y="350" on="1"/>
        <pt x="526" y="622" on="1"/>
        <pt x="541" y="643" on="0"/>
        <pt x="559" y="643" on="1"/>
        <pt x="589" y="643" on="0"/>
        <pt x="589" y="604" on="1"/>
        <pt x="589" y="31" on="1"/>
        <pt x="589" y="-7" on="0"/>
        <pt x="557" y="-7" on="1"/>
        <pt x="527" y="-7" on="0"/>
        <pt x="527" y="33" on="1"/>
        <pt x="527" y="534" on="1"/>
        <pt x="359" y="289" on="1"/>
        <pt x="351" y="279" on="0"/>
      </contour>
    </TTGlyph>
    <TTGlyph name="Mu" xMin="84" yMin="-7" xMax="589" yMax="643">
      <contour>
        <pt x="336" y="279" on="1"/>
        <pt x="324" y="279" on="0"/>
        <pt x="314" y="289" on="1"/>
        <pt x="146" y="534" on="1"/>
        <pt x="146" y="33" on="1"/>
        <pt x="146" y="-7" on="0"/>
        <pt x="84" y="-7" on="0"/>
        <pt x="84" y="31" on="1"/>
        <pt x="84" y="604" on="1"/>
        <pt x="84" y="643" on="0"/>
        <pt x="113" y="643" on="1"/>
        <pt x="133" y="643" on="0"/>
        <pt x="147" y="622" on="1"/>
        <pt x="336" y="350" on="1"/>
        <pt x="526" y="622" on="1"/>
        <pt x="541" y="643" on="0"/>
        <pt x="559" y="643" on="1"/>
        <pt x="589" y="643" on="0"/>
        <pt x="589" y="604" on="1"/>
        <pt x="589" y="31" on="1"/>
        <pt x="589" y="-7" on="0"/>
        <pt x="557" y="-7" on="1"/>
        <pt x="527" y="-7" on="0"/>
        <pt x="527" y="33" on="1"/>
        <pt x="527" y="534" on="1"/>
        <pt x="359" y="289" on="1"/>
        <pt x="351" y="279" on="0"/>
      </contour>
    </TTGlyph>
    <TTGlyph name="N" xMin="84" yMin="-7" xMax="568" yMax="643">
      <contour>
        <pt x="538" y="-7" on="1"/>
        <pt x="521" y="-7" on="0"/>
        <pt x="514" y="0" on="1"/>
        <pt x="146" y="530" on="1"/>
        <pt x="146" y="29" on="1"/>
        <pt x="146" y="-7" on="0"/>
        <pt x="84" y="-7" on="0"/>
        <pt x="84" y="31" on="1"/>
        <pt x="84" y="604" on="1"/>
        <pt x="84" y="643" on="0"/>
        <pt x="113" y="643" on="1"/>
        <pt x="133" y="643" on="0"/>
        <pt x="147" y="622" on="1"/>
        <pt x="506" y="107" on="1"/>
        <pt x="506" y="602" on="1"/>
        <pt x="506" y="643" on="0"/>
        <pt x="536" y="643" on="1"/>
        <pt x="568" y="643" on="0"/>
        <pt x="568" y="604" on="1"/>
        <pt x="568" y="31" on="1"/>
        <pt x="568" y="-7" on="0"/>
      </contour>
    </TTGlyph>
    <TTGlyph name="Nacute" xMin="84" yMin="-7" xMax="568" yMax="814">
      <contour>
        <pt x="305" y="643" on="1"/>
        <pt x="290" y="626" on="0"/>
        <pt x="276" y="626" on="1"/>
        <pt x="266" y="626" on="0"/>
        <pt x="246" y="643" on="0"/>
        <pt x="246" y="656" on="1"/>
        <pt x="246" y="670" on="0"/>
        <pt x="256" y="682" on="1"/>
        <pt x="352" y="797" on="1"/>
        <pt x="367" y="814" on="0"/>
        <pt x="381" y="814" on="1"/>
        <pt x="392" y="814" on="0"/>
        <pt x="411" y="797" on="0"/>
        <pt x="411" y="769" on="0"/>
        <pt x="401" y="758" on="1"/>
      </contour>
      <contour>
        <pt x="538" y="-7" on="1"/>
        <pt x="521" y="-7" on="0"/>
        <pt x="514" y="0" on="1"/>
        <pt x="146" y="530" on="1"/>
        <pt x="146" y="29" on="1"/>
        <pt x="146" y="-7" on="0"/>
        <pt x="84" y="-7" on="0"/>
        <pt x="84" y="31" on="1"/>
        <pt x="84" y="604" on="1"/>
        <pt x="84" y="643" on="0"/>
        <pt x="113" y="643" on="1"/>
        <pt x="133" y="643" on="0"/>
        <pt x="147" y="622" on="1"/>
        <pt x="506" y="107" on="1"/>
        <pt x="506" y="602" on="1"/>
        <pt x="506" y="643" on="0"/>
        <pt x="536" y="643" on="1"/>
        <pt x="568" y="643" on="0"/>
        <pt x="568" y="604" on="1"/>
        <pt x="568" y="31" on="1"/>
        <pt x="568" y="-7" on="0"/>
      </contour>
    </TTGlyph>
    <TTGlyph name="Ncaron" xMin="84" yMin="-7" xMax="568" yMax="797">
      <contour>
        <pt x="339" y="643" on="1"/>
        <pt x="279" y="643" on="1"/>
        <pt x="173" y="754" on="1"/>
        <pt x="165" y="762" on="0"/>
        <pt x="165" y="782" on="0"/>
        <pt x="179" y="797" on="0"/>
        <pt x="193" y="797" on="1"/>
        <pt x="206" y="797" on="0"/>
        <pt x="228" y="779" on="1"/>
        <pt x="309" y="712" on="1"/>
        <pt x="390" y="779" on="1"/>
        <pt x="412" y="797" on="0"/>
        <pt x="425" y="797" on="1"/>
        <pt x="439" y="797" on="0"/>
        <pt x="453" y="782" on="0"/>
        <pt x="453" y="762" on="0"/>
        <pt x="445" y="754" on="1"/>
      </contour>
      <contour>
        <pt x="538" y="-7" on="1"/>
        <pt x="521" y="-7" on="0"/>
        <pt x="514" y="0" on="1"/>
        <pt x="146" y="530" on="1"/>
        <pt x="146" y="29" on="1"/>
        <pt x="146" y="-7" on="0"/>
        <pt x="84" y="-7" on="0"/>
        <pt x="84" y="31" on="1"/>
        <pt x="84" y="604" on="1"/>
        <pt x="84" y="643" on="0"/>
        <pt x="113" y="643" on="1"/>
        <pt x="133" y="643" on="0"/>
        <pt x="147" y="622" on="1"/>
        <pt x="506" y="107" on="1"/>
        <pt x="506" y="602" on="1"/>
        <pt x="506" y="643" on="0"/>
        <pt x="536" y="643" on="1"/>
        <pt x="568" y="643" on="0"/>
        <pt x="568" y="604" on="1"/>
        <pt x="568" y="31" on="1"/>
        <pt x="568" y="-7" on="0"/>
      </contour>
    </TTGlyph>
    <TTGlyph name="Ncommaaccent" xMin="84" yMin="-161" xMax="568" yMax="643">
      <contour>
        <pt x="372" y="-51" on="1"/>
        <pt x="332" y="-134" on="1"/>
        <pt x="318" y="-161" on="0"/>
        <pt x="302" y="-161" on="1"/>
        <pt x="275" y="-161" on="0"/>
        <pt x="275" y="-131" on="1"/>
        <pt x="275" y="-126" on="0"/>
        <pt x="278" y="-114" on="1"/>
        <pt x="302" y="-27" on="1"/>
        <pt x="310" y="0" on="0"/>
        <pt x="332" y="0" on="1"/>
        <pt x="346" y="0" on="0"/>
        <pt x="378" y="-14" on="0"/>
        <pt x="378" y="-30" on="1"/>
        <pt x="378" y="-41" on="0"/>
      </contour>
      <contour>
        <pt x="538" y="-7" on="1"/>
        <pt x="521" y="-7" on="0"/>
        <pt x="514" y="0" on="1"/>
        <pt x="146" y="530" on="1"/>
        <pt x="146" y="29" on="1"/>
        <pt x="146" y="-7" on="0"/>
        <pt x="84" y="-7" on="0"/>
        <pt x="84" y="31" on="1"/>
        <pt x="84" y="604" on="1"/>
        <pt x="84" y="643" on="0"/>
        <pt x="113" y="643" on="1"/>
        <pt x="133" y="643" on="0"/>
        <pt x="147" y="622" on="1"/>
        <pt x="506" y="107" on="1"/>
        <pt x="506" y="602" on="1"/>
        <pt x="506" y="643" on="0"/>
        <pt x="536" y="643" on="1"/>
        <pt x="568" y="643" on="0"/>
        <pt x="568" y="604" on="1"/>
        <pt x="568" y="31" on="1"/>
        <pt x="568" y="-7" on="0"/>
      </contour>
    </TTGlyph>
    <TTGlyph name="Njecyrillic" xMin="84" yMin="-7" xMax="916" yMax="643">
      <contour>
        <pt x="695" y="349" on="1"/>
        <pt x="558" y="349" on="1"/>
        <pt x="558" y="55" on="1"/>
        <pt x="695" y="55" on="1"/>
        <pt x="774" y="55" on="0"/>
        <pt x="854" y="135" on="0"/>
        <pt x="854" y="269" on="0"/>
        <pt x="774" y="349" on="0"/>
      </contour>
      <contour>
        <pt x="558" y="411" on="1"/>
        <pt x="695" y="411" on="1"/>
        <pt x="795" y="411" on="0"/>
        <pt x="916" y="295" on="0"/>
        <pt x="916" y="202" on="1"/>
        <pt x="916" y="108" on="0"/>
        <pt x="796" y="-7" on="0"/>
        <pt x="695" y="-7" on="1"/>
        <pt x="527" y="-7" on="1"/>
        <pt x="496" y="-7" on="0"/>
        <pt x="496" y="33" on="1"/>
        <pt x="496" y="349" on="1"/>
        <pt x="146" y="349" on="1"/>
        <pt x="146" y="32" on="1"/>
        <pt x="146" y="-7" on="0"/>
        <pt x="84" y="-7" on="0"/>
        <pt x="84" y="31" on="1"/>
        <pt x="84" y="604" on="1"/>
        <pt x="84" y="643" on="0"/>
        <pt x="113" y="643" on="1"/>
        <pt x="146" y="643" on="0"/>
        <pt x="146" y="604" on="1"/>
        <pt x="146" y="411" on="1"/>
        <pt x="496" y="411" on="1"/>
        <pt x="496" y="604" on="1"/>
        <pt x="496" y="643" on="0"/>
        <pt x="526" y="643" on="1"/>
        <pt x="558" y="643" on="0"/>
        <pt x="558" y="604" on="1"/>
      </contour>
    </TTGlyph>
    <TTGlyph name="Ntilde" xMin="84" yMin="-7" xMax="568" yMax="803">
      <component glyphName="tildecomb" x="605" y="212" flags="0x1004"/>
      <component glyphName="N" x="0" y="0" flags="0x1204"/>
    </TTGlyph>
    <TTGlyph name="Nu" xMin="84" yMin="-7" xMax="568" yMax="643">
      <contour>
        <pt x="538" y="-7" on="1"/>
        <pt x="521" y="-7" on="0"/>
        <pt x="514" y="0" on="1"/>
        <pt x="146" y="530" on="1"/>
        <pt x="146" y="29" on="1"/>
        <pt x="146" y="-7" on="0"/>
        <pt x="84" y="-7" on="0"/>
        <pt x="84" y="31" on="1"/>
        <pt x="84" y="604" on="1"/>
        <pt x="84" y="643" on="0"/>
        <pt x="113" y="643" on="1"/>
        <pt x="133" y="643" on="0"/>
        <pt x="147" y="622" on="1"/>
        <pt x="506" y="107" on="1"/>
        <pt x="506" y="602" on="1"/>
        <pt x="506" y="643" on="0"/>
        <pt x="536" y="643" on="1"/>
        <pt x="568" y="643" on="0"/>
        <pt x="568" y="604" on="1"/>
        <pt x="568" y="31" on="1"/>
        <pt x="568" y="-7" on="0"/>
      </contour>
    </TTGlyph>
    <TTGlyph name="O" xMin="65" yMin="-9" xMax="549" yMax="645">
      <contour>
        <pt x="307" y="-9" on="1"/>
        <pt x="199" y="-9" on="0"/>
        <pt x="65" y="118" on="0"/>
        <pt x="65" y="229" on="1"/>
        <pt x="65" y="407" on="1"/>
        <pt x="65" y="518" on="0"/>
        <pt x="199" y="645" on="0"/>
        <pt x="307" y="645" on="1"/>
        <pt x="414" y="645" on="0"/>
        <pt x="549" y="518" on="0"/>
        <pt x="549" y="407" on="1"/>
        <pt x="549" y="229" on="1"/>
        <pt x="549" y="118" on="0"/>
        <pt x="414" y="-9" on="0"/>
      </contour>
      <contour>
        <pt x="394" y="583" on="0"/>
        <pt x="220" y="583" on="0"/>
        <pt x="127" y="489" on="0"/>
        <pt x="127" y="405" on="1"/>
        <pt x="127" y="231" on="1"/>
        <pt x="127" y="146" on="0"/>
        <pt x="219" y="53" on="0"/>
        <pt x="395" y="53" on="0"/>
        <pt x="487" y="146" on="0"/>
        <pt x="487" y="231" on="1"/>
        <pt x="487" y="405" on="1"/>
        <pt x="487" y="489" on="0"/>
      </contour>
    </TTGlyph>
    <TTGlyph name="O.smallcap" xMin="85" yMin="-9" xMax="569" yMax="561">
      <contour>
        <pt x="327" y="-9" on="1"/>
        <pt x="219" y="-9" on="0"/>
        <pt x="85" y="118" on="0"/>
        <pt x="85" y="229" on="1"/>
        <pt x="85" y="323" on="1"/>
        <pt x="85" y="434" on="0"/>
        <pt x="219" y="561" on="0"/>
        <pt x="327" y="561" on="1"/>
        <pt x="434" y="561" on="0"/>
        <pt x="569" y="434" on="0"/>
        <pt x="569" y="323" on="1"/>
        <pt x="569" y="229" on="1"/>
        <pt x="569" y="118" on="0"/>
        <pt x="434" y="-9" on="0"/>
      </contour>
      <contour>
        <pt x="414" y="499" on="0"/>
        <pt x="240" y="499" on="0"/>
        <pt x="147" y="405" on="0"/>
        <pt x="147" y="321" on="1"/>
        <pt x="147" y="231" on="1"/>
        <pt x="147" y="146" on="0"/>
        <pt x="239" y="53" on="0"/>
        <pt x="415" y="53" on="0"/>
        <pt x="507" y="146" on="0"/>
        <pt x="507" y="231" on="1"/>
        <pt x="507" y="321" on="1"/>
        <pt x="507" y="405" on="0"/>
      </contour>
    </TTGlyph>
    <TTGlyph name="OE" xMin="64" yMin="-9" xMax="700" yMax="645">
      <contour>
        <pt x="389" y="623" on="1"/>
        <pt x="397" y="636" on="0"/>
        <pt x="415" y="636" on="1"/>
        <pt x="660" y="636" on="1"/>
        <pt x="700" y="636" on="0"/>
        <pt x="700" y="608" on="1"/>
        <pt x="700" y="576" on="0"/>
        <pt x="660" y="576" on="1"/>
        <pt x="449" y="576" on="1"/>
        <pt x="449" y="389" on="1"/>
        <pt x="540" y="389" on="1"/>
        <pt x="582" y="389" on="0"/>
        <pt x="582" y="356" on="1"/>
        <pt x="582" y="327" on="0"/>
        <pt x="540" y="327" on="1"/>
        <pt x="449" y="327" on="1"/>
        <pt x="449" y="62" on="1"/>
        <pt x="657" y="62" on="1"/>
        <pt x="697" y="62" on="0"/>
        <pt x="697" y="29" on="1"/>
        <pt x="697" y="0" on="0"/>
        <pt x="657" y="0" on="1"/>
        <pt x="421" y="0" on="1"/>
        <pt x="402" y="0" on="0"/>
        <pt x="393" y="13" on="1"/>
        <pt x="346" y="-9" on="0"/>
        <pt x="285" y="-9" on="1"/>
        <pt x="203" y="-9" on="0"/>
        <pt x="64" y="123" on="0"/>
        <pt x="64" y="229" on="1"/>
        <pt x="64" y="407" on="1"/>
        <pt x="64" y="513" on="0"/>
        <pt x="201" y="645" on="0"/>
        <pt x="281" y="645" on="1"/>
        <pt x="344" y="645" on="0"/>
      </contour>
      <contour>
        <pt x="285" y="53" on="1"/>
        <pt x="350" y="53" on="0"/>
        <pt x="387" y="83" on="1"/>
        <pt x="387" y="553" on="1"/>
        <pt x="352" y="583" on="0"/>
        <pt x="281" y="583" on="1"/>
        <pt x="223" y="583" on="0"/>
        <pt x="126" y="485" on="0"/>
        <pt x="126" y="405" on="1"/>
        <pt x="126" y="231" on="1"/>
        <pt x="126" y="150" on="0"/>
        <pt x="224" y="53" on="0"/>
      </contour>
    </TTGlyph>
    <TTGlyph name="Oacute" xMin="65" yMin="-9" xMax="549" yMax="819">
      <component glyphName="acutecomb" x="656" y="178" flags="0x1004"/>
      <component glyphName="O" x="0" y="0" flags="0x1204"/>
    </TTGlyph>
    <TTGlyph name="Ocircumflex" xMin="65" yMin="-9" xMax="549" yMax="819">
      <component glyphName="uni0302" x="609" y="141" flags="0x1004"/>
      <component glyphName="O" x="0" y="0" flags="0x1204"/>
    </TTGlyph>
    <TTGlyph name="Ocyrillic" xMin="65" yMin="-9" xMax="549" yMax="645">
      <contour>
        <pt x="307" y="-9" on="1"/>
        <pt x="199" y="-9" on="0"/>
        <pt x="65" y="118" on="0"/>
        <pt x="65" y="229" on="1"/>
        <pt x="65" y="407" on="1"/>
        <pt x="65" y="518" on="0"/>
        <pt x="199" y="645" on="0"/>
        <pt x="307" y="645" on="1"/>
        <pt x="414" y="645" on="0"/>
        <pt x="549" y="518" on="0"/>
        <pt x="549" y="407" on="1"/>
        <pt x="549" y="229" on="1"/>
        <pt x="549" y="118" on="0"/>
        <pt x="414" y="-9" on="0"/>
      </contour>
      <contour>
        <pt x="394" y="583" on="0"/>
        <pt x="220" y="583" on="0"/>
        <pt x="127" y="489" on="0"/>
        <pt x="127" y="405" on="1"/>
        <pt x="127" y="231" on="1"/>
        <pt x="127" y="146" on="0"/>
        <pt x="219" y="53" on="0"/>
        <pt x="395" y="53" on="0"/>
        <pt x="487" y="146" on="0"/>
        <pt x="487" y="231" on="1"/>
        <pt x="487" y="405" on="1"/>
        <pt x="487" y="489" on="0"/>
      </contour>
    </TTGlyph>
    <TTGlyph name="Odieresis" xMin="65" yMin="-9" xMax="549" yMax="789">
      <component glyphName="uni0308" x="616" y="197" flags="0x1004"/>
      <component glyphName="O" x="0" y="0" flags="0x1204"/>
    </TTGlyph>
    <TTGlyph name="Ograve" xMin="65" yMin="-9" xMax="549" yMax="819">
      <component glyphName="gravecomb" x="575" y="178" flags="0x1004"/>
      <component glyphName="O" x="0" y="0" flags="0x1204"/>
    </TTGlyph>
    <TTGlyph name="Ohorn" xMin="65" yMin="-9" xMax="648" yMax="691">
      <contour>
        <pt x="394" y="583" on="0"/>
        <pt x="220" y="583" on="0"/>
        <pt x="127" y="489" on="0"/>
        <pt x="127" y="405" on="1"/>
        <pt x="127" y="231" on="1"/>
        <pt x="127" y="146" on="0"/>
        <pt x="219" y="53" on="0"/>
        <pt x="395" y="53" on="0"/>
        <pt x="487" y="146" on="0"/>
        <pt x="487" y="231" on="1"/>
        <pt x="487" y="405" on="1"/>
        <pt x="487" y="489" on="0"/>
      </contour>
      <contour>
        <pt x="307" y="-9" on="1"/>
        <pt x="199" y="-9" on="0"/>
        <pt x="65" y="118" on="0"/>
        <pt x="65" y="229" on="1"/>
        <pt x="65" y="407" on="1"/>
        <pt x="65" y="518" on="0"/>
        <pt x="199" y="645" on="0"/>
        <pt x="307" y="645" on="1"/>
        <pt x="437" y="645" on="0"/>
        <pt x="503" y="557" on="1"/>
        <pt x="548" y="558" on="0"/>
        <pt x="584" y="578" on="0"/>
        <pt x="584" y="600" on="1"/>
        <pt x="584" y="615" on="0"/>
        <pt x="563" y="631" on="1"/>
        <pt x="546" y="643" on="0"/>
        <pt x="546" y="661" on="1"/>
        <pt x="546" y="676" on="0"/>
        <pt x="567" y="691" on="0"/>
        <pt x="576" y="691" on="1"/>
        <pt x="590" y="691" on="0"/>
        <pt x="602" y="679" on="1"/>
        <pt x="648" y="640" on="0"/>
        <pt x="648" y="596" on="1"/>
        <pt x="648" y="511" on="0"/>
        <pt x="534" y="498" on="1"/>
        <pt x="549" y="453" on="0"/>
        <pt x="549" y="407" on="1"/>
        <pt x="549" y="229" on="1"/>
        <pt x="549" y="118" on="0"/>
        <pt x="414" y="-9" on="0"/>
      </contour>
    </TTGlyph>
    <TTGlyph name="Ohungarumlaut" xMin="65" yMin="-9" xMax="549" yMax="819">
      <contour>
        <pt x="296" y="804" on="1"/>
        <pt x="311" y="819" on="0"/>
        <pt x="324" y="819" on="1"/>
        <pt x="336" y="819" on="0"/>
        <pt x="355" y="799" on="0"/>
        <pt x="355" y="789" on="1"/>
        <pt x="355" y="777" on="0"/>
        <pt x="341" y="761" on="1"/>
        <pt x="272" y="693" on="1"/>
        <pt x="258" y="678" on="0"/>
        <pt x="243" y="678" on="1"/>
        <pt x="230" y="678" on="0"/>
        <pt x="213" y="696" on="0"/>
        <pt x="213" y="707" on="1"/>
        <pt x="213" y="720" on="0"/>
        <pt x="226" y="735" on="1"/>
      </contour>
      <contour>
        <pt x="416" y="804" on="1"/>
        <pt x="431" y="819" on="0"/>
        <pt x="444" y="819" on="1"/>
        <pt x="456" y="819" on="0"/>
        <pt x="475" y="799" on="0"/>
        <pt x="475" y="789" on="1"/>
        <pt x="475" y="777" on="0"/>
        <pt x="461" y="761" on="1"/>
        <pt x="392" y="693" on="1"/>
        <pt x="378" y="678" on="0"/>
        <pt x="363" y="678" on="1"/>
        <pt x="350" y="678" on="0"/>
        <pt x="333" y="696" on="0"/>
        <pt x="333" y="707" on="1"/>
        <pt x="333" y="720" on="0"/>
        <pt x="346" y="735" on="1"/>
      </contour>
      <contour>
        <pt x="307" y="-9" on="1"/>
        <pt x="199" y="-9" on="0"/>
        <pt x="65" y="118" on="0"/>
        <pt x="65" y="229" on="1"/>
        <pt x="65" y="407" on="1"/>
        <pt x="65" y="518" on="0"/>
        <pt x="199" y="645" on="0"/>
        <pt x="307" y="645" on="1"/>
        <pt x="414" y="645" on="0"/>
        <pt x="549" y="518" on="0"/>
        <pt x="549" y="407" on="1"/>
        <pt x="549" y="229" on="1"/>
        <pt x="549" y="118" on="0"/>
        <pt x="414" y="-9" on="0"/>
      </contour>
      <contour>
        <pt x="394" y="583" on="0"/>
        <pt x="220" y="583" on="0"/>
        <pt x="127" y="489" on="0"/>
        <pt x="127" y="405" on="1"/>
        <pt x="127" y="231" on="1"/>
        <pt x="127" y="146" on="0"/>
        <pt x="219" y="53" on="0"/>
        <pt x="395" y="53" on="0"/>
        <pt x="487" y="146" on="0"/>
        <pt x="487" y="231" on="1"/>
        <pt x="487" y="405" on="1"/>
        <pt x="487" y="489" on="0"/>
      </contour>
    </TTGlyph>
    <TTGlyph name="Omacron" xMin="65" yMin="-9" xMax="549" yMax="769">
      <contour>
        <pt x="183" y="769" on="1"/>
        <pt x="428" y="769" on="1"/>
        <pt x="467" y="769" on="0"/>
        <pt x="467" y="736" on="1"/>
        <pt x="467" y="722" on="0"/>
        <pt x="444" y="706" on="0"/>
        <pt x="428" y="706" on="1"/>
        <pt x="183" y="706" on="1"/>
        <pt x="147" y="706" on="0"/>
        <pt x="147" y="738" on="1"/>
        <pt x="147" y="750" on="0"/>
        <pt x="164" y="769" on="0"/>
      </contour>
      <contour>
        <pt x="307" y="-9" on="1"/>
        <pt x="199" y="-9" on="0"/>
        <pt x="65" y="118" on="0"/>
        <pt x="65" y="229" on="1"/>
        <pt x="65" y="407" on="1"/>
        <pt x="65" y="518" on="0"/>
        <pt x="199" y="645" on="0"/>
        <pt x="307" y="645" on="1"/>
        <pt x="414" y="645" on="0"/>
        <pt x="549" y="518" on="0"/>
        <pt x="549" y="407" on="1"/>
        <pt x="549" y="229" on="1"/>
        <pt x="549" y="118" on="0"/>
        <pt x="414" y="-9" on="0"/>
      </contour>
      <contour>
        <pt x="394" y="583" on="0"/>
        <pt x="220" y="583" on="0"/>
        <pt x="127" y="489" on="0"/>
        <pt x="127" y="405" on="1"/>
        <pt x="127" y="231" on="1"/>
        <pt x="127" y="146" on="0"/>
        <pt x="219" y="53" on="0"/>
        <pt x="395" y="53" on="0"/>
        <pt x="487" y="146" on="0"/>
        <pt x="487" y="231" on="1"/>
        <pt x="487" y="405" on="1"/>
        <pt x="487" y="489" on="0"/>
      </contour>
    </TTGlyph>
    <TTGlyph name="Omega" xMin="64" yMin="0" xMax="548" yMax="645">
      <contour>
        <pt x="349" y="151" on="1"/>
        <pt x="486" y="181" on="0"/>
        <pt x="486" y="325" on="1"/>
        <pt x="486" y="405" on="1"/>
        <pt x="486" y="489" on="0"/>
        <pt x="392" y="583" on="0"/>
        <pt x="220" y="583" on="0"/>
        <pt x="126" y="489" on="0"/>
        <pt x="126" y="405" on="1"/>
        <pt x="126" y="325" on="1"/>
        <pt x="126" y="285" on="0"/>
        <pt x="149" y="222" on="0"/>
        <pt x="177" y="188" on="0"/>
        <pt x="222" y="162" on="0"/>
        <pt x="246" y="154" on="0"/>
        <pt x="263" y="150" on="1"/>
        <pt x="263" y="102" on="1"/>
        <pt x="263" y="32" on="0"/>
        <pt x="228" y="0" on="0"/>
        <pt x="161" y="0" on="1"/>
        <pt x="104" y="0" on="1"/>
        <pt x="64" y="0" on="0"/>
        <pt x="64" y="62" on="0"/>
        <pt x="104" y="62" on="1"/>
        <pt x="154" y="62" on="1"/>
        <pt x="185" y="62" on="0"/>
        <pt x="196" y="69" on="0"/>
        <pt x="196" y="89" on="1"/>
        <pt x="196" y="111" on="1"/>
        <pt x="134" y="137" on="0"/>
        <pt x="64" y="248" on="0"/>
        <pt x="64" y="327" on="1"/>
        <pt x="64" y="407" on="1"/>
        <pt x="64" y="518" on="0"/>
        <pt x="198" y="645" on="0"/>
        <pt x="306" y="645" on="1"/>
        <pt x="413" y="645" on="0"/>
        <pt x="548" y="518" on="0"/>
        <pt x="548" y="407" on="1"/>
        <pt x="548" y="327" on="1"/>
        <pt x="548" y="248" on="0"/>
        <pt x="478" y="137" on="0"/>
        <pt x="416" y="111" on="1"/>
        <pt x="416" y="88" on="1"/>
        <pt x="416" y="68" on="0"/>
        <pt x="426" y="62" on="0"/>
        <pt x="458" y="62" on="1"/>
        <pt x="508" y="62" on="1"/>
        <pt x="548" y="62" on="0"/>
        <pt x="548" y="0" on="0"/>
        <pt x="508" y="0" on="1"/>
        <pt x="451" y="0" on="1"/>
        <pt x="384" y="0" on="0"/>
        <pt x="349" y="32" on="0"/>
        <pt x="349" y="102" on="1"/>
      </contour>
    </TTGlyph>
    <TTGlyph name="Omegatonos" xMin="36" yMin="0" xMax="571" yMax="793">
      <contour>
        <pt x="122" y="793" on="1"/>
        <pt x="135" y="793" on="0"/>
        <pt x="151" y="774" on="0"/>
        <pt x="151" y="760" on="1"/>
        <pt x="151" y="750" on="0"/>
        <pt x="148" y="741" on="1"/>
        <pt x="99" y="606" on="1"/>
        <pt x="90" y="579" on="0"/>
        <pt x="67" y="579" on="1"/>
        <pt x="54" y="579" on="0"/>
        <pt x="36" y="595" on="0"/>
        <pt x="36" y="609" on="1"/>
        <pt x="36" y="618" on="0"/>
        <pt x="40" y="627" on="1"/>
        <pt x="89" y="763" on="1"/>
        <pt x="100" y="793" on="0"/>
      </contour>
      <contour>
        <pt x="372" y="151" on="1"/>
        <pt x="509" y="181" on="0"/>
        <pt x="509" y="325" on="1"/>
        <pt x="509" y="405" on="1"/>
        <pt x="509" y="489" on="0"/>
        <pt x="415" y="583" on="0"/>
        <pt x="243" y="583" on="0"/>
        <pt x="149" y="489" on="0"/>
        <pt x="149" y="405" on="1"/>
        <pt x="149" y="325" on="1"/>
        <pt x="149" y="285" on="0"/>
        <pt x="172" y="222" on="0"/>
        <pt x="200" y="188" on="0"/>
        <pt x="245" y="162" on="0"/>
        <pt x="269" y="154" on="0"/>
        <pt x="286" y="150" on="1"/>
        <pt x="286" y="102" on="1"/>
        <pt x="286" y="32" on="0"/>
        <pt x="251" y="0" on="0"/>
        <pt x="184" y="0" on="1"/>
        <pt x="127" y="0" on="1"/>
        <pt x="87" y="0" on="0"/>
        <pt x="87" y="62" on="0"/>
        <pt x="127" y="62" on="1"/>
        <pt x="177" y="62" on="1"/>
        <pt x="208" y="62" on="0"/>
        <pt x="219" y="69" on="0"/>
        <pt x="219" y="89" on="1"/>
        <pt x="219" y="111" on="1"/>
        <pt x="157" y="137" on="0"/>
        <pt x="87" y="248" on="0"/>
        <pt x="87" y="327" on="1"/>
        <pt x="87" y="407" on="1"/>
        <pt x="87" y="518" on="0"/>
        <pt x="221" y="645" on="0"/>
        <pt x="329" y="645" on="1"/>
        <pt x="436" y="645" on="0"/>
        <pt x="571" y="518" on="0"/>
        <pt x="571" y="407" on="1"/>
        <pt x="571" y="327" on="1"/>
        <pt x="571" y="248" on="0"/>
        <pt x="501" y="137" on="0"/>
        <pt x="439" y="111" on="1"/>
        <pt x="439" y="88" on="1"/>
        <pt x="439" y="68" on="0"/>
        <pt x="450" y="62" on="0"/>
        <pt x="481" y="62" on="1"/>
        <pt x="531" y="62" on="1"/>
        <pt x="571" y="62" on="0"/>
        <pt x="571" y="0" on="0"/>
        <pt x="531" y="0" on="1"/>
        <pt x="474" y="0" on="1"/>
        <pt x="407" y="0" on="0"/>
        <pt x="372" y="32" on="0"/>
        <pt x="372" y="102" on="1"/>
      </contour>
    </TTGlyph>
    <TTGlyph name="Omicron" xMin="65" yMin="-9" xMax="549" yMax="645">
      <contour>
        <pt x="307" y="-9" on="1"/>
        <pt x="199" y="-9" on="0"/>
        <pt x="65" y="118" on="0"/>
        <pt x="65" y="229" on="1"/>
        <pt x="65" y="407" on="1"/>
        <pt x="65" y="518" on="0"/>
        <pt x="199" y="645" on="0"/>
        <pt x="307" y="645" on="1"/>
        <pt x="414" y="645" on="0"/>
        <pt x="549" y="518" on="0"/>
        <pt x="549" y="407" on="1"/>
        <pt x="549" y="229" on="1"/>
        <pt x="549" y="118" on="0"/>
        <pt x="414" y="-9" on="0"/>
      </contour>
      <contour>
        <pt x="394" y="583" on="0"/>
        <pt x="220" y="583" on="0"/>
        <pt x="127" y="489" on="0"/>
        <pt x="127" y="405" on="1"/>
        <pt x="127" y="231" on="1"/>
        <pt x="127" y="146" on="0"/>
        <pt x="219" y="53" on="0"/>
        <pt x="395" y="53" on="0"/>
        <pt x="487" y="146" on="0"/>
        <pt x="487" y="231" on="1"/>
        <pt x="487" y="405" on="1"/>
        <pt x="487" y="489" on="0"/>
      </contour>
    </TTGlyph>
    <TTGlyph name="Omicrontonos" xMin="23" yMin="-9" xMax="576" yMax="793">
      <contour>
        <pt x="109" y="793" on="1"/>
        <pt x="122" y="793" on="0"/>
        <pt x="138" y="774" on="0"/>
        <pt x="138" y="760" on="1"/>
        <pt x="138" y="750" on="0"/>
        <pt x="135" y="741" on="1"/>
        <pt x="86" y="606" on="1"/>
        <pt x="77" y="579" on="0"/>
        <pt x="54" y="579" on="1"/>
        <pt x="41" y="579" on="0"/>
        <pt x="23" y="595" on="0"/>
        <pt x="23" y="609" on="1"/>
        <pt x="23" y="618" on="0"/>
        <pt x="27" y="627" on="1"/>
        <pt x="76" y="763" on="1"/>
        <pt x="87" y="793" on="0"/>
      </contour>
      <contour>
        <pt x="334" y="-9" on="1"/>
        <pt x="226" y="-9" on="0"/>
        <pt x="92" y="118" on="0"/>
        <pt x="92" y="229" on="1"/>
        <pt x="92" y="407" on="1"/>
        <pt x="92" y="518" on="0"/>
        <pt x="226" y="645" on="0"/>
        <pt x="334" y="645" on="1"/>
        <pt x="441" y="645" on="0"/>
        <pt x="576" y="518" on="0"/>
        <pt x="576" y="407" on="1"/>
        <pt x="576" y="229" on="1"/>
        <pt x="576" y="118" on="0"/>
        <pt x="441" y="-9" on="0"/>
      </contour>
      <contour>
        <pt x="421" y="583" on="0"/>
        <pt x="247" y="583" on="0"/>
        <pt x="154" y="489" on="0"/>
        <pt x="154" y="405" on="1"/>
        <pt x="154" y="231" on="1"/>
        <pt x="154" y="146" on="0"/>
        <pt x="246" y="53" on="0"/>
        <pt x="422" y="53" on="0"/>
        <pt x="514" y="146" on="0"/>
        <pt x="514" y="231" on="1"/>
        <pt x="514" y="405" on="1"/>
        <pt x="514" y="489" on="0"/>
      </contour>
    </TTGlyph>
    <TTGlyph name="Oslash" xMin="63" yMin="-9" xMax="552" yMax="645">
      <contour>
        <pt x="307" y="583" on="1"/>
        <pt x="220" y="583" on="0"/>
        <pt x="127" y="489" on="0"/>
        <pt x="127" y="405" on="1"/>
        <pt x="127" y="231" on="1"/>
        <pt x="127" y="185" on="0"/>
        <pt x="141" y="148" on="1"/>
        <pt x="437" y="540" on="1"/>
        <pt x="389" y="583" on="0"/>
      </contour>
      <contour>
        <pt x="521" y="632" on="1"/>
        <pt x="533" y="632" on="0"/>
        <pt x="552" y="614" on="0"/>
        <pt x="552" y="602" on="1"/>
        <pt x="552" y="591" on="0"/>
        <pt x="542" y="577" on="1"/>
        <pt x="515" y="541" on="1"/>
        <pt x="549" y="484" on="0"/>
        <pt x="549" y="407" on="1"/>
        <pt x="549" y="229" on="1"/>
        <pt x="549" y="118" on="0"/>
        <pt x="414" y="-9" on="0"/>
        <pt x="307" y="-9" on="1"/>
        <pt x="206" y="-9" on="0"/>
        <pt x="142" y="46" on="1"/>
        <pt x="123" y="21" on="1"/>
        <pt x="110" y="4" on="0"/>
        <pt x="95" y="4" on="1"/>
        <pt x="84" y="4" on="0"/>
        <pt x="63" y="21" on="0"/>
        <pt x="63" y="33" on="1"/>
        <pt x="63" y="44" on="0"/>
        <pt x="73" y="58" on="1"/>
        <pt x="100" y="94" on="1"/>
        <pt x="65" y="151" on="0"/>
        <pt x="65" y="229" on="1"/>
        <pt x="65" y="407" on="1"/>
        <pt x="65" y="518" on="0"/>
        <pt x="199" y="645" on="0"/>
        <pt x="307" y="645" on="1"/>
        <pt x="409" y="645" on="0"/>
        <pt x="473" y="589" on="1"/>
        <pt x="493" y="615" on="1"/>
        <pt x="506" y="632" on="0"/>
      </contour>
      <contour>
        <pt x="473" y="486" on="1"/>
        <pt x="178" y="95" on="1"/>
        <pt x="226" y="53" on="0"/>
        <pt x="307" y="53" on="1"/>
        <pt x="395" y="53" on="0"/>
        <pt x="487" y="146" on="0"/>
        <pt x="487" y="231" on="1"/>
        <pt x="487" y="405" on="1"/>
        <pt x="487" y="449" on="0"/>
      </contour>
    </TTGlyph>
    <TTGlyph name="Otilde" xMin="65" yMin="-9" xMax="549" yMax="803">
      <component glyphName="tildecomb" x="587" y="212" flags="0x1004"/>
      <component glyphName="O" x="0" y="0" flags="0x1204"/>
    </TTGlyph>
    <TTGlyph name="P" xMin="84" yMin="-7" xMax="526" yMax="636">
      <contour>
        <pt x="146" y="29" on="1"/>
        <pt x="146" y="-7" on="0"/>
        <pt x="114" y="-7" on="1"/>
        <pt x="84" y="-7" on="0"/>
        <pt x="84" y="29" on="1"/>
        <pt x="84" y="596" on="1"/>
        <pt x="84" y="636" on="0"/>
        <pt x="113" y="636" on="1"/>
        <pt x="299" y="636" on="1"/>
        <pt x="413" y="636" on="0"/>
        <pt x="526" y="569" on="0"/>
        <pt x="526" y="479" on="1"/>
        <pt x="526" y="403" on="0"/>
        <pt x="431" y="322" on="0"/>
        <pt x="345" y="322" on="1"/>
        <pt x="146" y="322" on="1"/>
      </contour>
      <contour>
        <pt x="299" y="384" on="1"/>
        <pt x="396" y="384" on="0"/>
        <pt x="464" y="422" on="0"/>
        <pt x="464" y="479" on="1"/>
        <pt x="464" y="538" on="0"/>
        <pt x="392" y="574" on="0"/>
        <pt x="299" y="574" on="1"/>
        <pt x="146" y="574" on="1"/>
        <pt x="146" y="384" on="1"/>
      </contour>
    </TTGlyph>
    <TTGlyph name="Pecyrillic" xMin="85" yMin="-7" xMax="559" yMax="636">
      <contour>
        <pt x="85" y="636" on="1"/>
        <pt x="559" y="636" on="1"/>
        <pt x="559" y="31" on="1"/>
        <pt x="559" y="-7" on="0"/>
        <pt x="529" y="-7" on="1"/>
        <pt x="497" y="-7" on="0"/>
        <pt x="497" y="31" on="1"/>
        <pt x="497" y="574" on="1"/>
        <pt x="147" y="574" on="1"/>
        <pt x="147" y="31" on="1"/>
        <pt x="147" y="-7" on="0"/>
        <pt x="85" y="-7" on="0"/>
        <pt x="85" y="31" on="1"/>
      </contour>
    </TTGlyph>
    <TTGlyph name="Phi" xMin="42" yMin="-7" xMax="526" yMax="643">
      <contour>
        <pt x="319" y="29" on="1"/>
        <pt x="319" y="-7" on="0"/>
        <pt x="285" y="-7" on="1"/>
        <pt x="272" y="-7" on="0"/>
        <pt x="253" y="10" on="0"/>
        <pt x="253" y="29" on="1"/>
        <pt x="253" y="75" on="1"/>
        <pt x="157" y="84" on="0"/>
        <pt x="42" y="208" on="0"/>
        <pt x="42" y="312" on="1"/>
        <pt x="42" y="324" on="1"/>
        <pt x="42" y="428" on="0"/>
        <pt x="157" y="552" on="0"/>
        <pt x="253" y="561" on="1"/>
        <pt x="253" y="606" on="1"/>
        <pt x="253" y="643" on="0"/>
        <pt x="319" y="643" on="0"/>
        <pt x="319" y="606" on="1"/>
        <pt x="319" y="561" on="1"/>
        <pt x="413" y="550" on="0"/>
        <pt x="526" y="426" on="0"/>
        <pt x="526" y="324" on="1"/>
        <pt x="526" y="312" on="1"/>
        <pt x="526" y="210" on="0"/>
        <pt x="413" y="86" on="0"/>
        <pt x="319" y="75" on="1"/>
      </contour>
      <contour>
        <pt x="464" y="324" on="1"/>
        <pt x="464" y="401" on="0"/>
        <pt x="389" y="496" on="0"/>
        <pt x="319" y="505" on="1"/>
        <pt x="319" y="131" on="1"/>
        <pt x="389" y="139" on="0"/>
        <pt x="464" y="234" on="0"/>
        <pt x="464" y="312" on="1"/>
      </contour>
      <contour>
        <pt x="104" y="312" on="1"/>
        <pt x="104" y="234" on="0"/>
        <pt x="179" y="139" on="0"/>
        <pt x="253" y="130" on="1"/>
        <pt x="253" y="506" on="1"/>
        <pt x="181" y="498" on="0"/>
        <pt x="104" y="403" on="0"/>
        <pt x="104" y="324" on="1"/>
      </contour>
    </TTGlyph>
    <TTGlyph name="Pi" xMin="85" yMin="-7" xMax="559" yMax="636">
      <contour>
        <pt x="85" y="636" on="1"/>
        <pt x="559" y="636" on="1"/>
        <pt x="559" y="31" on="1"/>
        <pt x="559" y="-7" on="0"/>
        <pt x="529" y="-7" on="1"/>
        <pt x="497" y="-7" on="0"/>
        <pt x="497" y="31" on="1"/>
        <pt x="497" y="574" on="1"/>
        <pt x="147" y="574" on="1"/>
        <pt x="147" y="31" on="1"/>
        <pt x="147" y="-7" on="0"/>
        <pt x="85" y="-7" on="0"/>
        <pt x="85" y="31" on="1"/>
      </contour>
    </TTGlyph>
    <TTGlyph name="Psi" xMin="48" yMin="-7" xMax="532" yMax="643">
      <contour>
        <pt x="470" y="605" on="1"/>
        <pt x="470" y="643" on="0"/>
        <pt x="502" y="643" on="1"/>
        <pt x="532" y="643" on="0"/>
        <pt x="532" y="606" on="1"/>
        <pt x="532" y="455" on="1"/>
        <pt x="532" y="353" on="0"/>
        <pt x="416" y="228" on="0"/>
        <pt x="322" y="218" on="1"/>
        <pt x="322" y="29" on="1"/>
        <pt x="322" y="-7" on="0"/>
        <pt x="290" y="-7" on="1"/>
        <pt x="260" y="-7" on="0"/>
        <pt x="260" y="29" on="1"/>
        <pt x="260" y="218" on="1"/>
        <pt x="164" y="227" on="0"/>
        <pt x="48" y="352" on="0"/>
        <pt x="48" y="455" on="1"/>
        <pt x="48" y="606" on="1"/>
        <pt x="48" y="643" on="0"/>
        <pt x="110" y="643" on="0"/>
        <pt x="110" y="605" on="1"/>
        <pt x="110" y="449" on="1"/>
        <pt x="110" y="294" on="0"/>
        <pt x="260" y="277" on="1"/>
        <pt x="260" y="605" on="1"/>
        <pt x="260" y="643" on="0"/>
        <pt x="322" y="643" on="0"/>
        <pt x="322" y="605" on="1"/>
        <pt x="322" y="278" on="1"/>
        <pt x="470" y="295" on="0"/>
        <pt x="470" y="449" on="1"/>
      </contour>
    </TTGlyph>
    <TTGlyph name="Q" xMin="65" yMin="-12" xMax="549" yMax="645">
      <contour>
        <pt x="394" y="583" on="0"/>
        <pt x="220" y="583" on="0"/>
        <pt x="127" y="489" on="0"/>
        <pt x="127" y="405" on="1"/>
        <pt x="127" y="231" on="1"/>
        <pt x="127" y="146" on="0"/>
        <pt x="219" y="53" on="0"/>
        <pt x="307" y="53" on="1"/>
        <pt x="372" y="53" on="0"/>
        <pt x="412" y="77" on="1"/>
        <pt x="359" y="124" on="1"/>
        <pt x="344" y="135" on="0"/>
        <pt x="344" y="150" on="1"/>
        <pt x="344" y="161" on="0"/>
        <pt x="362" y="181" on="0"/>
        <pt x="376" y="181" on="1"/>
        <pt x="392" y="181" on="0"/>
        <pt x="407" y="166" on="1"/>
        <pt x="457" y="118" on="1"/>
        <pt x="487" y="162" on="0"/>
        <pt x="487" y="231" on="1"/>
        <pt x="487" y="405" on="1"/>
        <pt x="487" y="489" on="0"/>
      </contour>
      <contour>
        <pt x="307" y="-9" on="1"/>
        <pt x="199" y="-9" on="0"/>
        <pt x="65" y="118" on="0"/>
        <pt x="65" y="229" on="1"/>
        <pt x="65" y="407" on="1"/>
        <pt x="65" y="518" on="0"/>
        <pt x="199" y="645" on="0"/>
        <pt x="307" y="645" on="1"/>
        <pt x="414" y="645" on="0"/>
        <pt x="549" y="518" on="0"/>
        <pt x="549" y="407" on="1"/>
        <pt x="549" y="229" on="1"/>
        <pt x="549" y="135" on="0"/>
        <pt x="502" y="75" on="1"/>
        <pt x="534" y="45" on="1"/>
        <pt x="546" y="33" on="0"/>
        <pt x="546" y="18" on="1"/>
        <pt x="546" y="7" on="0"/>
        <pt x="529" y="-12" on="0"/>
        <pt x="517" y="-12" on="1"/>
        <pt x="500" y="-12" on="0"/>
        <pt x="489" y="-1" on="1"/>
        <pt x="457" y="31" on="1"/>
        <pt x="397" y="-9" on="0"/>
      </contour>
    </TTGlyph>
    <TTGlyph name="R" xMin="84" yMin="-7" xMax="534" yMax="636">
      <contour>
        <pt x="414" y="329" on="1"/>
        <pt x="446" y="294" on="0"/>
        <pt x="505" y="147" on="0"/>
        <pt x="534" y="40" on="0"/>
        <pt x="534" y="29" on="1"/>
        <pt x="534" y="14" on="0"/>
        <pt x="516" y="-7" on="0"/>
        <pt x="502" y="-7" on="1"/>
        <pt x="474" y="-7" on="0"/>
        <pt x="472" y="29" on="1"/>
        <pt x="470" y="67" on="0"/>
        <pt x="392" y="273" on="0"/>
        <pt x="333" y="317" on="1"/>
        <pt x="146" y="317" on="1"/>
        <pt x="146" y="29" on="1"/>
        <pt x="146" y="-7" on="0"/>
        <pt x="114" y="-7" on="1"/>
        <pt x="84" y="-7" on="0"/>
        <pt x="84" y="29" on="1"/>
        <pt x="84" y="596" on="1"/>
        <pt x="84" y="636" on="0"/>
        <pt x="113" y="636" on="1"/>
        <pt x="297" y="636" on="1"/>
        <pt x="413" y="636" on="0"/>
        <pt x="526" y="569" on="0"/>
        <pt x="526" y="478" on="1"/>
        <pt x="526" y="418" on="0"/>
        <pt x="467" y="342" on="0"/>
      </contour>
      <contour>
        <pt x="146" y="379" on="1"/>
        <pt x="297" y="379" on="1"/>
        <pt x="392" y="379" on="0"/>
        <pt x="464" y="415" on="0"/>
        <pt x="464" y="533" on="0"/>
        <pt x="391" y="569" on="0"/>
        <pt x="297" y="569" on="1"/>
        <pt x="146" y="569" on="1"/>
      </contour>
    </TTGlyph>
    <TTGlyph name="Racute" xMin="84" yMin="-7" xMax="534" yMax="819">
      <contour>
        <pt x="298" y="804" on="1"/>
        <pt x="313" y="819" on="0"/>
        <pt x="326" y="819" on="1"/>
        <pt x="338" y="819" on="0"/>
        <pt x="357" y="799" on="0"/>
        <pt x="357" y="789" on="1"/>
        <pt x="357" y="777" on="0"/>
        <pt x="343" y="761" on="1"/>
        <pt x="274" y="693" on="1"/>
        <pt x="260" y="678" on="0"/>
        <pt x="245" y="678" on="1"/>
        <pt x="232" y="678" on="0"/>
        <pt x="215" y="696" on="0"/>
        <pt x="215" y="707" on="1"/>
        <pt x="215" y="720" on="0"/>
        <pt x="228" y="735" on="1"/>
      </contour>
      <contour>
        <pt x="414" y="329" on="1"/>
        <pt x="446" y="294" on="0"/>
        <pt x="505" y="147" on="0"/>
        <pt x="534" y="40" on="0"/>
        <pt x="534" y="29" on="1"/>
        <pt x="534" y="14" on="0"/>
        <pt x="516" y="-7" on="0"/>
        <pt x="502" y="-7" on="1"/>
        <pt x="474" y="-7" on="0"/>
        <pt x="472" y="29" on="1"/>
        <pt x="470" y="67" on="0"/>
        <pt x="392" y="273" on="0"/>
        <pt x="333" y="317" on="1"/>
        <pt x="146" y="317" on="1"/>
        <pt x="146" y="29" on="1"/>
        <pt x="146" y="-7" on="0"/>
        <pt x="114" y="-7" on="1"/>
        <pt x="84" y="-7" on="0"/>
        <pt x="84" y="29" on="1"/>
        <pt x="84" y="596" on="1"/>
        <pt x="84" y="636" on="0"/>
        <pt x="113" y="636" on="1"/>
        <pt x="297" y="636" on="1"/>
        <pt x="413" y="636" on="0"/>
        <pt x="526" y="569" on="0"/>
        <pt x="526" y="478" on="1"/>
        <pt x="526" y="418" on="0"/>
        <pt x="467" y="342" on="0"/>
      </contour>
      <contour>
        <pt x="146" y="379" on="1"/>
        <pt x="297" y="379" on="1"/>
        <pt x="392" y="379" on="0"/>
        <pt x="464" y="415" on="0"/>
        <pt x="464" y="533" on="0"/>
        <pt x="391" y="569" on="0"/>
        <pt x="297" y="569" on="1"/>
        <pt x="146" y="569" on="1"/>
      </contour>
    </TTGlyph>
    <TTGlyph name="Rcaron" xMin="84" yMin="-7" xMax="534" yMax="819">
      <contour>
        <pt x="313" y="665" on="1"/>
        <pt x="253" y="665" on="1"/>
        <pt x="147" y="776" on="1"/>
        <pt x="139" y="784" on="0"/>
        <pt x="139" y="804" on="0"/>
        <pt x="153" y="819" on="0"/>
        <pt x="167" y="819" on="1"/>
        <pt x="180" y="819" on="0"/>
        <pt x="202" y="801" on="1"/>
        <pt x="283" y="734" on="1"/>
        <pt x="364" y="801" on="1"/>
        <pt x="386" y="819" on="0"/>
        <pt x="399" y="819" on="1"/>
        <pt x="413" y="819" on="0"/>
        <pt x="427" y="804" on="0"/>
        <pt x="427" y="784" on="0"/>
        <pt x="419" y="776" on="1"/>
      </contour>
      <contour>
        <pt x="414" y="329" on="1"/>
        <pt x="446" y="294" on="0"/>
        <pt x="505" y="147" on="0"/>
        <pt x="534" y="40" on="0"/>
        <pt x="534" y="29" on="1"/>
        <pt x="534" y="14" on="0"/>
        <pt x="516" y="-7" on="0"/>
        <pt x="502" y="-7" on="1"/>
        <pt x="474" y="-7" on="0"/>
        <pt x="472" y="29" on="1"/>
        <pt x="470" y="67" on="0"/>
        <pt x="392" y="273" on="0"/>
        <pt x="333" y="317" on="1"/>
        <pt x="146" y="317" on="1"/>
        <pt x="146" y="29" on="1"/>
        <pt x="146" y="-7" on="0"/>
        <pt x="114" y="-7" on="1"/>
        <pt x="84" y="-7" on="0"/>
        <pt x="84" y="29" on="1"/>
        <pt x="84" y="596" on="1"/>
        <pt x="84" y="636" on="0"/>
        <pt x="113" y="636" on="1"/>
        <pt x="297" y="636" on="1"/>
        <pt x="413" y="636" on="0"/>
        <pt x="526" y="569" on="0"/>
        <pt x="526" y="478" on="1"/>
        <pt x="526" y="418" on="0"/>
        <pt x="467" y="342" on="0"/>
      </contour>
      <contour>
        <pt x="146" y="379" on="1"/>
        <pt x="297" y="379" on="1"/>
        <pt x="392" y="379" on="0"/>
        <pt x="464" y="415" on="0"/>
        <pt x="464" y="533" on="0"/>
        <pt x="391" y="569" on="0"/>
        <pt x="297" y="569" on="1"/>
        <pt x="146" y="569" on="1"/>
      </contour>
    </TTGlyph>
    <TTGlyph name="Rcommaaccent" xMin="84" yMin="-161" xMax="534" yMax="636">
      <contour>
        <pt x="354" y="-51" on="1"/>
        <pt x="314" y="-134" on="1"/>
        <pt x="300" y="-161" on="0"/>
        <pt x="284" y="-161" on="1"/>
        <pt x="257" y="-161" on="0"/>
        <pt x="257" y="-131" on="1"/>
        <pt x="257" y="-126" on="0"/>
        <pt x="260" y="-114" on="1"/>
        <pt x="284" y="-27" on="1"/>
        <pt x="292" y="0" on="0"/>
        <pt x="314" y="0" on="1"/>
        <pt x="328" y="0" on="0"/>
        <pt x="360" y="-14" on="0"/>
        <pt x="360" y="-30" on="1"/>
        <pt x="360" y="-41" on="0"/>
      </contour>
      <contour>
        <pt x="414" y="329" on="1"/>
        <pt x="446" y="294" on="0"/>
        <pt x="505" y="147" on="0"/>
        <pt x="534" y="40" on="0"/>
        <pt x="534" y="29" on="1"/>
        <pt x="534" y="14" on="0"/>
        <pt x="516" y="-7" on="0"/>
        <pt x="502" y="-7" on="1"/>
        <pt x="474" y="-7" on="0"/>
        <pt x="472" y="29" on="1"/>
        <pt x="470" y="67" on="0"/>
        <pt x="392" y="273" on="0"/>
        <pt x="333" y="317" on="1"/>
        <pt x="146" y="317" on="1"/>
        <pt x="146" y="29" on="1"/>
        <pt x="146" y="-7" on="0"/>
        <pt x="114" y="-7" on="1"/>
        <pt x="84" y="-7" on="0"/>
        <pt x="84" y="29" on="1"/>
        <pt x="84" y="596" on="1"/>
        <pt x="84" y="636" on="0"/>
        <pt x="113" y="636" on="1"/>
        <pt x="297" y="636" on="1"/>
        <pt x="413" y="636" on="0"/>
        <pt x="526" y="569" on="0"/>
        <pt x="526" y="478" on="1"/>
        <pt x="526" y="418" on="0"/>
        <pt x="467" y="342" on="0"/>
      </contour>
      <contour>
        <pt x="146" y="379" on="1"/>
        <pt x="297" y="379" on="1"/>
        <pt x="392" y="379" on="0"/>
        <pt x="464" y="415" on="0"/>
        <pt x="464" y="533" on="0"/>
        <pt x="391" y="569" on="0"/>
        <pt x="297" y="569" on="1"/>
        <pt x="146" y="569" on="1"/>
      </contour>
    </TTGlyph>
    <TTGlyph name="Rho" xMin="84" yMin="-7" xMax="526" yMax="636">
      <contour>
        <pt x="146" y="29" on="1"/>
        <pt x="146" y="-7" on="0"/>
        <pt x="114" y="-7" on="1"/>
        <pt x="84" y="-7" on="0"/>
        <pt x="84" y="29" on="1"/>
        <pt x="84" y="596" on="1"/>
        <pt x="84" y="636" on="0"/>
        <pt x="113" y="636" on="1"/>
        <pt x="299" y="636" on="1"/>
        <pt x="413" y="636" on="0"/>
        <pt x="526" y="569" on="0"/>
        <pt x="526" y="479" on="1"/>
        <pt x="526" y="403" on="0"/>
        <pt x="431" y="322" on="0"/>
        <pt x="345" y="322" on="1"/>
        <pt x="146" y="322" on="1"/>
      </contour>
      <contour>
        <pt x="299" y="384" on="1"/>
        <pt x="396" y="384" on="0"/>
        <pt x="464" y="422" on="0"/>
        <pt x="464" y="479" on="1"/>
        <pt x="464" y="538" on="0"/>
        <pt x="392" y="574" on="0"/>
        <pt x="299" y="574" on="1"/>
        <pt x="146" y="574" on="1"/>
        <pt x="146" y="384" on="1"/>
      </contour>
    </TTGlyph>
    <TTGlyph name="S" xMin="61" yMin="-8" xMax="567" yMax="644">
      <contour>
        <pt x="123" y="478" on="1"/>
        <pt x="123" y="441" on="0"/>
        <pt x="156" y="388" on="0"/>
        <pt x="179" y="382" on="1"/>
        <pt x="435" y="332" on="1"/>
        <pt x="506" y="318" on="0"/>
        <pt x="567" y="222" on="0"/>
        <pt x="567" y="158" on="1"/>
        <pt x="567" y="127" on="0"/>
        <pt x="550" y="72" on="0"/>
        <pt x="511" y="21" on="0"/>
        <pt x="438" y="-8" on="0"/>
        <pt x="388" y="-8" on="1"/>
        <pt x="298" y="-8" on="1"/>
        <pt x="174" y="-8" on="0"/>
        <pt x="61" y="66" on="0"/>
        <pt x="61" y="177" on="1"/>
        <pt x="61" y="215" on="0"/>
        <pt x="94" y="215" on="1"/>
        <pt x="108" y="215" on="0"/>
        <pt x="124" y="194" on="0"/>
        <pt x="124" y="177" on="1"/>
        <pt x="124" y="97" on="0"/>
        <pt x="193" y="54" on="0"/>
        <pt x="298" y="54" on="1"/>
        <pt x="408" y="54" on="1"/>
        <pt x="444" y="54" on="0"/>
        <pt x="491" y="93" on="0"/>
        <pt x="505" y="137" on="0"/>
        <pt x="505" y="160" on="1"/>
        <pt x="505" y="207" on="0"/>
        <pt x="468" y="264" on="0"/>
        <pt x="449" y="268" on="1"/>
        <pt x="195" y="320" on="1"/>
        <pt x="123" y="335" on="0"/>
        <pt x="61" y="411" on="0"/>
        <pt x="61" y="480" on="1"/>
        <pt x="61" y="548" on="0"/>
        <pt x="150" y="644" on="0"/>
        <pt x="253" y="644" on="1"/>
        <pt x="329" y="644" on="1"/>
        <pt x="391" y="644" on="0"/>
        <pt x="470" y="631" on="0"/>
        <pt x="537" y="593" on="0"/>
        <pt x="567" y="519" on="0"/>
        <pt x="567" y="461" on="1"/>
        <pt x="567" y="423" on="0"/>
        <pt x="535" y="423" on="1"/>
        <pt x="521" y="423" on="0"/>
        <pt x="504" y="444" on="0"/>
        <pt x="504" y="461" on="1"/>
        <pt x="504" y="503" on="0"/>
        <pt x="489" y="551" on="0"/>
        <pt x="442" y="576" on="0"/>
        <pt x="385" y="582" on="0"/>
        <pt x="329" y="582" on="1"/>
        <pt x="227" y="582" on="1"/>
        <pt x="171" y="582" on="0"/>
        <pt x="123" y="516" on="0"/>
      </contour>
    </TTGlyph>
    <TTGlyph name="Sacute" xMin="61" yMin="-8" xMax="567" yMax="819">
      <contour>
        <pt x="313" y="804" on="1"/>
        <pt x="328" y="819" on="0"/>
        <pt x="341" y="819" on="1"/>
        <pt x="353" y="819" on="0"/>
        <pt x="372" y="799" on="0"/>
        <pt x="372" y="789" on="1"/>
        <pt x="372" y="777" on="0"/>
        <pt x="358" y="761" on="1"/>
        <pt x="289" y="693" on="1"/>
        <pt x="276" y="678" on="0"/>
        <pt x="260" y="678" on="1"/>
        <pt x="247" y="678" on="0"/>
        <pt x="230" y="696" on="0"/>
        <pt x="230" y="707" on="1"/>
        <pt x="230" y="720" on="0"/>
        <pt x="243" y="735" on="1"/>
      </contour>
      <contour>
        <pt x="123" y="478" on="1"/>
        <pt x="123" y="441" on="0"/>
        <pt x="156" y="388" on="0"/>
        <pt x="179" y="382" on="1"/>
        <pt x="435" y="332" on="1"/>
        <pt x="506" y="318" on="0"/>
        <pt x="567" y="222" on="0"/>
        <pt x="567" y="158" on="1"/>
        <pt x="567" y="127" on="0"/>
        <pt x="550" y="72" on="0"/>
        <pt x="511" y="21" on="0"/>
        <pt x="438" y="-8" on="0"/>
        <pt x="388" y="-8" on="1"/>
        <pt x="298" y="-8" on="1"/>
        <pt x="174" y="-8" on="0"/>
        <pt x="61" y="66" on="0"/>
        <pt x="61" y="177" on="1"/>
        <pt x="61" y="215" on="0"/>
        <pt x="94" y="215" on="1"/>
        <pt x="108" y="215" on="0"/>
        <pt x="124" y="194" on="0"/>
        <pt x="124" y="177" on="1"/>
        <pt x="124" y="97" on="0"/>
        <pt x="193" y="54" on="0"/>
        <pt x="298" y="54" on="1"/>
        <pt x="408" y="54" on="1"/>
        <pt x="444" y="54" on="0"/>
        <pt x="491" y="93" on="0"/>
        <pt x="505" y="137" on="0"/>
        <pt x="505" y="160" on="1"/>
        <pt x="505" y="207" on="0"/>
        <pt x="468" y="264" on="0"/>
        <pt x="449" y="268" on="1"/>
        <pt x="195" y="320" on="1"/>
        <pt x="123" y="335" on="0"/>
        <pt x="61" y="411" on="0"/>
        <pt x="61" y="480" on="1"/>
        <pt x="61" y="548" on="0"/>
        <pt x="150" y="644" on="0"/>
        <pt x="253" y="644" on="1"/>
        <pt x="329" y="644" on="1"/>
        <pt x="391" y="644" on="0"/>
        <pt x="470" y="631" on="0"/>
        <pt x="537" y="593" on="0"/>
        <pt x="567" y="519" on="0"/>
        <pt x="567" y="461" on="1"/>
        <pt x="567" y="423" on="0"/>
        <pt x="535" y="423" on="1"/>
        <pt x="521" y="423" on="0"/>
        <pt x="504" y="444" on="0"/>
        <pt x="504" y="461" on="1"/>
        <pt x="504" y="503" on="0"/>
        <pt x="489" y="551" on="0"/>
        <pt x="442" y="576" on="0"/>
        <pt x="385" y="582" on="0"/>
        <pt x="329" y="582" on="1"/>
        <pt x="227" y="582" on="1"/>
        <pt x="171" y="582" on="0"/>
        <pt x="123" y="516" on="0"/>
      </contour>
    </TTGlyph>
    <TTGlyph name="Scaron" xMin="61" yMin="-8" xMax="567" yMax="819">
      <contour>
        <pt x="123" y="478" on="1"/>
        <pt x="123" y="441" on="0"/>
        <pt x="156" y="388" on="0"/>
        <pt x="179" y="382" on="1"/>
        <pt x="435" y="332" on="1"/>
        <pt x="506" y="318" on="0"/>
        <pt x="567" y="222" on="0"/>
        <pt x="567" y="158" on="1"/>
        <pt x="567" y="127" on="0"/>
        <pt x="550" y="72" on="0"/>
        <pt x="511" y="21" on="0"/>
        <pt x="438" y="-8" on="0"/>
        <pt x="388" y="-8" on="1"/>
        <pt x="298" y="-8" on="1"/>
        <pt x="174" y="-8" on="0"/>
        <pt x="61" y="66" on="0"/>
        <pt x="61" y="177" on="1"/>
        <pt x="61" y="215" on="0"/>
        <pt x="94" y="215" on="1"/>
        <pt x="108" y="215" on="0"/>
        <pt x="124" y="194" on="0"/>
        <pt x="124" y="177" on="1"/>
        <pt x="124" y="97" on="0"/>
        <pt x="193" y="54" on="0"/>
        <pt x="298" y="54" on="1"/>
        <pt x="408" y="54" on="1"/>
        <pt x="444" y="54" on="0"/>
        <pt x="491" y="93" on="0"/>
        <pt x="505" y="137" on="0"/>
        <pt x="505" y="160" on="1"/>
        <pt x="505" y="207" on="0"/>
        <pt x="468" y="264" on="0"/>
        <pt x="449" y="268" on="1"/>
        <pt x="195" y="320" on="1"/>
        <pt x="123" y="335" on="0"/>
        <pt x="61" y="411" on="0"/>
        <pt x="61" y="480" on="1"/>
        <pt x="61" y="548" on="0"/>
        <pt x="150" y="644" on="0"/>
        <pt x="253" y="644" on="1"/>
        <pt x="329" y="644" on="1"/>
        <pt x="391" y="644" on="0"/>
        <pt x="470" y="631" on="0"/>
        <pt x="537" y="593" on="0"/>
        <pt x="567" y="519" on="0"/>
        <pt x="567" y="461" on="1"/>
        <pt x="567" y="423" on="0"/>
        <pt x="535" y="423" on="1"/>
        <pt x="521" y="423" on="0"/>
        <pt x="504" y="444" on="0"/>
        <pt x="504" y="461" on="1"/>
        <pt x="504" y="503" on="0"/>
        <pt x="489" y="551" on="0"/>
        <pt x="442" y="576" on="0"/>
        <pt x="385" y="582" on="0"/>
        <pt x="329" y="582" on="1"/>
        <pt x="227" y="582" on="1"/>
        <pt x="171" y="582" on="0"/>
        <pt x="123" y="516" on="0"/>
      </contour>
      <contour>
        <pt x="343" y="665" on="1"/>
        <pt x="283" y="665" on="1"/>
        <pt x="177" y="776" on="1"/>
        <pt x="169" y="784" on="0"/>
        <pt x="169" y="804" on="0"/>
        <pt x="183" y="819" on="0"/>
        <pt x="197" y="819" on="1"/>
        <pt x="210" y="819" on="0"/>
        <pt x="232" y="801" on="1"/>
        <pt x="313" y="734" on="1"/>
        <pt x="394" y="801" on="1"/>
        <pt x="416" y="819" on="0"/>
        <pt x="429" y="819" on="1"/>
        <pt x="443" y="819" on="0"/>
        <pt x="457" y="804" on="0"/>
        <pt x="457" y="784" on="0"/>
        <pt x="449" y="776" on="1"/>
      </contour>
    </TTGlyph>
    <TTGlyph name="Scedilla" xMin="61" yMin="-180" xMax="567" yMax="644">
      <contour>
        <pt x="123" y="478" on="1"/>
        <pt x="123" y="441" on="0"/>
        <pt x="156" y="388" on="0"/>
        <pt x="179" y="382" on="1"/>
        <pt x="435" y="332" on="1"/>
        <pt x="506" y="318" on="0"/>
        <pt x="567" y="222" on="0"/>
        <pt x="567" y="158" on="1"/>
        <pt x="567" y="127" on="0"/>
        <pt x="550" y="72" on="0"/>
        <pt x="511" y="21" on="0"/>
        <pt x="438" y="-8" on="0"/>
        <pt x="388" y="-8" on="1"/>
        <pt x="317" y="-8" on="1"/>
        <pt x="323" y="-17" on="0"/>
        <pt x="357" y="-41" on="0"/>
        <pt x="381" y="-71" on="0"/>
        <pt x="381" y="-94" on="1"/>
        <pt x="381" y="-133" on="0"/>
        <pt x="321" y="-180" on="0"/>
        <pt x="280" y="-180" on="1"/>
        <pt x="253" y="-180" on="0"/>
        <pt x="196" y="-154" on="0"/>
        <pt x="196" y="-125" on="1"/>
        <pt x="196" y="-114" on="0"/>
        <pt x="208" y="-102" on="0"/>
        <pt x="216" y="-102" on="1"/>
        <pt x="226" y="-102" on="0"/>
        <pt x="270" y="-120" on="0"/>
        <pt x="282" y="-120" on="1"/>
        <pt x="305" y="-120" on="0"/>
        <pt x="319" y="-110" on="0"/>
        <pt x="319" y="-99" on="1"/>
        <pt x="319" y="-91" on="0"/>
        <pt x="290" y="-68" on="0"/>
        <pt x="255" y="-32" on="0"/>
        <pt x="251" y="-7" on="1"/>
        <pt x="153" y="-2" on="0"/>
        <pt x="61" y="77" on="0"/>
        <pt x="61" y="177" on="1"/>
        <pt x="61" y="215" on="0"/>
        <pt x="94" y="215" on="1"/>
        <pt x="108" y="215" on="0"/>
        <pt x="124" y="194" on="0"/>
        <pt x="124" y="177" on="1"/>
        <pt x="124" y="97" on="0"/>
        <pt x="193" y="54" on="0"/>
        <pt x="298" y="54" on="1"/>
        <pt x="408" y="54" on="1"/>
        <pt x="444" y="54" on="0"/>
        <pt x="491" y="93" on="0"/>
        <pt x="505" y="137" on="0"/>
        <pt x="505" y="160" on="1"/>
        <pt x="505" y="207" on="0"/>
        <pt x="468" y="264" on="0"/>
        <pt x="449" y="268" on="1"/>
        <pt x="195" y="320" on="1"/>
        <pt x="123" y="335" on="0"/>
        <pt x="61" y="411" on="0"/>
        <pt x="61" y="480" on="1"/>
        <pt x="61" y="548" on="0"/>
        <pt x="150" y="644" on="0"/>
        <pt x="253" y="644" on="1"/>
        <pt x="329" y="644" on="1"/>
        <pt x="391" y="644" on="0"/>
        <pt x="470" y="631" on="0"/>
        <pt x="537" y="593" on="0"/>
        <pt x="567" y="519" on="0"/>
        <pt x="567" y="461" on="1"/>
        <pt x="567" y="423" on="0"/>
        <pt x="535" y="423" on="1"/>
        <pt x="521" y="423" on="0"/>
        <pt x="504" y="444" on="0"/>
        <pt x="504" y="461" on="1"/>
        <pt x="504" y="503" on="0"/>
        <pt x="489" y="551" on="0"/>
        <pt x="442" y="576" on="0"/>
        <pt x="385" y="582" on="0"/>
        <pt x="329" y="582" on="1"/>
        <pt x="227" y="582" on="1"/>
        <pt x="171" y="582" on="0"/>
        <pt x="123" y="516" on="0"/>
      </contour>
    </TTGlyph>
    <TTGlyph name="Scircumflex" xMin="61" yMin="-8" xMax="567" yMax="819">
      <contour>
        <pt x="172" y="695" on="1"/>
        <pt x="279" y="819" on="1"/>
        <pt x="342" y="819" on="1"/>
        <pt x="451" y="695" on="1"/>
        <pt x="458" y="688" on="0"/>
        <pt x="458" y="674" on="1"/>
        <pt x="458" y="646" on="0"/>
        <pt x="430" y="646" on="1"/>
        <pt x="422" y="646" on="0"/>
        <pt x="412" y="651" on="0"/>
        <pt x="405" y="660" on="1"/>
        <pt x="398" y="668" on="1"/>
        <pt x="311" y="750" on="1"/>
        <pt x="225" y="668" on="1"/>
        <pt x="218" y="660" on="1"/>
        <pt x="211" y="651" on="0"/>
        <pt x="201" y="646" on="0"/>
        <pt x="193" y="646" on="1"/>
        <pt x="165" y="646" on="0"/>
        <pt x="165" y="674" on="1"/>
        <pt x="165" y="688" on="0"/>
      </contour>
      <contour>
        <pt x="123" y="478" on="1"/>
        <pt x="123" y="441" on="0"/>
        <pt x="156" y="388" on="0"/>
        <pt x="179" y="382" on="1"/>
        <pt x="435" y="332" on="1"/>
        <pt x="506" y="318" on="0"/>
        <pt x="567" y="222" on="0"/>
        <pt x="567" y="158" on="1"/>
        <pt x="567" y="127" on="0"/>
        <pt x="550" y="72" on="0"/>
        <pt x="511" y="21" on="0"/>
        <pt x="438" y="-8" on="0"/>
        <pt x="388" y="-8" on="1"/>
        <pt x="298" y="-8" on="1"/>
        <pt x="174" y="-8" on="0"/>
        <pt x="61" y="66" on="0"/>
        <pt x="61" y="177" on="1"/>
        <pt x="61" y="215" on="0"/>
        <pt x="94" y="215" on="1"/>
        <pt x="108" y="215" on="0"/>
        <pt x="124" y="194" on="0"/>
        <pt x="124" y="177" on="1"/>
        <pt x="124" y="97" on="0"/>
        <pt x="193" y="54" on="0"/>
        <pt x="298" y="54" on="1"/>
        <pt x="408" y="54" on="1"/>
        <pt x="444" y="54" on="0"/>
        <pt x="491" y="93" on="0"/>
        <pt x="505" y="137" on="0"/>
        <pt x="505" y="160" on="1"/>
        <pt x="505" y="207" on="0"/>
        <pt x="468" y="264" on="0"/>
        <pt x="449" y="268" on="1"/>
        <pt x="195" y="320" on="1"/>
        <pt x="123" y="335" on="0"/>
        <pt x="61" y="411" on="0"/>
        <pt x="61" y="480" on="1"/>
        <pt x="61" y="548" on="0"/>
        <pt x="150" y="644" on="0"/>
        <pt x="253" y="644" on="1"/>
        <pt x="329" y="644" on="1"/>
        <pt x="391" y="644" on="0"/>
        <pt x="470" y="631" on="0"/>
        <pt x="537" y="593" on="0"/>
        <pt x="567" y="519" on="0"/>
        <pt x="567" y="461" on="1"/>
        <pt x="567" y="423" on="0"/>
        <pt x="535" y="423" on="1"/>
        <pt x="521" y="423" on="0"/>
        <pt x="504" y="444" on="0"/>
        <pt x="504" y="461" on="1"/>
        <pt x="504" y="503" on="0"/>
        <pt x="489" y="551" on="0"/>
        <pt x="442" y="576" on="0"/>
        <pt x="385" y="582" on="0"/>
        <pt x="329" y="582" on="1"/>
        <pt x="227" y="582" on="1"/>
        <pt x="171" y="582" on="0"/>
        <pt x="123" y="516" on="0"/>
      </contour>
    </TTGlyph>
</ttFont>
